<?xml version="1.0" standalone="no"?>
<!DOCTYPE svg PUBLIC "-//W3C//DTD SVG 1.1//EN" "http://www.w3.org/Graphics/SVG/1.1/DTD/svg11.dtd" >
<svg xmlns="http://www.w3.org/2000/svg" xmlns:xlink="http://www.w3.org/1999/xlink" version="1.1">
<metadata></metadata>
<defs>
<font id="museo_slab100" horiz-adv-x="556" >
<font-face units-per-em="1000" ascent="750" descent="-250" />
<missing-glyph horiz-adv-x="250" />
<glyph unicode="ff" horiz-adv-x="652" d="M45 0v39h90v422h-95v39h95v27q0 55 16 93t41.5 54.5t47 22.5t43.5 6q19 0 26 -1l10 -2v-39l-9 2q-7 1 -24 1t-33 -4.5t-34.5 -17.5t-30 -42t-11.5 -72v-28h274v27q0 55 16 93t41.5 54.5t47 22.5t43.5 6q19 0 26 -1l10 -2v-39l-9 2q-7 1 -24 1t-33 -4.5t-34.5 -17.5 t-30 -42t-11.5 -72v-28h133v-39h-133v-422h105v-39h-237v39h90v422h-274v-422h105v-39h-237z" />
<glyph unicode="fi" horiz-adv-x="609" d="M45 0v39h90v422h-95v39h95v27q0 55 16 93t41.5 54.5t47 22.5t43.5 6q19 0 26 -1l10 -2v-39l-9 2q-7 1 -24 1t-33 -4.5t-34.5 -17.5t-30 -42t-11.5 -72v-28h316v-461h90v-39h-222v39h90v422h-274v-422h105v-39h-237zM445 627v73h54v-73h-54z" />
<glyph unicode="fl" horiz-adv-x="585" d="M45 0v39h90v422h-95v39h95v18q0 56 18 96t48 60.5t61 29t65 8.5q54 0 104 -10q26 -5 39 -10v-578q0 -36 13 -56.5t51 -20.5q14 0 17 1t8 1l-1 -39q-8 0 -11 -1q-7 -1 -22 -1q-97 0 -97 112v551l-23 6q-32 6 -76 6q-28 0 -53 -7t-48.5 -23.5t-37 -48t-13.5 -75.5v-19h133 v-39h-133v-422h105v-39h-237z" />
<glyph unicode="ffi" horiz-adv-x="925" d="M45 0v39h90v422h-95v39h95v27q0 55 16 93t41.5 54.5t47 22.5t43.5 6q19 0 26 -1l10 -2v-39l-9 2q-7 1 -24 1t-33 -4.5t-34.5 -17.5t-30 -42t-11.5 -72v-28h274v27q0 55 16 93t41.5 54.5t47 22.5t43.5 6q19 0 26 -1l10 -2v-39l-9 2q-7 1 -24 1t-33 -4.5t-34.5 -17.5 t-30 -42t-11.5 -72v-28h316v-461h90v-39h-222v39h90v422h-274v-422h105v-39h-237v39h90v422h-274v-422h105v-39h-237zM761 627v73h54v-73h-54z" />
<glyph unicode="ffl" horiz-adv-x="901" d="M45 0v39h90v422h-95v39h95v27q0 45 11 78.5t27 51.5t38 29t39 14t35 3q17 0 24 -1l10 -2v-39l-9 2q-7 1 -22 1q-17 0 -33.5 -4.5t-35.5 -17.5t-30.5 -42t-11.5 -72v-28h274v18q0 56 18 96t48 60.5t61 29t65 8.5q54 0 104 -10q26 -5 39 -10v-578q0 -36 13 -56.5t51 -20.5 q14 0 17 1t8 1l-1 -39q-8 0 -11 -1q-7 -1 -22 -1q-97 0 -97 112v551l-23 6q-32 6 -76 6q-28 0 -53 -7t-48.5 -23.5t-37 -48t-13.5 -75.5v-19h133v-39h-133v-422h105v-39h-237v39h90v422h-274v-422h105v-39h-237z" />
<glyph unicode="fj" horiz-adv-x="577" d="M45 0v39h90v422h-95v39h95v27q0 55 16 93t41.5 54.5t47 22.5t43.5 6q19 0 26 -1l10 -2v-39l-9 2q-7 1 -24 1t-33 -4.5t-34.5 -17.5t-30 -42t-11.5 -72v-28h308v-520q0 -47 -12 -82.5t-29 -54.5t-40 -30.5t-41 -14.5t-37 -3q-14 0 -18 1q-3 1 -7 1v39q3 0 6 -1q4 -1 16 -1 q19 0 36.5 5t38 18.5t33 45t12.5 76.5v482h-266v-422h105v-39h-237zM439 627v73h50v-73h-50z" />
<glyph unicode=" "  horiz-adv-x="250" />
<glyph unicode="&#x09;" horiz-adv-x="250" />
<glyph unicode="&#xa0;" horiz-adv-x="250" />
<glyph unicode="!" horiz-adv-x="219" d="M88 175v525h43v-525h-43zM81 0v61h59v-61h-59z" />
<glyph unicode="&#x22;" horiz-adv-x="293" d="M177 518v191h43v-191h-43zM73 518v191h43v-191h-43z" />
<glyph unicode="#" horiz-adv-x="727" d="M166 0l35 199h-152l7 40h152l39 221h-152l7 40h152l35 200h43l-35 -200h189l35 200h43l-35 -200h149l-7 -40h-149l-39 -221h149l-7 -40h-149l-35 -199h-43l35 199h-189l-35 -199h-43zM251 239h189l39 221h-189z" />
<glyph unicode="$" horiz-adv-x="515" d="M49 90l29 33q25 -23 50 -39q62 -39 137 -39q67 0 111.5 38.5t44.5 99.5q0 41 -26.5 71t-67 47t-87 37t-87 40.5t-67 58.5t-26.5 89q0 65 50 113t132 56v110h43v-109q70 -4 121 -33q23 -12 42 -31l-23 -36q-18 16 -42 30q-52 29 -112 29q-75 0 -120.5 -37.5t-45.5 -90.5 q0 -43 26.5 -74.5t67 -48.5t87 -37t87 -39.5t67 -56t26.5 -86.5q0 -73 -49.5 -124t-131.5 -57v-108h-43v108q-79 5 -143 46q-31 19 -50 40z" />
<glyph unicode="%" horiz-adv-x="684" d="M184 451q-54 0 -92 38t-38 92t38 92.5t92 38.5t92.5 -38.5t38.5 -92.5t-38.5 -92t-92.5 -38zM52 0l531 700h52l-531 -700h-52zM184 491q38 0 63 26t25 64q0 39 -25 65t-63 26t-62.5 -26t-24.5 -65t24.5 -64.5t62.5 -25.5zM370 118q0 54 38 92.5t92 38.5t92.5 -38.5 t38.5 -92.5t-38.5 -92t-92.5 -38t-92 38t-38 92zM413 118q0 -39 24.5 -64.5t62.5 -25.5t63 26t25 64q0 39 -25 65t-63 26t-62.5 -26t-24.5 -65z" />
<glyph unicode="&#x26;" horiz-adv-x="658" d="M60 191q0 65 35 118t97 70v2q-25 9 -50 31q-51 47 -51 126q0 77 57 125.5t157 48.5q20 0 48 -5q19 -4 26 -5l-14 -38l-22 4q-17 4 -41 4q-72 0 -119 -36t-47 -97q0 -23 6 -44t22.5 -44.5t53.5 -38t92 -14.5h180v102h43v-102h97v-40h-97v-112q0 -129 -62.5 -193.5 t-170.5 -64.5q-105 0 -172.5 57.5t-67.5 145.5zM105 193q0 -70 52.5 -116.5t142.5 -46.5q190 0 190 216v112h-181q-101 0 -152.5 -44.5t-51.5 -120.5z" />
<glyph unicode="'" horiz-adv-x="189" d="M73 518v191h43v-191h-43z" />
<glyph unicode="(" horiz-adv-x="287" d="M234 -95h-44q-110 194 -110 430q0 209 110 390h44q-113 -190 -113 -391q0 -231 113 -429z" />
<glyph unicode=")" horiz-adv-x="288" d="M98 -95h-44q113 198 113 429q0 201 -113 391h44q110 -181 110 -390q0 -236 -110 -430z" />
<glyph unicode="*" horiz-adv-x="476" d="M144 344l-36 25l99 130v2l-156 47l13 42l155 -54l-5 164h47l-5 -164l156 53l14 -41l-157 -47v-2l98 -130l-35 -26l-93 134h-2z" />
<glyph unicode="+" horiz-adv-x="600" d="M42 263v40h237v263h43v-263h236v-40h-236v-263h-43v263h-237z" />
<glyph unicode="," horiz-adv-x="241" d="M30 -134l67 195h56l-81 -195h-42z" />
<glyph unicode="-" horiz-adv-x="528" d="M126 263v40h276v-40h-276z" />
<glyph unicode="." horiz-adv-x="237" d="M88 0v63h61v-63h-61z" />
<glyph unicode="/" horiz-adv-x="394" d="M49 -42l253 782h44l-253 -782h-44z" />
<glyph unicode="0" horiz-adv-x="614" d="M307 -12q-236 0 -236 362t236 362t236 -362t-236 -362zM307 29q54 0 92.5 24t59.5 69t30 100.5t9 127.5q0 321 -191 321t-191 -321q0 -72 9 -127.5t30 -100.5t59.5 -69t92.5 -24z" />
<glyph unicode="1" horiz-adv-x="428" d="M49 0v40h159v570q0 5 0.5 13t0.5 11v11h-2q0 -1 -7 -10q-2 -3 -11.5 -14t-18.5 -19l-83 -83l-30 29l151 152h43v-660h155v-40h-357z" />
<glyph unicode="2" horiz-adv-x="569" d="M511 0h-451q-3 20 -3 37q0 49 20.5 91.5t53.5 73.5t72.5 59.5t79.5 56t73 56t53.5 66t20.5 80.5q0 65 -45 108t-118 43q-69 0 -127 -50q-28 -24 -43 -51l-32 22q18 33 49 60q64 60 154 60q98 0 152.5 -56t54.5 -136q0 -49 -20.5 -91t-53.5 -72.5t-72.5 -59t-79 -55.5 t-72.5 -55.5t-53.5 -66t-20.5 -80.5h366v101h42v-141z" />
<glyph unicode="3" horiz-adv-x="551" d="M81 559v141h402v-30l-226 -261q36 0 72.5 -9.5t74 -31.5t61 -65t23.5 -101q0 -89 -65.5 -151.5t-156.5 -62.5q-79 0 -159 49q-34 22 -59 48l32 32q20 -23 51 -44q63 -44 137 -44q69 0 122 49t53 124q0 77 -55.5 122t-131.5 45q-24 0 -33 -1q-5 -1 -14 -1l-13 32l206 241 q6 8 14 14q5 5 8 6v2q-8 0 -11 -1q-7 -1 -19 -1h-271v-101h-42z" />
<glyph unicode="4" horiz-adv-x="575" d="M30 200v30l363 470h40v-460h104v-40h-104v-200h-43v200h-360zM369 600l-279 -358v-2h300v353q0 13 2 27q1 4 1 12h-2q-2 -6 -6 -10q-6 -11 -16 -22z" />
<glyph unicode="5" horiz-adv-x="549" d="M52 79l33 29q18 -23 41 -39q56 -40 126 -40q81 0 137.5 54.5t56.5 127.5q0 85 -54 136.5t-137 51.5q-51 0 -99 -21q-23 -11 -40 -22l-32 11l40 333h325v-141h-42v101h-245l-27 -224l-4 -19l-2 -9h2q16 9 35 16q46 16 91 16q99 0 166.5 -64.5t67.5 -158.5q0 -95 -70 -162 t-170 -67q-84 0 -150 46q-31 21 -49 45z" />
<glyph unicode="6" horiz-adv-x="583" d="M312 -12q-113 0 -179 94t-66 233q0 68 17.5 135t51.5 127t94.5 97.5t137.5 37.5q42 0 88 -14q16 -5 34 -14l-21 -39q-13 7 -29 13q-35 13 -74 13q-78 0 -135.5 -50t-85 -120.5t-33.5 -152.5h2q29 45 82 70.5t116 25.5q94 0 154.5 -61t60.5 -162q0 -109 -62 -171t-153 -62 zM116 263q0 -81 55.5 -157.5t139.5 -76.5q79 0 125 53.5t46 138.5q0 83 -47.5 132.5t-124.5 49.5q-78 0 -136 -45t-58 -95z" />
<glyph unicode="7" horiz-adv-x="522" d="M125 0l310 632l12 21l5 7v2q-7 0 -10 -1q-7 -1 -23 -1h-334v-101h-42v141h459v-30l-332 -670h-45z" />
<glyph unicode="8" horiz-adv-x="590" d="M65 196q0 44 16 83t40 63.5t39 36.5t26 18q-93 56 -93 143q0 73 54 122.5t153 49.5q95 0 151 -49t56 -128q0 -106 -91 -197q106 -58 106 -151q0 -83 -65.5 -141t-159.5 -58q-93 0 -162.5 57t-69.5 151zM138 541q0 -25 11 -46.5t25 -36t42.5 -30.5t47.5 -24.5t56.5 -24 t54.5 -22.5q10 7 28 28t38.5 64t20.5 84q0 63 -45.5 100.5t-117.5 37.5q-74 0 -117.5 -37.5t-43.5 -92.5zM110 198q0 -74 56 -121.5t129 -47.5q71 0 126.5 44.5t55.5 108.5q0 31 -12.5 55t-41.5 44t-53 31.5t-72 32t-72 31.5q-116 -72 -116 -178z" />
<glyph unicode="9" horiz-adv-x="583" d="M56 479q0 109 62 171t153 62q113 0 179 -94t66 -233q0 -68 -17.5 -135t-51.5 -127t-94.5 -97.5t-137.5 -37.5q-42 0 -88 14q-16 5 -34 14l21 39q13 -7 29 -13q35 -13 74 -13q78 0 135.5 50t85 120.5t33.5 152.5h-2q-30 -42 -83.5 -67.5t-114.5 -25.5q-93 0 -154 60.5 t-61 159.5zM101 479q0 -81 48 -130t124 -49q78 0 136 43.5t58 93.5q0 81 -55.5 157.5t-139.5 76.5q-79 0 -125 -53.5t-46 -138.5z" />
<glyph unicode=":" horiz-adv-x="303" d="M121 0v63h61v-63h-61zM121 437v63h61v-63h-61z" />
<glyph unicode=";" horiz-adv-x="306" d="M122 437v63h61v-63h-61zM71 -134l57 195h56l-71 -195h-42z" />
<glyph unicode="&#x3c;" horiz-adv-x="600" d="M69 265v36l439 197v-48l-377 -166v-2l377 -166v-48z" />
<glyph unicode="=" horiz-adv-x="600" d="M72 343v40h456v-40h-456zM72 183v40h456v-40h-456z" />
<glyph unicode="&#x3e;" horiz-adv-x="600" d="M91 68v48l377 166v2l-377 166v48l439 -197v-36z" />
<glyph unicode="?" horiz-adv-x="445" d="M161 175v44q0 45 18.5 82.5t44.5 63.5t52.5 50.5t45 56.5t18.5 69q0 55 -41 92t-105 37q-47 0 -91 -21q-19 -11 -36 -21l-23 34q21 16 41 25q52 25 108 25q85 0 138.5 -48.5t53.5 -123.5q0 -45 -18.5 -82t-45.5 -62t-53.5 -49t-45 -56.5t-18.5 -71.5v-44h-43zM153 0v61 h59v-61h-59z" />
<glyph unicode="@" horiz-adv-x="753" d="M53 244q0 152 102 258t256 106q107 0 163.5 -52t56.5 -125v-344h70v-40h-265q-80 0 -136.5 57t-56.5 137q0 81 56.5 138.5t136.5 57.5h150q-3 54 -46 92.5t-129 38.5q-134 0 -223.5 -94.5t-89.5 -230.5t88.5 -229.5t218.5 -93.5v-42q-146 0 -249 106.5t-103 259.5z M288 241q0 -64 44.5 -109t108.5 -45h145v310h-143q-65 0 -110 -46t-45 -110z" />
<glyph unicode="A" horiz-adv-x="710" d="M10 0v40h75l247 660h46l247 -660h75v-40h-206v40h85l-76 202h-297l-75 -202h85v-40h-206zM221 282h267l-122 327q-1 3 -3.5 12.5t-4.5 13.5q-2 8 -2 12h-2q0 -4 -2 -12q-1 -3 -3.5 -12t-4.5 -14z" />
<glyph unicode="B" horiz-adv-x="660" d="M53 0v40h95v620h-95v40h312q72 0 119 -26q34 -19 55 -59t21 -91q0 -107 -91 -152v-2q53 -14 86 -62t33 -113q0 -62 -30 -110.5t-79 -68.5q-38 -16 -105 -16h-321zM191 388h191q60 0 96.5 37t36.5 100q0 77 -56 114q-34 21 -94 21h-174v-272zM191 40h183q52 0 84 13 q39 16 62 53t23 87q0 71 -43 113t-112 42h-197v-308z" />
<glyph unicode="C" horiz-adv-x="740" d="M59 355q0 153 101 255t251 102q50 0 104.5 -11.5t102.5 -45t48 -82.5v-66h-44v56q0 36 -37.5 61.5t-83.5 36t-89 10.5q-131 0 -219.5 -90.5t-88.5 -225.5q0 -137 89 -231.5t222 -94.5q27 0 61.5 6t71 17.5t61 33.5t24.5 50v55h44v-65q0 -35 -27 -63t-68.5 -43.5 t-84.5 -23.5t-82 -8q-154 0 -255 106.5t-101 260.5z" />
<glyph unicode="D" horiz-adv-x="770" d="M53 0v40h95v620h-95v40h292q90 0 151 -19q100 -33 155.5 -119.5t55.5 -212.5q0 -131 -60 -217t-169 -117q-54 -15 -133 -15h-292zM191 40h147q76 0 129 16q92 27 143.5 103.5t51.5 190.5q0 111 -48.5 187.5t-136.5 105.5q-50 17 -139 17h-147v-620z" />
<glyph unicode="E" horiz-adv-x="616" d="M53 0v40h95v620h-95v40h483v-130h-42v90h-303v-287h279v-40h-279v-293h323v96h42v-136h-503z" />
<glyph unicode="F" horiz-adv-x="555" d="M53 0v40h95v620h-95v40h458v-135h-42v95h-278v-292h268v-40h-268v-288h100v-40h-238z" />
<glyph unicode="G" horiz-adv-x="766" d="M60 350q0 156 100 259t261 103q98 0 178.5 -38t80.5 -100v-67h-44v53q0 35 -35 61t-83 38t-99 12q-141 0 -227.5 -91.5t-86.5 -230.5q0 -138 87 -229t224 -91q32 0 69 5.5t76.5 17.5t65.5 36t26 56v125h-155v40h198v-170q0 -39 -27.5 -69.5t-71 -47.5t-89 -25.5 t-88.5 -8.5q-159 0 -259.5 103t-100.5 259z" />
<glyph unicode="H" horiz-adv-x="826" d="M53 0v40h95v620h-95v40h233v-40h-95v-289h444v289h-95v40h233v-40h-95v-620h95v-40h-233v40h95v291h-444v-291h95v-40h-233z" />
<glyph unicode="I" horiz-adv-x="339" d="M53 0v40h95v620h-95v40h233v-40h-95v-620h95v-40h-233z" />
<glyph unicode="J" horiz-adv-x="535" d="M32 187v26h43v-19q0 -72 37.5 -118.5t106.5 -46.5q59 0 101.5 40t42.5 125v466h-111v40h239v-40h-85v-473q0 -102 -54.5 -150.5t-132.5 -48.5t-132.5 48.5t-54.5 150.5z" />
<glyph unicode="K" horiz-adv-x="646" d="M53 0v40h95v620h-95v40h233v-40h-95v-272h113l189 272h-73v40h199v-40h-74l-204 -290v-2l8 -7q13 -13 21 -28l159 -264q18 -29 55 -29h35v-40h-35q-42 0 -59 10t-37 43l-157 262q-19 33 -58 33h-82v-308h95v-40h-233z" />
<glyph unicode="L" horiz-adv-x="578" d="M53 0v40h95v620h-95v40h233v-40h-95v-620h312v120h42v-160h-492z" />
<glyph unicode="M" horiz-adv-x="928" d="M36 0v40h95l49 620h-96v40h141l225 -486l10 -23l3 -10h2l4 10l9 23l225 486h141v-40h-96l49 -620h95v-40h-233v40h95l-43 542v27q0 10 1 15h-2q-2 -10 -4 -15l-9 -24l-211 -450h-44l-211 450l-9 24q-2 5 -4 15h-2q1 -5 1 -15v-27l-43 -542h95v-40h-233z" />
<glyph unicode="N" horiz-adv-x="823" d="M53 0v40h95v620h-95v40h134l436 -598q2 -3 4.5 -7t5 -9l3.5 -7q5 -6 6 -13h2l-2 15q-1 8 -1 26v553h-95v40h233v-40h-95v-660h-40l-435 599l-13 23q-5 6 -6 13h-2l2 -15q2 -17 1 -26v-554h95v-40h-233z" />
<glyph unicode="O" horiz-adv-x="826" d="M59 355q0 150 103.5 253.5t250.5 103.5t250.5 -103.5t103.5 -253.5q0 -153 -103.5 -260t-250.5 -107t-250.5 107t-103.5 260zM104 355q0 -138 90 -232t219 -94t219 94t90 232q0 134 -89.5 225t-219.5 91t-219.5 -91t-89.5 -225z" />
<glyph unicode="P" horiz-adv-x="630" d="M53 0v40h95v620h-95v40h310q78 0 121 -21q50 -24 78.5 -71.5t28.5 -111.5q0 -70 -34 -120.5t-92 -71.5q-39 -14 -102 -14h-172v-250h95v-40h-233zM191 330h170q55 0 91 13q94 37 94 153q0 106 -83 146q-40 18 -102 18h-170v-330z" />
<glyph unicode="Q" horiz-adv-x="826" d="M59 354q0 151 102.5 254.5t249.5 103.5q149 0 252.5 -103.5t103.5 -254.5q0 -146 -92 -249l90 -93l-28 -27l-89 92q-100 -89 -237 -89q-146 0 -249 106.5t-103 259.5zM104 354q0 -137 88.5 -231t218.5 -94q122 0 208 78l-110 114l28 27l109 -113q76 92 76 219 q0 135 -89.5 226t-221.5 91q-130 0 -218.5 -91t-88.5 -226z" />
<glyph unicode="R" horiz-adv-x="669" d="M53 0v40h95v620h-95v40h295q72 0 120 -16q108 -42 108 -170q0 -82 -45 -136t-122 -64v-2l6 -6q8 -8 14 -19l132 -224q9 -14 19.5 -18.5t31.5 -4.5h19v-40h-19q-45 0 -60 9t-36 44l-125 211q-16 28 -31.5 37t-51.5 9h-117v-270h95v-40h-233zM191 350h185q69 0 112 44.5 t43 117.5q0 102 -86 134q-34 14 -99 14h-155v-310z" />
<glyph unicode="S" horiz-adv-x="553" d="M63 182h44v-51q0 -46 49.5 -74t117.5 -28q77 0 124.5 38t47.5 106q0 36 -14 64t-42.5 48.5t-55 33t-69.5 27.5q-93 36 -125 60q-63 47 -63 129q0 83 57.5 130t145.5 47q77 0 135 -28t58 -75v-67h-44v53q0 34 -46.5 55t-102.5 21q-69 0 -113.5 -34.5t-44.5 -96.5 q0 -27 10 -49t22.5 -36t39.5 -29t44.5 -22t53.5 -21q99 -40 133 -65q66 -51 66 -139q0 -85 -60.5 -138t-156.5 -53q-80 0 -145.5 35t-65.5 98v61z" />
<glyph unicode="T" horiz-adv-x="643" d="M205 0v40h95v620h-224v-118h-42v158h575v-158h-42v118h-224v-620h95v-40h-233z" />
<glyph unicode="U" horiz-adv-x="785" d="M131 255v405h-95v40h233v-40h-95v-403q0 -88 34 -141q56 -87 184 -87q132 0 186 91q33 57 33 139v401h-95v40h233v-40h-95v-405q0 -96 -41 -161q-69 -106 -220 -106q-74 0 -132.5 28t-91.5 80q-38 61 -38 159z" />
<glyph unicode="V" horiz-adv-x="698" d="M324 0l-237 660h-75v40h205v-40h-83l204 -573q1 -4 3 -13t4 -13l3 -12h3l3 12q2 4 4 13t3 13l204 573h-83v40h205v-40h-76l-237 -660h-50z" />
<glyph unicode="W" horiz-adv-x="989" d="M17 660v40h204v-40h-84l141 -567q3 -10 5 -26l2 -12h3l3 12q2 4 3.5 13t2.5 13l174 607h47l174 -607q1 -4 2.5 -13t3.5 -13l3 -12h3l2 12q2 16 5 26l141 567h-84v40h204v-40h-74l-169 -660h-54l-172 599q-3 10 -5 26l-2 12h-3l-2 -12q-3 -19 -5 -26l-172 -599h-54 l-169 660h-74z" />
<glyph unicode="X" horiz-adv-x="624" d="M25 0v40h73l185 312l-186 308h-69v40h204v-40h-85l153 -252q4 -6 10 -18q0 -1 1 -2.5t2 -2.5t1 -2h2l4 8l9 17l148 252h-82v40h203v-40h-73l-188 -315l186 -305h73v-40h-204v40h81l-151 250l-10 18q-1 2 -2.5 4t-1.5 3h-2l-3 -8l-10 -17l-147 -250h82v-40h-203z" />
<glyph unicode="Y" horiz-adv-x="635" d="M201 0v40h95v264l-215 356h-71v40h204v-40h-83l172 -287l9 -16q2 -3 4 -9h2l4 8l10 17l173 287h-83v40h203v-40h-71l-215 -356v-264h95v-40h-233z" />
<glyph unicode="Z" horiz-adv-x="612" d="M59 0v34l406 593q4 6 10.5 14t8.5 10l8 9v2q-7 0 -11 -1q-7 -1 -27 -1h-348v-118h-42v158h480v-34l-406 -593q-4 -6 -10.5 -14t-8.5 -10l-8 -9v-2q8 0 12 1q7 1 26 1h362v120h42v-160h-494z" />
<glyph unicode="[" horiz-adv-x="279" d="M107 -95v820h108v-40h-65v-740h65v-40h-108z" />
<glyph unicode="\" horiz-adv-x="394" d="M301 -42l-253 782h44l253 -782h-44z" />
<glyph unicode="]" horiz-adv-x="279" d="M64 -55h65v740h-65v40h108v-820h-108v40z" />
<glyph unicode="^" horiz-adv-x="600" d="M77 252l197 448h32l197 -448h-46l-167 388l-167 -388h-46z" />
<glyph unicode="_" horiz-adv-x="536" d="M20 0h496v-40h-496v40z" />
<glyph unicode="`" horiz-adv-x="509" d="M277 750l-104 111h64l94 -111h-54z" />
<glyph unicode="a" horiz-adv-x="534" d="M42 136q0 169 310 169h33v22q0 145 -133 145q-52 0 -106 -24q-20 -9 -41 -25l-24 34q18 15 45 28q52 27 127 27q174 0 174 -184v-267q0 -22 22 -22h60v-39h-66q-31 0 -44.5 13t-13.5 42v11q0 17 2 33l2 12h-2q-13 -34 -39 -61q-56 -62 -138 -62q-67 0 -117.5 37.5 t-50.5 110.5zM86 141q0 -47 33 -80.5t91 -33.5q55 0 96 32.5t60 80t19 99.5v27h-32q-267 0 -267 -125z" />
<glyph unicode="b" horiz-adv-x="585" d="M95 0v661h-95v39h137v-260q0 -15 -2 -29l-2 -12h2q13 31 39 57q56 56 142 56q99 0 157.5 -72t58.5 -190t-62.5 -190t-161.5 -72q-77 0 -134 57q-26 26 -39 56h-2l2 -12q2 -16 2 -32v-57h-42zM136 249q0 -90 45.5 -155t128.5 -65q77 0 127.5 59.5t50.5 161.5 q0 100 -48.5 160.5t-125.5 60.5q-76 0 -127 -55.5t-51 -166.5z" />
<glyph unicode="c" horiz-adv-x="544" d="M51 249q0 117 75.5 190t182.5 73q32 0 69.5 -8.5t72 -33.5t34.5 -62v-48h-42v39q0 33 -45 52.5t-89 19.5q-90 0 -152 -61.5t-62 -160.5q0 -98 62 -159t152 -61q72 0 125 36q26 17 42 36l22 -35q-20 -21 -48 -39q-62 -39 -141 -39q-109 0 -183.5 72.5t-74.5 188.5z" />
<glyph unicode="d" horiz-adv-x="605" d="M53 250q0 118 62.5 190t161.5 72q79 0 134 -55q26 -26 39 -55h2l-2 12q-2 14 -2 29v218h-95v39h137v-639q0 -22 22 -22h60v-39h-66q-31 0 -44.5 13t-13.5 42v11q0 12 2 26l2 9h-2q-13 -30 -39 -56q-57 -57 -142 -57q-99 0 -157.5 72t-58.5 190zM97 250 q0 -100 48.5 -160.5t125.5 -60.5q76 0 127 55.5t51 166.5q0 90 -45.5 155t-128.5 65q-77 0 -127.5 -59.5t-50.5 -161.5z" />
<glyph unicode="e" horiz-adv-x="549" d="M52 249q0 121 71 192t172 71q98 0 151 -65.5t53 -162.5q0 -13 -1 -18q-1 -3 -1 -9h-401q0 -105 61.5 -166.5t152.5 -61.5q60 0 114 32q23 13 41 31l23 -35q-20 -18 -48 -34q-64 -35 -130 -35q-109 0 -183.5 72.5t-74.5 188.5zM99 296h356q-4 88 -49 132.5t-112 44.5 q-72 0 -126.5 -46.5t-68.5 -130.5z" />
<glyph unicode="f" horiz-adv-x="336" d="M45 0v39h90v422h-95v39h95v27q0 55 16 93t41.5 54.5t47 22.5t43.5 6q19 0 26 -1l10 -2v-39l-9 2q-7 1 -24 1t-33 -4.5t-34.5 -17.5t-30 -42t-11.5 -72v-28h133v-39h-133v-422h105v-39h-237z" />
<glyph unicode="g" horiz-adv-x="597" d="M98 -171l20 37q19 -11 40 -18q47 -17 94 -17q86 0 138 43t52 129v58q0 15 2 29l2 12h-2q-52 -102 -168 -102q-98 0 -160 71t-62 187q0 117 58.5 185.5t156.5 68.5q60 0 107.5 -23.5t66.5 -71.5h2q0 3 -1 6q-2 10 -2 19q0 31 13 44.5t45 13.5h74v-39h-68q-22 0 -22 -22 v-436q0 -107 -65.5 -160t-163.5 -53q-81 0 -157 39zM279 41q74 0 119 51.5t45 165.5q0 213 -174 213q-81 0 -126 -55.5t-45 -157.5q0 -100 49.5 -158.5t131.5 -58.5z" />
<glyph unicode="h" horiz-adv-x="644" d="M28 0v39h90v622h-95v39h137v-288q0 -15 -2 -29l-2 -12h2q16 47 72.5 94t139.5 47q93 0 129 -49.5t36 -145.5v-278h90v-39h-132v302q0 30 -2 51.5t-9 45.5t-20 38.5t-36.5 24t-55.5 9.5q-88 0 -149 -64.5t-61 -162.5v-205h90v-39h-222z" />
<glyph unicode="i" horiz-adv-x="295" d="M129 627v73h54v-73h-54zM45 0v39h90v422h-95v39h137v-461h90v-39h-222z" />
<glyph unicode="j" horiz-adv-x="254" d="M111 627v73h54v-73h-54zM-25 -203v39q3 0 6 -1t16 -1q19 0 36.5 5t38 18.5t33 45t12.5 76.5v482h-95v39h137v-520q0 -47 -12 -82.5t-29 -54.5t-40 -30.5t-41 -14.5t-37 -3q-15 0 -18 1t-7 1z" />
<glyph unicode="k" horiz-adv-x="537" d="M28 0v39h90v622h-95v39h137v-397h84l135 158h-78v39h203v-39h-71l-150 -173v-2q10 0 33 -38l112 -187q8 -14 16.5 -18t31.5 -4h37v-39h-39q-39 0 -54.5 9.5t-36.5 43.5l-114 189q-9 14 -19.5 18t-31.5 4h-58v-225h90v-39h-222z" />
<glyph unicode="l" horiz-adv-x="253" d="M96 110v551h-94v39h136v-586q0 -77 59 -77q19 0 22 1t8 1l-1 -39q-7 0 -11 -1q-7 -1 -25 -1q-94 0 -94 112z" />
<glyph unicode="m" horiz-adv-x="993" d="M45 0v39h90v400q0 22 -22 22h-73v39h79q31 0 44.5 -13t13.5 -42v-33q0 -15 -2 -29l-2 -12h2q18 56 75.5 98.5t116.5 42.5q74 0 112 -34t46 -102h2q23 55 75.5 95.5t114.5 40.5q92 0 129.5 -49.5t37.5 -145.5v-278h90v-39h-132v302q0 39 -4.5 67t-17.5 53t-38.5 38 t-64.5 13q-79 0 -132.5 -70t-53.5 -155v-209h90v-39h-132v302q0 30 -2 51.5t-9 45.5t-20 39t-36 25t-55 10q-79 0 -134.5 -69.5t-55.5 -155.5v-209h90v-39h-222z" />
<glyph unicode="n" horiz-adv-x="661" d="M45 0v39h90v400q0 22 -22 22h-73v39h79q31 0 44.5 -13t13.5 -42v-33q0 -15 -2 -29l-2 -12h2q16 47 72.5 94t139.5 47q93 0 129 -49.5t36 -145.5v-278h90v-39h-132v302q0 30 -2 51.5t-9 45.5t-20 38.5t-36.5 24t-55.5 9.5q-88 0 -149 -66t-61 -157v-209h90v-39h-222z" />
<glyph unicode="o" horiz-adv-x="618" d="M50 253q0 109 75.5 184t183.5 75t183.5 -75t75.5 -184q0 -111 -75.5 -188t-183.5 -77t-183.5 77t-75.5 188zM94 253q0 -95 62.5 -159.5t152.5 -64.5t152.5 64.5t62.5 159.5q0 92 -62.5 155t-152.5 63t-152.5 -63t-62.5 -155z" />
<glyph unicode="p" horiz-adv-x="608" d="M28 -161h90v600q0 22 -22 22h-73v39h79q31 0 44.5 -13t13.5 -42v-5q0 -22 -1 -29l-2 -11h2q13 31 37 56q54 56 143 56q99 0 157.5 -72t58.5 -190t-62 -190t-160 -72q-79 0 -136 57q-26 26 -39 56h-2l2 -12q2 -16 2 -32v-218h90v-39h-222v39zM159 249q0 -89 47 -154.5 t127 -65.5q77 0 127.5 59.5t50.5 161.5q0 100 -48.5 160.5t-125.5 60.5q-76 0 -127 -55.5t-51 -166.5z" />
<glyph unicode="q" horiz-adv-x="585" d="M53 250q0 118 62.5 190t161.5 72q79 0 133 -54q24 -24 39 -55h2q0 7 -1 11q-2 14 -2 29v57h42v-661h90v-39h-222v39h90v218q0 16 2 32l2 12h-2q-13 -30 -39 -56q-57 -57 -142 -57q-99 0 -157.5 72t-58.5 190zM97 250q0 -100 48.5 -160.5t125.5 -60.5q76 0 127 55.5 t51 166.5q0 90 -45.5 155.5t-128.5 65.5q-77 0 -127.5 -60t-50.5 -162z" />
<glyph unicode="r" horiz-adv-x="373" d="M51 0v39h80v400q0 22 -22 22h-73v39h79q31 0 44.5 -13t13.5 -42v-35q0 -22 -1 -29q-1 -4 -1 -12h2q20 61 60.5 98t97.5 37q15 0 20 -1l9 -2v-42q-4 0 -7 1q-4 1 -16 1q-55 0 -94 -41.5t-54.5 -95t-15.5 -108.5v-177h80v-39h-202z" />
<glyph unicode="s" horiz-adv-x="460" d="M49 106v43h42v-38q0 -40 45.5 -61t99.5 -21t92.5 24.5t38.5 66.5q0 19 -9 34.5t-20 26t-34 22.5t-37.5 17.5l-43.5 16.5q-37 15 -57.5 24.5t-46.5 27.5t-38 41t-12 53q0 60 48.5 94.5t113.5 34.5q57 0 108.5 -24.5t51.5 -70.5v-55h-42v41q0 31 -35 49.5t-81 18.5 q-50 0 -85 -22.5t-35 -62.5q0 -18 8.5 -33t18.5 -25t32.5 -21.5t35.5 -17t42 -16.5q38 -15 59.5 -25t48.5 -28t40 -42t13 -54q0 -61 -49 -98.5t-130 -37.5q-74 0 -128.5 32t-54.5 86z" />
<glyph unicode="t" horiz-adv-x="316" d="M112 181v280h-95v39h95v139h42v-139h131v-39h-131v-277q0 -46 12.5 -78t32.5 -46.5t37.5 -19.5t36.5 -5q14 0 17 1t6 1v-39q-4 0 -7 -1t-18 -1q-19 0 -37 3t-41 14.5t-40 30.5t-29 54.5t-12 82.5z" />
<glyph unicode="u" horiz-adv-x="641" d="M113 183v278h-95v39h137v-302q0 -30 2 -51.5t9 -45.5t20 -38.5t36.5 -24t55.5 -9.5q90 0 147.5 67.5t57.5 159.5v205h-95v39h137v-440q0 -22 22 -22h60v-38h-66q-31 0 -44.5 13t-13.5 42v28q0 22 1 29q1 4 1 12h-2q-16 -47 -70.5 -91.5t-134.5 -44.5q-89 0 -127 48 t-38 147z" />
<glyph unicode="v" horiz-adv-x="548" d="M8 461v39h192v-39h-79l143 -374q2 -4 4 -11.5t3 -10.5q2 -6 2 -10h2q0 4 2 10q1 4 3 11t4 11l143 374h-79v39h192v-39h-68l-178 -461h-40l-178 461h-68z" />
<glyph unicode="w" horiz-adv-x="844" d="M9 461v39h192v-39h-81l122 -377q3 -6 5 -22l2 -10h2l2 10q2 12 6 22l140 414h46l140 -414q4 -10 6 -22l2 -10h2l2 10q1 9 5 22l122 377h-81v39h192v-39h-66l-154 -461h-42l-141 411q-1 4 -2.5 11t-3.5 11l-3 11h-2l-3 -11q-2 -4 -3.5 -11t-2.5 -11l-141 -411h-42 l-154 461h-66z" />
<glyph unicode="x" horiz-adv-x="544" d="M26 0v39h83l136 222l-124 200h-89v39h113l111 -182l11 -17q2 -3 4 -9h2l4 8l11 19l112 181h112v-39h-88l-126 -201l138 -221h82v-39h-107l-124 203l-10 18q-5 7 -5 8h-2l-4 -8q0 -1 -4 -8t-7 -11l-123 -202h-106z" />
<glyph unicode="y" horiz-adv-x="561" d="M44 -183l19 37q7 -8 18 -12q19 -12 44 -12q33 0 58.5 25.5t40.5 64.5l34 82l-182 459h-68v39h193v-39h-79l149 -381q4 -9 6 -20l2 -8h2q0 2 2 8q2 3 4 10t3 10l149 381h-79v39h193v-39h-69l-226 -566q-19 -48 -53 -76.5t-80 -28.5q-30 0 -58 13q-11 6 -23 14z" />
<glyph unicode="z" horiz-adv-x="506" d="M51 34l317 398q10 14 18 21l7 7v2h-11q-3 0 -11.5 -0.5t-14.5 -0.5h-255v-95h-41v134h390v-34l-318 -398q-10 -14 -18 -21l-7 -7v-2q3 1 11 1h26h265v95h41v-134h-399v34z" />
<glyph unicode="{" horiz-adv-x="305" d="M124 88v94q0 68 -42 100q-20 15 -43 19v40q23 4 43 19q42 32 42 100v81q0 48 11.5 84t27 54.5t36.5 29t34.5 13t26.5 2.5h9v-39h-6q-13 0 -25.5 -4t-30.5 -17t-29 -44.5t-11 -77.5v-93q0 -61 -39 -100q-18 -18 -40 -27v-2q21 -8 40 -26q39 -37 39 -101v-106 q0 -46 11 -77.5t29 -44.5t30.5 -17t25.5 -4h6v-39q0 -1 -2 -1h-7q-13 0 -26.5 2.5t-34.5 13t-36.5 29t-27 54.5t-11.5 85z" />
<glyph unicode="|" horiz-adv-x="255" d="M106 -155v940h43v-940h-43z" />
<glyph unicode="}" horiz-adv-x="305" d="M36 -56h6q13 0 25.5 4t30.5 17t29 44.5t11 77.5v106q0 63 40 101q19 17 39 26v2q-21 9 -39 27q-40 40 -40 100v93q0 46 -11 77.5t-29 44.5t-30.5 17t-25.5 4h-6v39h9q14 0 27.5 -2.5t34.5 -13t36 -29t26.5 -54.5t11.5 -84v-81q0 -67 43 -100q20 -15 42 -19v-40 q-22 -4 -42 -19q-43 -33 -43 -100v-94q0 -49 -11.5 -85t-26.5 -54.5t-36 -29t-34.5 -13t-27.5 -2.5h-7q-2 0 -2 1v39z" />
<glyph unicode="~" horiz-adv-x="595" d="M121 213h-40q0 74 31.5 109t83.5 35q31 0 55.5 -11.5t40 -27.5t30 -32t35 -27.5t45.5 -11.5q31 0 49 21t22 41.5t4 43.5h40q0 -74 -31.5 -109t-83.5 -35q-31 0 -55.5 11.5t-40 27.5t-30 32t-35 27.5t-45.5 11.5q-31 0 -49 -21t-22 -41.5t-4 -43.5z" />
<glyph unicode="&#xa1;" horiz-adv-x="209" d="M74 439v61h59v-61h-59zM83 -200v525h43v-525h-43z" />
<glyph unicode="&#xa2;" horiz-adv-x="542" d="M260 -13v84q-101 9 -155 86.5t-54 192.5t54 193t155 86v83h43v-83q121 -11 185 -142l-41 -16q-55 116 -163 116q-95 0 -141.5 -66t-46.5 -171t46.5 -171t141.5 -66q108 0 163 116l41 -16q-65 -132 -185 -142v-84h-43z" />
<glyph unicode="&#xa3;" horiz-adv-x="602" d="M47 0v40h90v293h-65v40h65v162q0 76 55.5 126.5t141.5 50.5q55 0 107 -25q23 -11 40 -26l-29 -33q-15 10 -33 21q-40 21 -86 21q-72 0 -112.5 -40t-40.5 -99v-158h198v-40h-198v-293h328v120h42v-160h-503z" />
<glyph unicode="&#xa5;" horiz-adv-x="615" d="M124 222v40h163v42l-29 48h-134v40h110l-185 308h49l166 -276q13 -20 29 -52l14 -27h2l14 27q16 32 29 52l166 276h49l-185 -308h108v-40h-132l-28 -48v-42h160v-40h-160v-222h-43v222h-163z" />
<glyph unicode="&#xa7;" horiz-adv-x="375" d="M137 62l-67 474q-2 16 -2 25q0 65 45 108t113 43q32 0 66 -16q18 -9 27 -17l-26 -32q-7 7 -19 12q-21 12 -49 12q-49 0 -81 -31t-32 -82q0 -7 2 -21l65 -475h-42zM58 -29l26 32q7 -7 19 -12q21 -12 49 -12q49 0 80.5 31t31.5 82q0 14 -1 21l-65 475h42l67 -474 q2 -18 2 -25q0 -65 -45 -108t-113 -43q-32 0 -66 16q-18 9 -27 17z" />
<glyph unicode="&#xa8;" horiz-adv-x="509" d="M311 788v73h54v-73h-54zM143 788v73h54v-73h-54z" />
<glyph unicode="&#xa9;" horiz-adv-x="813" d="M53 350q0 152 102.5 257t249.5 105q148 0 252 -105t104 -257t-104 -257t-252 -105q-147 0 -249.5 105t-102.5 257zM98 350q0 -136 88.5 -228t218.5 -92q132 0 221.5 92t89.5 228q0 135 -89.5 227.5t-221.5 92.5q-130 0 -218.5 -92.5t-88.5 -227.5zM202 349q0 85 57 148 t158 63q67 0 121 -44q27 -20 42 -44l-33 -29q-18 24 -34 37q-45 37 -95 37q-81 0 -126 -49.5t-45 -117.5t45 -117.5t126 -49.5q51 0 96 37q18 15 33 37l33 -29q-17 -24 -43 -44q-54 -44 -120 -44q-101 0 -158 62t-57 147z" />
<glyph unicode="&#xaa;" horiz-adv-x="431" d="M202 382q-44 0 -77.5 24t-33.5 69q0 111 194 111h14v4q0 83 -76 83q-29 0 -61 -14q-16 -7 -25 -15l-22 30q11 10 29 18q38 18 80 18q114 0 114 -120v-202h-39v51h-2q-8 -15 -23 -28q-31 -29 -72 -29zM203 419q43 0 69.5 37.5t26.5 83.5v10h-13q-154 0 -154 -71 q0 -25 18.5 -42.5t52.5 -17.5zM88 263v37h253v-37h-253z" />
<glyph unicode="&#xab;" horiz-adv-x="496" d="M214 282l164 206h53l-164 -206l164 -205h-53zM218 77l-164 205l164 206h53l-164 -206l164 -205h-53z" />
<glyph unicode="&#xac;" horiz-adv-x="601" d="M72 343v40h456v-219h-42v179h-414z" />
<glyph unicode="&#xad;" horiz-adv-x="528" d="M126 263v40h276v-40h-276z" />
<glyph unicode="&#xae;" horiz-adv-x="813" d="M53 350q0 152 102.5 257t249.5 105q148 0 252 -105t104 -257t-104 -257t-252 -105q-147 0 -249.5 105t-102.5 257zM98 350q0 -136 88.5 -228t218.5 -92q132 0 221.5 92t89.5 228q0 135 -89.5 227.5t-221.5 92.5q-130 0 -218.5 -92.5t-88.5 -227.5zM289 150v400h133 q52 0 84 -31.5t32 -84.5q0 -43 -22 -70.5t-55 -36.5v-2l3 -5q4 -4 10 -17l79 -153h-49l-85 167h-86v-167h-44zM333 355h84q35 0 55.5 21t20.5 58q0 36 -20.5 56t-55.5 20h-84v-155z" />
<glyph unicode="&#xaf;" horiz-adv-x="509" d="M135 786v40h239v-40h-239z" />
<glyph unicode="&#xb0;" horiz-adv-x="370" d="M185 449q-54 0 -92 38t-38 92t38 92.5t92 38.5t92.5 -38.5t38.5 -92.5t-38.5 -92t-92.5 -38zM185 489q38 0 63 26t25 64q0 39 -25 65t-63 26t-62.5 -26t-24.5 -65t24.5 -64.5t62.5 -25.5z" />
<glyph unicode="&#xb1;" horiz-adv-x="600" d="M42 263v40h237v263h43v-263h236v-40h-236v-263h-43v263h-237zM62 -113h476v-40h-476v40z" />
<glyph unicode="&#xb2;" horiz-adv-x="353" d="M38 455q0 42 23 76t55 57t64.5 44.5t55.5 50t23 61.5q0 36 -25.5 61.5t-65.5 25.5q-37 0 -68 -25q-12 -10 -26 -25l-24 26q14 17 31 30q40 30 87 30q62 0 96 -35.5t34 -87.5q0 -41 -22.5 -73.5t-54.5 -54t-64.5 -42.5t-55.5 -50t-24 -65h192v57h38v-93h-267q0 8 -1 11 q-1 7 -1 21z" />
<glyph unicode="&#xb3;" horiz-adv-x="360" d="M54 764v93h257v-26l-129 -151q50 -3 91 -35.5t41 -94.5q0 -57 -42.5 -97t-100.5 -40t-105 33q-19 13 -33 32l28 26q11 -15 27 -27q35 -28 84 -28q39 0 71 29.5t32 71.5q0 43 -32.5 69.5t-74.5 26.5h-32l-11 24l113 133l14 14l6 5v2q-4 0 -7 -1q-14 -2 -20 -2h-139v-57 h-38z" />
<glyph unicode="&#xb4;" horiz-adv-x="509" d="M178 750l94 111h64l-104 -111h-54z" />
<glyph unicode="&#xb5;" horiz-adv-x="572" d="M80 -200v700h42v-302q0 -30 2 -51.5t9 -45.5t20 -38.5t36.5 -24t55.5 -9.5q90 0 147.5 67.5t57.5 159.5v244h42v-500h-42v83q0 22 1 29q1 4 1 12h-2q-17 -38 -45 -68q-62 -68 -160 -68q-60 0 -100 26q-17 10 -27 25h-2l3 -28q3 -15 3 -44v-167h-42z" />
<glyph unicode="&#xb6;" horiz-adv-x="550" d="M285 -50v291q-97 0 -168.5 67.5t-71.5 162.5q0 96 70.5 162.5t168.5 66.5h210v-40h-167v-710h-42zM389 -50v647h42v-647h-42z" />
<glyph unicode="&#xb7;" horiz-adv-x="279" d="M109 255v63h61v-63h-61z" />
<glyph unicode="&#xb8;" horiz-adv-x="509" d="M208 -92l24 114l35 -5v-8l-13 -69q29 -3 48.5 -22t19.5 -46q0 -39 -26 -57.5t-65 -18.5q-16 0 -32 2l-12 2v38l12 -3q14 -2 29 -2q52 0 52 37q0 38 -60 38h-12z" />
<glyph unicode="&#xb9;" horiz-adv-x="307" d="M39 423v36h106v315q0 15 1 22q1 3 1 9h-1l-4 -5l-13 -14l-61 -60l-26 27l103 104h38v-398h103v-36h-247z" />
<glyph unicode="&#xba;" horiz-adv-x="480" d="M239 383q-68 0 -115.5 48t-47.5 118q0 68 47.5 115t115.5 47t115.5 -47t47.5 -115q0 -70 -47.5 -118t-115.5 -48zM239 420q52 0 88 37t36 92q0 54 -36 89.5t-88 35.5t-88 -35.5t-36 -89.5q0 -55 36 -92t88 -37zM94 263v37h294v-37h-294z" />
<glyph unicode="&#xbb;" horiz-adv-x="496" d="M225 77l164 205l-164 206h53l164 -206l-164 -205h-53zM65 77l164 205l-164 206h53l164 -206l-164 -205h-53z" />
<glyph unicode="&#xbc;" horiz-adv-x="917" d="M769 0v121h-215v26l222 287h31v-277h68v-36h-68v-121h-38zM607 157h162v175q0 11 2 27q1 5 1 14h-2q-2 -5 -6 -11q-8 -14 -16 -23l-141 -180v-2zM61 266v36h106v315q0 15 1 22q1 3 1 9h-1l-4 -5l-13 -14l-61 -60l-26 27l103 104h38v-398h103v-36h-247zM259 0l336 700h43 l-335 -700h-44z" />
<glyph unicode="&#xbd;" horiz-adv-x="895" d="M251 0l336 700h43l-335 -700h-44zM53 266v36h106v315q0 15 1 22q1 3 1 9h-1l-4 -5l-13 -14l-61 -60l-26 27l103 104h38v-398h103v-36h-247zM574 32q0 42 23 76t55 57t64.5 44.5t55.5 50t23 61.5q0 36 -25.5 61.5t-65.5 25.5q-37 0 -68 -25q-12 -10 -26 -25l-24 26 q14 17 31 30q40 30 87 30q62 0 96 -35.5t34 -87.5q0 -41 -22.5 -73.5t-54.5 -54t-64.5 -42.5t-55.5 -50t-24 -65h192v57h38v-93h-267q0 8 -1 11q-1 7 -1 21z" />
<glyph unicode="&#xbe;" horiz-adv-x="938" d="M75 607v93h257v-26l-129 -151q49 -3 90.5 -35.5t41.5 -94.5q0 -57 -42.5 -97t-100.5 -40t-105 33q-19 13 -33 32l28 26q10 -15 27 -27q35 -28 84 -28q39 0 71 29.5t32 71.5q0 43 -32.5 69.5t-74.5 26.5h-32l-11 24l113 133l14 14l6 5v2q-4 0 -7 -1q-14 -2 -20 -2h-139 v-57h-38zM277 0l336 700h43l-335 -700h-44zM787 0v121h-215v26l222 287h31v-277h68v-36h-68v-121h-38zM625 157h162v175q0 11 2 27q1 5 1 14h-2q-2 -5 -6 -11q-8 -14 -16 -23l-141 -180v-2z" />
<glyph unicode="&#xbf;" horiz-adv-x="439" d="M229 439v61h59v-61h-59zM56 -38q0 45 18.5 82t45 62t53.5 49t45.5 56.5t18.5 71.5v42h43v-42q0 -45 -18.5 -82.5t-45 -63.5t-52.5 -50.5t-44.5 -56.5t-18.5 -69q0 -55 41 -92t105 -37q47 0 91 21q20 11 36 21l23 -34q-21 -16 -41 -25q-52 -25 -108 -25q-85 0 -138.5 48.5 t-53.5 123.5z" />
<glyph unicode="&#xc0;" horiz-adv-x="710" d="M10 0v40h75l247 660h46l247 -660h75v-40h-206v40h85l-76 202h-297l-75 -202h85v-40h-206zM221 282h267l-122 327q-1 3 -3.5 12.5t-4.5 13.5q-2 8 -2 12h-2q0 -4 -2 -12q-1 -3 -3.5 -12t-4.5 -14zM338 750l-104 111h64l94 -111h-54z" />
<glyph unicode="&#xc1;" horiz-adv-x="710" d="M10 0v40h75l247 660h46l247 -660h75v-40h-206v40h85l-76 202h-297l-75 -202h85v-40h-206zM221 282h267l-122 327q-1 3 -3.5 12.5t-4.5 13.5q-2 8 -2 12h-2q0 -4 -2 -12q-1 -3 -3.5 -12t-4.5 -14zM317 750l94 111h64l-104 -111h-54z" />
<glyph unicode="&#xc2;" horiz-adv-x="710" d="M10 0v40h75l247 660h46l247 -660h75v-40h-206v40h85l-76 202h-297l-75 -202h85v-40h-206zM221 282h267l-122 327q-1 3 -3.5 12.5t-4.5 13.5q-2 8 -2 12h-2q0 -4 -2 -12q-1 -3 -3.5 -12t-4.5 -14zM245 750l80 111h60l80 -111h-53l-56 80h-2l-56 -80h-53z" />
<glyph unicode="&#xc3;" horiz-adv-x="710" d="M10 0v40h75l247 660h46l247 -660h75v-40h-206v40h85l-76 202h-297l-75 -202h85v-40h-206zM221 282h267l-122 327q-1 3 -3.5 12.5t-4.5 13.5q-2 8 -2 12h-2q0 -4 -2 -12q-1 -3 -3.5 -12t-4.5 -14zM251 753h-44q0 108 84 108q25 0 45 -11.5t30.5 -24.5t24.5 -24.5t28 -11.5 q41 0 41 69h44q0 -108 -84 -108q-33 0 -55 18t-38.5 36t-34.5 18q-41 0 -41 -69z" />
<glyph unicode="&#xc4;" horiz-adv-x="710" d="M10 0v40h75l247 660h46l247 -660h75v-40h-206v40h85l-76 202h-297l-75 -202h85v-40h-206zM221 282h267l-122 327q-1 3 -3.5 12.5t-4.5 13.5q-2 8 -2 12h-2q0 -4 -2 -12q-1 -3 -3.5 -12t-4.5 -14zM412 788v73h54v-73h-54zM244 788v73h54v-73h-54z" />
<glyph unicode="&#xc5;" horiz-adv-x="710" d="M10 0v40h75l247 660h46l247 -660h75v-40h-206v40h85l-76 202h-297l-75 -202h85v-40h-206zM221 282h267l-122 327q-1 3 -3.5 12.5t-4.5 13.5q-2 8 -2 12h-2q0 -4 -2 -12q-1 -3 -3.5 -12t-4.5 -14zM355 733q-31 0 -52.5 21t-21.5 52q0 32 21.5 53.5t52.5 21.5 q32 0 54 -21.5t22 -53.5q0 -31 -22 -52t-54 -21zM355 770q17 0 27 10t10 26q0 18 -10 28.5t-27 10.5q-16 0 -25.5 -10.5t-9.5 -28.5q0 -16 9.5 -26t25.5 -10z" />
<glyph unicode="&#xc6;" horiz-adv-x="903" d="M10 0v40h69l254 620h-82v40h573v-130h-42v90h-303v-287h279v-40h-279v-293h323v91h42v-131h-498v40h90v293h-190l-121 -293h81v-40h-196zM262 373h174v287h-56z" />
<glyph unicode="&#xc7;" horiz-adv-x="740" d="M367 -92l17 81q-142 12 -233.5 116t-91.5 250q0 153 101 255t251 102q50 0 104.5 -11.5t102.5 -45t48 -82.5v-66h-44v56q0 36 -37.5 61.5t-83.5 36t-89 10.5q-131 0 -219.5 -90.5t-88.5 -225.5q0 -137 89 -231.5t222 -94.5q27 0 61.5 6t71 17.5t61 33.5t24.5 50v55h44 v-65q0 -35 -25.5 -62.5t-66 -42.5t-82 -23.5t-81.5 -9.5l-9 -48q29 -3 48.5 -22t19.5 -46q0 -39 -26 -57.5t-65 -18.5q-16 0 -32 2l-12 2v38l12 -3q14 -2 29 -2q52 0 52 37q0 38 -60 38h-12z" />
<glyph unicode="&#xc8;" horiz-adv-x="616" d="M53 0v40h95v620h-95v40h483v-130h-42v90h-303v-287h279v-40h-279v-293h323v96h42v-136h-503zM295 750l-104 111h64l94 -111h-54z" />
<glyph unicode="&#xc9;" horiz-adv-x="616" d="M53 0v40h95v620h-95v40h483v-130h-42v90h-303v-287h279v-40h-279v-293h323v96h42v-136h-503zM274 750l94 111h64l-104 -111h-54z" />
<glyph unicode="&#xca;" horiz-adv-x="616" d="M53 0v40h95v620h-95v40h483v-130h-42v90h-303v-287h279v-40h-279v-293h323v96h42v-136h-503zM202 750l80 111h60l80 -111h-53l-56 80h-2l-56 -80h-53z" />
<glyph unicode="&#xcb;" horiz-adv-x="616" d="M53 0v40h95v620h-95v40h483v-130h-42v90h-303v-287h279v-40h-279v-293h323v96h42v-136h-503zM369 788v73h54v-73h-54zM201 788v73h54v-73h-54z" />
<glyph unicode="&#xcc;" horiz-adv-x="339" d="M53 0v40h95v620h-95v40h233v-40h-95v-620h95v-40h-233zM152 750l-104 111h64l94 -111h-54z" />
<glyph unicode="&#xcd;" horiz-adv-x="339" d="M53 0v40h95v620h-95v40h233v-40h-95v-620h95v-40h-233zM131 750l94 111h64l-104 -111h-54z" />
<glyph unicode="&#xce;" horiz-adv-x="339" d="M53 0v40h95v620h-95v40h233v-40h-95v-620h95v-40h-233zM59 750l80 111h60l80 -111h-53l-56 80h-2l-56 -80h-53z" />
<glyph unicode="&#xcf;" horiz-adv-x="339" d="M53 0v40h95v620h-95v40h233v-40h-95v-620h95v-40h-233zM226 788v73h54v-73h-54zM58 788v73h54v-73h-54z" />
<glyph unicode="&#xd0;" horiz-adv-x="780" d="M53 0v40h95v293h-80v40h80v287h-95v40h315q158 0 253.5 -93t95.5 -257q0 -165 -95 -257.5t-254 -92.5h-315zM191 40h170q142 0 226.5 81t84.5 229q0 147 -84.5 228.5t-226.5 81.5h-170v-287h183v-40h-183v-293z" />
<glyph unicode="&#xd1;" horiz-adv-x="823" d="M53 0v40h95v620h-95v40h134l436 -598q2 -3 4.5 -7t5 -9l3.5 -7q5 -6 6 -13h2l-2 15q-1 8 -1 26v553h-95v40h233v-40h-95v-660h-40l-435 599l-13 23q-5 6 -6 13h-2l2 -15q2 -17 1 -26v-554h95v-40h-233zM312 753h-44q0 108 84 108q25 0 45 -11.5t30.5 -24.5t24.5 -24.5 t28 -11.5q41 0 41 69h44q0 -108 -84 -108q-33 0 -55 18t-38.5 36t-34.5 18q-41 0 -41 -69z" />
<glyph unicode="&#xd2;" horiz-adv-x="826" d="M59 355q0 150 103.5 253.5t250.5 103.5t250.5 -103.5t103.5 -253.5q0 -153 -103.5 -260t-250.5 -107t-250.5 107t-103.5 260zM104 355q0 -138 90 -232t219 -94t219 94t90 232q0 134 -89.5 225t-219.5 91t-219.5 -91t-89.5 -225zM396 750l-104 111h64l94 -111h-54z" />
<glyph unicode="&#xd3;" horiz-adv-x="826" d="M59 355q0 150 103.5 253.5t250.5 103.5t250.5 -103.5t103.5 -253.5q0 -153 -103.5 -260t-250.5 -107t-250.5 107t-103.5 260zM104 355q0 -138 90 -232t219 -94t219 94t90 232q0 134 -89.5 225t-219.5 91t-219.5 -91t-89.5 -225zM375 750l94 111h64l-104 -111h-54z" />
<glyph unicode="&#xd4;" horiz-adv-x="826" d="M59 355q0 150 103.5 253.5t250.5 103.5t250.5 -103.5t103.5 -253.5q0 -153 -103.5 -260t-250.5 -107t-250.5 107t-103.5 260zM104 355q0 -138 90 -232t219 -94t219 94t90 232q0 134 -89.5 225t-219.5 91t-219.5 -91t-89.5 -225zM303 750l80 111h60l80 -111h-53l-56 80h-2 l-56 -80h-53z" />
<glyph unicode="&#xd5;" horiz-adv-x="826" d="M59 355q0 150 103.5 253.5t250.5 103.5t250.5 -103.5t103.5 -253.5q0 -153 -103.5 -260t-250.5 -107t-250.5 107t-103.5 260zM104 355q0 -138 90 -232t219 -94t219 94t90 232q0 134 -89.5 225t-219.5 91t-219.5 -91t-89.5 -225zM309 753h-44q0 108 84 108q25 0 45 -11.5 t30.5 -24.5t24.5 -24.5t28 -11.5q41 0 41 69h44q0 -108 -84 -108q-33 0 -55 18t-38.5 36t-34.5 18q-41 0 -41 -69z" />
<glyph unicode="&#xd6;" horiz-adv-x="826" d="M59 355q0 150 103.5 253.5t250.5 103.5t250.5 -103.5t103.5 -253.5q0 -153 -103.5 -260t-250.5 -107t-250.5 107t-103.5 260zM104 355q0 -138 90 -232t219 -94t219 94t90 232q0 134 -89.5 225t-219.5 91t-219.5 -91t-89.5 -225zM470 788v73h54v-73h-54zM302 788v73h54 v-73h-54z" />
<glyph unicode="&#xd7;" horiz-adv-x="600" d="M49 28l224 255l-224 255l28 28l223 -253l223 253l28 -28l-225 -255l225 -255l-28 -28l-223 253l-223 -253z" />
<glyph unicode="&#xd8;" horiz-adv-x="826" d="M137 1l50 70q-128 110 -128 284q0 150 103.5 253.5t250.5 103.5q103 0 192 -57l49 69l34 -25l-49 -69q60 -50 94 -121t34 -154q0 -153 -103.5 -260t-250.5 -107q-104 0 -192 58l-49 -69zM212 106l368 515q-75 50 -167 50q-130 0 -219.5 -91t-89.5 -225q0 -152 108 -249z M614 596l-369 -516q73 -51 168 -51q129 0 219 94t90 232q0 149 -108 241z" />
<glyph unicode="&#xd9;" horiz-adv-x="785" d="M131 255v405h-95v40h233v-40h-95v-403q0 -88 34 -141q56 -87 184 -87q132 0 186 91q33 57 33 139v401h-95v40h233v-40h-95v-405q0 -96 -41 -161q-69 -106 -220 -106q-74 0 -132.5 28t-91.5 80q-38 61 -38 159zM375 750l-104 111h64l94 -111h-54z" />
<glyph unicode="&#xda;" horiz-adv-x="785" d="M131 255v405h-95v40h233v-40h-95v-403q0 -88 34 -141q56 -87 184 -87q132 0 186 91q33 57 33 139v401h-95v40h233v-40h-95v-405q0 -96 -41 -161q-69 -106 -220 -106q-74 0 -132.5 28t-91.5 80q-38 61 -38 159zM354 750l94 111h64l-104 -111h-54z" />
<glyph unicode="&#xdb;" horiz-adv-x="785" d="M131 255v405h-95v40h233v-40h-95v-403q0 -88 34 -141q56 -87 184 -87q132 0 186 91q33 57 33 139v401h-95v40h233v-40h-95v-405q0 -96 -41 -161q-69 -106 -220 -106q-74 0 -132.5 28t-91.5 80q-38 61 -38 159zM282 750l80 111h60l80 -111h-53l-56 80h-2l-56 -80h-53z" />
<glyph unicode="&#xdc;" horiz-adv-x="785" d="M131 255v405h-95v40h233v-40h-95v-403q0 -88 34 -141q56 -87 184 -87q132 0 186 91q33 57 33 139v401h-95v40h233v-40h-95v-405q0 -96 -41 -161q-69 -106 -220 -106q-74 0 -132.5 28t-91.5 80q-38 61 -38 159zM449 788v73h54v-73h-54zM281 788v73h54v-73h-54z" />
<glyph unicode="&#xdd;" horiz-adv-x="635" d="M201 0v40h95v264l-215 356h-71v40h204v-40h-83l172 -287l9 -16q2 -3 4 -9h2l4 8l10 17l173 287h-83v40h203v-40h-71l-215 -356v-264h95v-40h-233zM280 750l94 111h64l-104 -111h-54z" />
<glyph unicode="&#xde;" horiz-adv-x="632" d="M53 0v40h95v620h-95v40h233v-40h-95v-90h187q94 0 153.5 -55t59.5 -149t-60 -150t-155 -56h-185v-120h95v-40h-233zM191 200h185q78 0 124 44t46 122t-46 121t-124 43h-185v-330z" />
<glyph unicode="&#xdf;" horiz-adv-x="589" d="M28 0v39h90v493q0 83 56.5 131.5t131.5 48.5q74 0 117.5 -41.5t43.5 -96.5q0 -37 -19 -69t-41.5 -51t-41.5 -42t-19 -44q0 -24 33 -50.5t72.5 -49t72.5 -60t33 -80.5q0 -65 -45 -100t-109 -35q-59 0 -113 18q-21 7 -41 17v46q24 -13 43 -20q49 -20 112 -20q46 0 77.5 24 t31.5 70q0 29 -21.5 55t-52.5 45.5t-62.5 39t-53 44.5t-21.5 54q0 30 19 58t41.5 46.5t41.5 46.5t19 57q0 37 -31.5 67t-87.5 30q-57 0 -100.5 -38.5t-43.5 -103.5v-529h-132z" />
<glyph unicode="&#xe0;" horiz-adv-x="534" d="M42 136q0 169 310 169h33v22q0 145 -133 145q-52 0 -106 -24q-20 -9 -41 -25l-24 34q18 15 45 28q52 27 127 27q174 0 174 -184v-267q0 -22 22 -22h60v-39h-66q-31 0 -44.5 13t-13.5 42v11q0 17 2 33l2 12h-2q-13 -34 -39 -61q-56 -62 -138 -62q-67 0 -117.5 37.5 t-50.5 110.5zM86 141q0 -47 33 -80.5t91 -33.5q55 0 96 32.5t60 80t19 99.5v27h-32q-267 0 -267 -125zM236 589l-104 111h64l94 -111h-54z" />
<glyph unicode="&#xe1;" horiz-adv-x="534" d="M42 136q0 169 310 169h33v22q0 145 -133 145q-52 0 -106 -24q-20 -9 -41 -25l-24 34q18 15 45 28q52 27 127 27q174 0 174 -184v-267q0 -22 22 -22h60v-39h-66q-31 0 -44.5 13t-13.5 42v11q0 17 2 33l2 12h-2q-13 -34 -39 -61q-56 -62 -138 -62q-67 0 -117.5 37.5 t-50.5 110.5zM86 141q0 -47 33 -80.5t91 -33.5q55 0 96 32.5t60 80t19 99.5v27h-32q-267 0 -267 -125zM215 589l94 111h64l-104 -111h-54z" />
<glyph unicode="&#xe2;" horiz-adv-x="534" d="M42 136q0 169 310 169h33v22q0 145 -133 145q-52 0 -106 -24q-20 -9 -41 -25l-24 34q18 15 45 28q52 27 127 27q174 0 174 -184v-267q0 -22 22 -22h60v-39h-66q-31 0 -44.5 13t-13.5 42v11q0 17 2 33l2 12h-2q-13 -34 -39 -61q-56 -62 -138 -62q-67 0 -117.5 37.5 t-50.5 110.5zM86 141q0 -47 33 -80.5t91 -33.5q55 0 96 32.5t60 80t19 99.5v27h-32q-267 0 -267 -125zM143 589l80 111h60l80 -111h-53l-56 80h-2l-56 -80h-53z" />
<glyph unicode="&#xe3;" horiz-adv-x="534" d="M42 136q0 169 310 169h33v22q0 145 -133 145q-52 0 -106 -24q-20 -9 -41 -25l-24 34q18 15 45 28q52 27 127 27q174 0 174 -184v-267q0 -22 22 -22h60v-39h-66q-31 0 -44.5 13t-13.5 42v11q0 17 2 33l2 12h-2q-13 -34 -39 -61q-56 -62 -138 -62q-67 0 -117.5 37.5 t-50.5 110.5zM86 141q0 -47 33 -80.5t91 -33.5q55 0 96 32.5t60 80t19 99.5v27h-32q-267 0 -267 -125zM149 592h-44q0 108 84 108q25 0 45 -11t30.5 -25t24.5 -25t28 -11q41 0 41 69h44q0 -108 -84 -108q-33 0 -55 18t-38.5 36t-34.5 18q-41 0 -41 -69z" />
<glyph unicode="&#xe4;" horiz-adv-x="534" d="M42 136q0 169 310 169h33v22q0 145 -133 145q-52 0 -106 -24q-20 -9 -41 -25l-24 34q18 15 45 28q52 27 127 27q174 0 174 -184v-267q0 -22 22 -22h60v-39h-66q-31 0 -44.5 13t-13.5 42v11q0 17 2 33l2 12h-2q-13 -34 -39 -61q-56 -62 -138 -62q-67 0 -117.5 37.5 t-50.5 110.5zM86 141q0 -47 33 -80.5t91 -33.5q55 0 96 32.5t60 80t19 99.5v27h-32q-267 0 -267 -125zM310 627v73h54v-73h-54zM142 627v73h54v-73h-54z" />
<glyph unicode="&#xe5;" horiz-adv-x="534" d="M42 136q0 169 310 169h33v22q0 145 -133 145q-52 0 -106 -24q-20 -9 -41 -25l-24 34q18 15 45 28q52 27 127 27q174 0 174 -184v-267q0 -22 22 -22h60v-39h-66q-31 0 -44.5 13t-13.5 42v11q0 17 2 33l2 12h-2q-13 -34 -39 -61q-56 -62 -138 -62q-67 0 -117.5 37.5 t-50.5 110.5zM86 141q0 -47 33 -80.5t91 -33.5q55 0 96 32.5t60 80t19 99.5v27h-32q-267 0 -267 -125zM253 572q-31 0 -52.5 21t-21.5 52q0 32 21.5 53.5t52.5 21.5q32 0 54 -21.5t22 -53.5q0 -31 -22 -52t-54 -21zM253 609q17 0 27 10t10 26q0 18 -10 28.5t-27 10.5 q-16 0 -25.5 -10.5t-9.5 -28.5q0 -16 9.5 -26t25.5 -10z" />
<glyph unicode="&#xe6;" horiz-adv-x="871" d="M44 133q0 34 11 61t27.5 44t43.5 29.5t50.5 18.5t58.5 9.5t56.5 4t54.5 0.5h40v22q0 150 -141 150q-54 0 -104 -24q-20 -9 -39 -25l-24 34q16 15 44 28q52 27 125 27q144 0 172 -117h2q61 117 198 117q95 0 148.5 -64t53.5 -159q0 -11 -1 -18q-1 -3 -1 -10h-391 q0 -109 57 -171t147 -62q60 0 114 32q24 14 41 32l23 -35q-20 -18 -48 -34q-64 -35 -130 -35q-78 0 -138 40.5t-87 112.5h-2q-3 -14 -13.5 -36t-31 -50t-58.5 -47.5t-86 -19.5q-73 0 -122.5 38t-49.5 107zM432 300h345q-4 87 -49.5 129.5t-111.5 42.5q-72 0 -122 -44 t-62 -128zM88 136q0 -45 34 -77t94 -32q77 0 123.5 65t46.5 147v22h-69q-34 0 -60 -1.5t-60 -9t-56 -20t-37.5 -36.5t-15.5 -58z" />
<glyph unicode="&#xe7;" horiz-adv-x="544" d="M263 -92l17 82q-98 8 -163.5 79.5t-65.5 179.5q0 117 75.5 190t182.5 73q32 0 69.5 -8.5t72 -33.5t34.5 -62v-48h-42v39q0 33 -45 52.5t-89 19.5q-90 0 -152 -61.5t-62 -160.5q0 -98 62 -159t152 -61q72 0 125 36q26 17 42 36l22 -35q-21 -20 -46 -37q-61 -37 -134 -41 l-9 -48q29 -3 48.5 -22t19.5 -46q0 -39 -26 -57.5t-65 -18.5q-16 0 -32 2l-12 2v38l12 -3q14 -2 29 -2q52 0 52 37q0 38 -60 38h-12z" />
<glyph unicode="&#xe8;" horiz-adv-x="549" d="M52 249q0 121 71 192t172 71q98 0 151 -65.5t53 -162.5q0 -13 -1 -18q-1 -3 -1 -9h-401q0 -105 61.5 -166.5t152.5 -61.5q60 0 114 32q23 13 41 31l23 -35q-20 -18 -48 -34q-64 -35 -130 -35q-109 0 -183.5 72.5t-74.5 188.5zM99 296h356q-4 88 -49 132.5t-112 44.5 q-72 0 -126.5 -46.5t-68.5 -130.5zM280 589l-104 111h64l94 -111h-54z" />
<glyph unicode="&#xe9;" horiz-adv-x="549" d="M52 249q0 121 71 192t172 71q98 0 151 -65.5t53 -162.5q0 -13 -1 -18q-1 -3 -1 -9h-401q0 -105 61.5 -166.5t152.5 -61.5q60 0 114 32q23 13 41 31l23 -35q-20 -18 -48 -34q-64 -35 -130 -35q-109 0 -183.5 72.5t-74.5 188.5zM99 296h356q-4 88 -49 132.5t-112 44.5 q-72 0 -126.5 -46.5t-68.5 -130.5zM259 589l94 111h64l-104 -111h-54z" />
<glyph unicode="&#xea;" horiz-adv-x="549" d="M52 249q0 121 71 192t172 71q98 0 151 -65.5t53 -162.5q0 -13 -1 -18q-1 -3 -1 -9h-401q0 -105 61.5 -166.5t152.5 -61.5q60 0 114 32q23 13 41 31l23 -35q-20 -18 -48 -34q-64 -35 -130 -35q-109 0 -183.5 72.5t-74.5 188.5zM99 296h356q-4 88 -49 132.5t-112 44.5 q-72 0 -126.5 -46.5t-68.5 -130.5zM187 589l80 111h60l80 -111h-53l-56 80h-2l-56 -80h-53z" />
<glyph unicode="&#xeb;" horiz-adv-x="549" d="M52 249q0 121 71 192t172 71q98 0 151 -65.5t53 -162.5q0 -13 -1 -18q-1 -3 -1 -9h-401q0 -105 61.5 -166.5t152.5 -61.5q60 0 114 32q23 13 41 31l23 -35q-20 -18 -48 -34q-64 -35 -130 -35q-109 0 -183.5 72.5t-74.5 188.5zM99 296h356q-4 88 -49 132.5t-112 44.5 q-72 0 -126.5 -46.5t-68.5 -130.5zM354 627v73h54v-73h-54zM186 627v73h54v-73h-54z" />
<glyph unicode="&#xec;" horiz-adv-x="281" d="M44 0v39h80v422h-80v39h122v-461h80v-39h-202zM128 589l-104 111h64l94 -111h-54z" />
<glyph unicode="&#xed;" horiz-adv-x="281" d="M44 0v39h80v422h-80v39h122v-461h80v-39h-202zM107 589l94 111h64l-104 -111h-54z" />
<glyph unicode="&#xee;" horiz-adv-x="281" d="M44 0v39h80v422h-80v39h122v-461h80v-39h-202zM35 589l80 111h60l80 -111h-53l-56 80h-2l-56 -80h-53z" />
<glyph unicode="&#xef;" horiz-adv-x="281" d="M44 0v39h80v422h-80v39h122v-461h80v-39h-202zM186 627v73h54v-73h-54zM42 627v73h54v-73h-54z" />
<glyph unicode="&#xf0;" horiz-adv-x="586" d="M53 230q0 97 63.5 167.5t177.5 70.5q70 0 122 -33q23 -14 40 -33h2q-38 115 -137 183l-172 -80l-17 37l146 68q-60 32 -153 57l12 38q112 -28 188 -74l123 58l17 -37l-101 -47q156 -119 156 -335q0 -70 -24.5 -132t-81 -106t-136.5 -44q-103 0 -164 73t-61 169zM97 230 q0 -81 50 -141.5t133 -60.5q94 0 145 72.5t51 162.5q0 72 -50.5 118.5t-132.5 46.5q-94 0 -145 -58.5t-51 -139.5z" />
<glyph unicode="&#xf1;" horiz-adv-x="661" d="M45 0v39h90v400q0 22 -22 22h-73v39h79q31 0 44.5 -13t13.5 -42v-33q0 -15 -2 -29l-2 -12h2q16 47 72.5 94t139.5 47q93 0 129 -49.5t36 -145.5v-278h90v-39h-132v302q0 30 -2 51.5t-9 45.5t-20 38.5t-36.5 24t-55.5 9.5q-88 0 -149 -66t-61 -157v-209h90v-39h-222z M251 592h-44q0 108 84 108q25 0 45 -11t30.5 -25t24.5 -25t28 -11q41 0 41 69h44q0 -108 -84 -108q-33 0 -55 18t-38.5 36t-34.5 18q-41 0 -41 -69z" />
<glyph unicode="&#xf2;" horiz-adv-x="618" d="M50 253q0 109 75.5 184t183.5 75t183.5 -75t75.5 -184q0 -111 -75.5 -188t-183.5 -77t-183.5 77t-75.5 188zM94 253q0 -95 62.5 -159.5t152.5 -64.5t152.5 64.5t62.5 159.5q0 92 -62.5 155t-152.5 63t-152.5 -63t-62.5 -155zM292 589l-104 111h64l94 -111h-54z" />
<glyph unicode="&#xf3;" horiz-adv-x="618" d="M50 253q0 109 75.5 184t183.5 75t183.5 -75t75.5 -184q0 -111 -75.5 -188t-183.5 -77t-183.5 77t-75.5 188zM94 253q0 -95 62.5 -159.5t152.5 -64.5t152.5 64.5t62.5 159.5q0 92 -62.5 155t-152.5 63t-152.5 -63t-62.5 -155zM271 589l94 111h64l-104 -111h-54z" />
<glyph unicode="&#xf4;" horiz-adv-x="618" d="M50 253q0 109 75.5 184t183.5 75t183.5 -75t75.5 -184q0 -111 -75.5 -188t-183.5 -77t-183.5 77t-75.5 188zM94 253q0 -95 62.5 -159.5t152.5 -64.5t152.5 64.5t62.5 159.5q0 92 -62.5 155t-152.5 63t-152.5 -63t-62.5 -155zM199 589l80 111h60l80 -111h-53l-56 80h-2 l-56 -80h-53z" />
<glyph unicode="&#xf5;" horiz-adv-x="618" d="M50 253q0 109 75.5 184t183.5 75t183.5 -75t75.5 -184q0 -111 -75.5 -188t-183.5 -77t-183.5 77t-75.5 188zM94 253q0 -95 62.5 -159.5t152.5 -64.5t152.5 64.5t62.5 159.5q0 92 -62.5 155t-152.5 63t-152.5 -63t-62.5 -155zM205 592h-44q0 108 84 108q25 0 45 -11 t30.5 -25t24.5 -25t28 -11q41 0 41 69h44q0 -108 -84 -108q-33 0 -55 18t-38.5 36t-34.5 18q-41 0 -41 -69z" />
<glyph unicode="&#xf6;" horiz-adv-x="618" d="M50 253q0 109 75.5 184t183.5 75t183.5 -75t75.5 -184q0 -111 -75.5 -188t-183.5 -77t-183.5 77t-75.5 188zM94 253q0 -95 62.5 -159.5t152.5 -64.5t152.5 64.5t62.5 159.5q0 92 -62.5 155t-152.5 63t-152.5 -63t-62.5 -155zM366 627v73h54v-73h-54zM198 627v73h54v-73 h-54z" />
<glyph unicode="&#xf7;" horiz-adv-x="600" d="M271 431v59h57v-59h-57zM62 263v40h476v-40h-476zM271 76v59h57v-59h-57z" />
<glyph unicode="&#xf8;" horiz-adv-x="618" d="M110 -4l36 51q-96 78 -96 206q0 109 75.5 184t183.5 75q76 0 140 -40l38 53l30 -23l-38 -53q89 -79 89 -196q0 -111 -75.5 -188t-183.5 -77q-69 0 -132 37l-37 -52zM170 81l255 357q-54 33 -116 33q-90 0 -152.5 -63t-62.5 -155q0 -103 76 -172zM454 414l-253 -355 q49 -30 108 -30q90 0 152.5 64.5t62.5 159.5q0 98 -70 161z" />
<glyph unicode="&#xf9;" horiz-adv-x="641" d="M113 183v278h-95v39h137v-302q0 -30 2 -51.5t9 -45.5t20 -38.5t36.5 -24t55.5 -9.5q90 0 147.5 67.5t57.5 159.5v205h-95v39h137v-440q0 -22 22 -22h60v-38h-66q-31 0 -44.5 13t-13.5 42v28q0 22 1 29q1 4 1 12h-2q-16 -47 -70.5 -91.5t-134.5 -44.5q-89 0 -127 48 t-38 147zM292 589l-104 111h64l94 -111h-54z" />
<glyph unicode="&#xfa;" horiz-adv-x="641" d="M113 183v278h-95v39h137v-302q0 -30 2 -51.5t9 -45.5t20 -38.5t36.5 -24t55.5 -9.5q90 0 147.5 67.5t57.5 159.5v205h-95v39h137v-440q0 -22 22 -22h60v-38h-66q-31 0 -44.5 13t-13.5 42v28q0 22 1 29q1 4 1 12h-2q-16 -47 -70.5 -91.5t-134.5 -44.5q-89 0 -127 48 t-38 147zM271 589l94 111h64l-104 -111h-54z" />
<glyph unicode="&#xfb;" horiz-adv-x="641" d="M113 183v278h-95v39h137v-302q0 -30 2 -51.5t9 -45.5t20 -38.5t36.5 -24t55.5 -9.5q90 0 147.5 67.5t57.5 159.5v205h-95v39h137v-440q0 -22 22 -22h60v-38h-66q-31 0 -44.5 13t-13.5 42v28q0 22 1 29q1 4 1 12h-2q-16 -47 -70.5 -91.5t-134.5 -44.5q-89 0 -127 48 t-38 147zM199 589l80 111h60l80 -111h-53l-56 80h-2l-56 -80h-53z" />
<glyph unicode="&#xfc;" horiz-adv-x="641" d="M113 183v278h-95v39h137v-302q0 -30 2 -51.5t9 -45.5t20 -38.5t36.5 -24t55.5 -9.5q90 0 147.5 67.5t57.5 159.5v205h-95v39h137v-440q0 -22 22 -22h60v-38h-66q-31 0 -44.5 13t-13.5 42v28q0 22 1 29q1 4 1 12h-2q-16 -47 -70.5 -91.5t-134.5 -44.5q-89 0 -127 48 t-38 147zM366 627v73h54v-73h-54zM198 627v73h54v-73h-54z" />
<glyph unicode="&#xfd;" horiz-adv-x="561" d="M44 -183l19 37q7 -8 18 -12q19 -12 44 -12q33 0 58.5 25.5t40.5 64.5l34 82l-182 459h-68v39h193v-39h-79l149 -381q4 -9 6 -20l2 -8h2q0 2 2 8q2 3 4 10t3 10l149 381h-79v39h193v-39h-69l-226 -566q-19 -48 -53 -76.5t-80 -28.5q-30 0 -58 13q-11 6 -23 14zM249 589 l94 111h64l-104 -111h-54z" />
<glyph unicode="&#xfe;" horiz-adv-x="585" d="M5 661v39h132v-255v-29q0 -8 -1 -11h2q14 31 37 54q53 53 141 53q99 0 157.5 -72t58.5 -190t-62 -190t-160 -72q-81 0 -135 54q-25 25 -38 54h-2q0 -7 1 -12q1 -8 1 -32v-213h90v-39h-222v39h90v822h-90zM136 249q0 -89 47 -155t127 -66q77 0 127.5 60t50.5 162 q0 100 -48.5 160.5t-125.5 60.5q-76 0 -127 -55.5t-51 -166.5z" />
<glyph unicode="&#xff;" horiz-adv-x="561" d="M44 -183l19 37q7 -8 18 -12q19 -12 44 -12q33 0 58.5 25.5t40.5 64.5l34 82l-182 459h-68v39h193v-39h-79l149 -381q4 -9 6 -20l2 -8h2q0 2 2 8q2 3 4 10t3 10l149 381h-79v39h193v-39h-69l-226 -566q-19 -48 -53 -76.5t-80 -28.5q-30 0 -58 13q-11 6 -23 14zM344 627v73 h54v-73h-54zM176 627v73h54v-73h-54z" />
<glyph unicode="&#x100;" horiz-adv-x="710" d="M10 0v40h75l247 660h46l247 -660h75v-40h-206v40h85l-76 202h-297l-75 -202h85v-40h-206zM221 282h267l-122 327q-1 3 -3.5 12.5t-4.5 13.5q-2 8 -2 12h-2q0 -4 -2 -12q-1 -3 -3.5 -12t-4.5 -14zM236 786v40h239v-40h-239z" />
<glyph unicode="&#x101;" horiz-adv-x="534" d="M42 136q0 169 310 169h33v22q0 145 -133 145q-52 0 -106 -24q-20 -9 -41 -25l-24 34q18 15 45 28q52 27 127 27q174 0 174 -184v-267q0 -22 22 -22h60v-39h-66q-31 0 -44.5 13t-13.5 42v11q0 17 2 33l2 12h-2q-13 -34 -39 -61q-56 -62 -138 -62q-67 0 -117.5 37.5 t-50.5 110.5zM86 141q0 -47 33 -80.5t91 -33.5q55 0 96 32.5t60 80t19 99.5v27h-32q-267 0 -267 -125zM134 625v40h239v-40h-239z" />
<glyph unicode="&#x102;" horiz-adv-x="710" d="M10 0v40h75l247 660h46l247 -660h75v-40h-206v40h85l-76 202h-297l-75 -202h85v-40h-206zM221 282h267l-122 327q-1 3 -3.5 12.5t-4.5 13.5q-2 8 -2 12h-2q0 -4 -2 -12q-1 -3 -3.5 -12t-4.5 -14zM355 747q-43 0 -73 25.5t-30 72.5v16h44v-14q0 -30 17 -45t42 -15t42 15.5 t17 45.5v13h44v-16q0 -47 -30 -72.5t-73 -25.5z" />
<glyph unicode="&#x103;" horiz-adv-x="534" d="M42 136q0 169 310 169h33v22q0 145 -133 145q-52 0 -106 -24q-20 -9 -41 -25l-24 34q18 15 45 28q52 27 127 27q174 0 174 -184v-267q0 -22 22 -22h60v-39h-66q-31 0 -44.5 13t-13.5 42v11q0 17 2 33l2 12h-2q-13 -34 -39 -61q-56 -62 -138 -62q-67 0 -117.5 37.5 t-50.5 110.5zM86 141q0 -47 33 -80.5t91 -33.5q55 0 96 32.5t60 80t19 99.5v27h-32q-267 0 -267 -125zM253 586q-43 0 -73 25.5t-30 72.5v16h44v-14q0 -30 17 -45t42 -15t42 15.5t17 45.5v13h44v-16q0 -47 -30 -72.5t-73 -25.5z" />
<glyph unicode="&#x104;" horiz-adv-x="710" d="M566 -113q0 58 68 113h-140v40h85l-76 202h-297l-75 -202h85v-40h-206v40h75l247 660h46l247 -660h75v-40h-5q-14 0 -49.5 -37.5t-35.5 -71.5q0 -31 34 -47q14 -7 34 -10l-11 -38q-26 3 -50 14q-51 24 -51 77zM221 282h267l-122 327q-1 3 -3.5 12.5t-4.5 13.5q-2 8 -2 12 h-2q0 -4 -2 -12q-1 -3 -3.5 -12t-4.5 -14z" />
<glyph unicode="&#x105;" horiz-adv-x="534" d="M375 -113q0 58 68 113h-5q-53 0 -53 55v11q0 17 2 33l2 12h-2q-13 -34 -39 -61q-56 -62 -138 -62q-67 0 -117.5 37.5t-50.5 110.5q0 169 310 169h33v22q0 145 -133 145q-52 0 -106 -24q-20 -9 -41 -25l-24 34q18 15 45 28q52 27 127 27q174 0 174 -184v-267q0 -22 22 -22 h60v-39h-5q-14 0 -49.5 -37.5t-35.5 -71.5q0 -31 34 -47q14 -7 34 -10l-11 -38q-26 3 -50 14q-51 24 -51 77zM86 141q0 -47 33 -80.5t91 -33.5q55 0 96 32.5t60 80t19 99.5v27h-32q-267 0 -267 -125z" />
<glyph unicode="&#x106;" horiz-adv-x="740" d="M59 355q0 153 101 255t251 102q50 0 104.5 -11.5t102.5 -45t48 -82.5v-66h-44v56q0 36 -37.5 61.5t-83.5 36t-89 10.5q-131 0 -219.5 -90.5t-88.5 -225.5q0 -137 89 -231.5t222 -94.5q27 0 61.5 6t71 17.5t61 33.5t24.5 50v55h44v-65q0 -35 -27 -63t-68.5 -43.5 t-84.5 -23.5t-82 -8q-154 0 -255 106.5t-101 260.5zM360 750l94 111h64l-104 -111h-54z" />
<glyph unicode="&#x107;" horiz-adv-x="544" d="M51 249q0 117 75.5 190t182.5 73q32 0 69.5 -8.5t72 -33.5t34.5 -62v-48h-42v39q0 33 -45 52.5t-89 19.5q-90 0 -152 -61.5t-62 -160.5q0 -98 62 -159t152 -61q72 0 125 36q26 17 42 36l22 -35q-20 -21 -48 -39q-62 -39 -141 -39q-109 0 -183.5 72.5t-74.5 188.5z M258 589l94 111h64l-104 -111h-54z" />
<glyph unicode="&#x108;" horiz-adv-x="740" d="M59 355q0 153 101 255t251 102q50 0 104.5 -11.5t102.5 -45t48 -82.5v-66h-44v56q0 36 -37.5 61.5t-83.5 36t-89 10.5q-131 0 -219.5 -90.5t-88.5 -225.5q0 -137 89 -231.5t222 -94.5q27 0 61.5 6t71 17.5t61 33.5t24.5 50v55h44v-65q0 -35 -27 -63t-68.5 -43.5 t-84.5 -23.5t-82 -8q-154 0 -255 106.5t-101 260.5zM288 750l80 111h60l80 -111h-53l-56 80h-2l-56 -80h-53z" />
<glyph unicode="&#x109;" horiz-adv-x="544" d="M51 249q0 117 75.5 190t182.5 73q32 0 69.5 -8.5t72 -33.5t34.5 -62v-48h-42v39q0 33 -45 52.5t-89 19.5q-90 0 -152 -61.5t-62 -160.5q0 -98 62 -159t152 -61q72 0 125 36q26 17 42 36l22 -35q-20 -21 -48 -39q-62 -39 -141 -39q-109 0 -183.5 72.5t-74.5 188.5z M186 589l80 111h60l80 -111h-53l-56 80h-2l-56 -80h-53z" />
<glyph unicode="&#x10a;" horiz-adv-x="740" d="M59 355q0 153 101 255t251 102q50 0 104.5 -11.5t102.5 -45t48 -82.5v-66h-44v56q0 36 -37.5 61.5t-83.5 36t-89 10.5q-131 0 -219.5 -90.5t-88.5 -225.5q0 -137 89 -231.5t222 -94.5q27 0 61.5 6t71 17.5t61 33.5t24.5 50v55h44v-65q0 -35 -27 -63t-68.5 -43.5 t-84.5 -23.5t-82 -8q-154 0 -255 106.5t-101 260.5zM371 788v73h54v-73h-54z" />
<glyph unicode="&#x10b;" horiz-adv-x="544" d="M51 249q0 117 75.5 190t182.5 73q32 0 69.5 -8.5t72 -33.5t34.5 -62v-48h-42v39q0 33 -45 52.5t-89 19.5q-90 0 -152 -61.5t-62 -160.5q0 -98 62 -159t152 -61q72 0 125 36q26 17 42 36l22 -35q-20 -21 -48 -39q-62 -39 -141 -39q-109 0 -183.5 72.5t-74.5 188.5z M269 627v73h54v-73h-54z" />
<glyph unicode="&#x10c;" horiz-adv-x="740" d="M59 355q0 153 101 255t251 102q50 0 104.5 -11.5t102.5 -45t48 -82.5v-66h-44v56q0 36 -37.5 61.5t-83.5 36t-89 10.5q-131 0 -219.5 -90.5t-88.5 -225.5q0 -137 89 -231.5t222 -94.5q27 0 61.5 6t71 17.5t61 33.5t24.5 50v55h44v-65q0 -35 -27 -63t-68.5 -43.5 t-84.5 -23.5t-82 -8q-154 0 -255 106.5t-101 260.5zM368 750l-80 111h53l56 -80h2l56 80h53l-80 -111h-60z" />
<glyph unicode="&#x10d;" horiz-adv-x="544" d="M51 249q0 117 75.5 190t182.5 73q32 0 69.5 -8.5t72 -33.5t34.5 -62v-48h-42v39q0 33 -45 52.5t-89 19.5q-90 0 -152 -61.5t-62 -160.5q0 -98 62 -159t152 -61q72 0 125 36q26 17 42 36l22 -35q-20 -21 -48 -39q-62 -39 -141 -39q-109 0 -183.5 72.5t-74.5 188.5z M266 589l-80 111h53l56 -80h2l56 80h53l-80 -111h-60z" />
<glyph unicode="&#x10e;" horiz-adv-x="770" d="M53 0v40h95v620h-95v40h292q90 0 151 -19q100 -33 155.5 -119.5t55.5 -212.5q0 -131 -60 -217t-169 -117q-54 -15 -133 -15h-292zM191 40h147q76 0 129 16q92 27 143.5 103.5t51.5 190.5q0 111 -48.5 187.5t-136.5 105.5q-50 17 -139 17h-147v-620zM319 750l-80 111h53 l56 -80h2l56 80h53l-80 -111h-60z" />
<glyph unicode="&#x10f;" horiz-adv-x="605" d="M53 250q0 118 62.5 190t161.5 72q79 0 134 -55q26 -26 39 -55h2l-2 12q-2 14 -2 29v218h-95v39h137v-639q0 -22 22 -22h60v-39h-66q-31 0 -44.5 13t-13.5 42v11q0 12 2 26l2 9h-2q-13 -30 -39 -56q-57 -57 -142 -57q-99 0 -157.5 72t-58.5 190zM97 250 q0 -100 48.5 -160.5t125.5 -60.5q76 0 127 55.5t51 166.5q0 90 -45.5 155t-128.5 65q-77 0 -127.5 -59.5t-50.5 -161.5zM557 700h46q7 -17 7 -44q0 -61 -47 -99l-29 21q33 39 33 74q0 22 -10 48z" />
<glyph unicode="&#x110;" horiz-adv-x="780" d="M53 0v40h95v293h-80v40h80v287h-95v40h315q158 0 253.5 -93t95.5 -257q0 -165 -95 -257.5t-254 -92.5h-315zM191 40h170q142 0 226.5 81t84.5 229q0 147 -84.5 228.5t-226.5 81.5h-170v-287h183v-40h-183v-293z" />
<glyph unicode="&#x111;" horiz-adv-x="605" d="M53 250q0 118 62.5 190t161.5 72q78 0 134 -56q25 -26 39 -57h2l-2 12q-2 14 -2 29v129h-153v40h153v91h42v-91h83v-40h-83v-508q0 -22 22 -22h60v-39h-66q-31 0 -44.5 13t-13.5 42v11q0 12 2 26l2 9h-2q-13 -30 -39 -56q-57 -57 -142 -57q-99 0 -157.5 72t-58.5 190z M97 250q0 -100 48.5 -160.5t125.5 -60.5q76 0 127 55.5t51 166.5q0 90 -45.5 155t-128.5 65q-77 0 -127.5 -59.5t-50.5 -161.5z" />
<glyph unicode="&#x112;" horiz-adv-x="616" d="M53 0v40h95v620h-95v40h483v-130h-42v90h-303v-287h279v-40h-279v-293h323v96h42v-136h-503zM193 786v40h239v-40h-239z" />
<glyph unicode="&#x113;" horiz-adv-x="549" d="M52 249q0 121 71 192t172 71q98 0 151 -65.5t53 -162.5q0 -13 -1 -18q-1 -3 -1 -9h-401q0 -105 61.5 -166.5t152.5 -61.5q60 0 114 32q23 13 41 31l23 -35q-20 -18 -48 -34q-64 -35 -130 -35q-109 0 -183.5 72.5t-74.5 188.5zM99 296h356q-4 88 -49 132.5t-112 44.5 q-72 0 -126.5 -46.5t-68.5 -130.5zM178 625v40h239v-40h-239z" />
<glyph unicode="&#x114;" horiz-adv-x="616" d="M53 0v40h95v620h-95v40h483v-130h-42v90h-303v-287h279v-40h-279v-293h323v96h42v-136h-503zM312 747q-43 0 -73 25.5t-30 72.5v16h44v-14q0 -30 17 -45t42 -15t42 15.5t17 45.5v13h44v-16q0 -47 -30 -72.5t-73 -25.5z" />
<glyph unicode="&#x115;" horiz-adv-x="549" d="M52 249q0 121 71 192t172 71q98 0 151 -65.5t53 -162.5q0 -13 -1 -18q-1 -3 -1 -9h-401q0 -105 61.5 -166.5t152.5 -61.5q60 0 114 32q23 13 41 31l23 -35q-20 -18 -48 -34q-64 -35 -130 -35q-109 0 -183.5 72.5t-74.5 188.5zM99 296h356q-4 88 -49 132.5t-112 44.5 q-72 0 -126.5 -46.5t-68.5 -130.5zM297 586q-43 0 -73 25.5t-30 72.5v16h44v-14q0 -30 17 -45t42 -15t42 15.5t17 45.5v13h44v-16q0 -47 -30 -72.5t-73 -25.5z" />
<glyph unicode="&#x116;" horiz-adv-x="616" d="M53 0v40h95v620h-95v40h483v-130h-42v90h-303v-287h279v-40h-279v-293h323v96h42v-136h-503zM285 788v73h54v-73h-54z" />
<glyph unicode="&#x117;" horiz-adv-x="549" d="M52 249q0 121 71 192t172 71q98 0 151 -65.5t53 -162.5q0 -13 -1 -18q-1 -3 -1 -9h-401q0 -105 61.5 -166.5t152.5 -61.5q60 0 114 32q23 13 41 31l23 -35q-20 -18 -48 -34q-64 -35 -130 -35q-109 0 -183.5 72.5t-74.5 188.5zM99 296h356q-4 88 -49 132.5t-112 44.5 q-72 0 -126.5 -46.5t-68.5 -130.5zM270 627v73h54v-73h-54z" />
<glyph unicode="&#x118;" horiz-adv-x="616" d="M53 0v40h95v620h-95v40h483v-130h-42v90h-303v-287h279v-40h-279v-293h323v96h42v-136h-5q-14 0 -49.5 -37.5t-35.5 -71.5q0 -31 34 -47q14 -7 34 -10l-11 -38q-26 3 -50 14q-51 24 -51 77q0 58 68 113h-437z" />
<glyph unicode="&#x119;" horiz-adv-x="549" d="M52 249q0 121 71 192t172 71q98 0 151 -65.5t53 -162.5q0 -13 -1 -18q-1 -3 -1 -9h-401q0 -105 61.5 -166.5t152.5 -61.5q60 0 114 32q23 13 41 31l23 -35q-10 -9 -24 -18q-22 -17 -60 -36q-18 -8 -50.5 -42.5t-32.5 -69.5q0 -31 34 -47q14 -7 34 -10l-11 -38 q-26 3 -50 14q-51 24 -51 77q0 56 54 102q-117 -10 -198 66t-81 194zM99 296h356q-4 88 -49 132.5t-112 44.5q-72 0 -126.5 -46.5t-68.5 -130.5z" />
<glyph unicode="&#x11a;" horiz-adv-x="616" d="M53 0v40h95v620h-95v40h483v-130h-42v90h-303v-287h279v-40h-279v-293h323v96h42v-136h-503zM282 750l-80 111h53l56 -80h2l56 80h53l-80 -111h-60z" />
<glyph unicode="&#x11b;" horiz-adv-x="549" d="M52 249q0 121 71 192t172 71q98 0 151 -65.5t53 -162.5q0 -13 -1 -18q-1 -3 -1 -9h-401q0 -105 61.5 -166.5t152.5 -61.5q60 0 114 32q23 13 41 31l23 -35q-20 -18 -48 -34q-64 -35 -130 -35q-109 0 -183.5 72.5t-74.5 188.5zM99 296h356q-4 88 -49 132.5t-112 44.5 q-72 0 -126.5 -46.5t-68.5 -130.5zM267 589l-80 111h53l56 -80h2l56 80h53l-80 -111h-60z" />
<glyph unicode="&#x11c;" horiz-adv-x="766" d="M60 350q0 156 100 259t261 103q98 0 178.5 -38t80.5 -100v-67h-44v53q0 35 -35 61t-83 38t-99 12q-141 0 -227.5 -91.5t-86.5 -230.5q0 -138 87 -229t224 -91q32 0 69 5.5t76.5 17.5t65.5 36t26 56v125h-155v40h198v-170q0 -39 -27.5 -69.5t-71 -47.5t-89 -25.5 t-88.5 -8.5q-159 0 -259.5 103t-100.5 259zM299 750l80 111h60l80 -111h-53l-56 80h-2l-56 -80h-53z" />
<glyph unicode="&#x11d;" horiz-adv-x="597" d="M98 -171l20 37q19 -11 40 -18q47 -17 94 -17q86 0 138 43t52 129v58q0 15 2 29l2 12h-2q-52 -102 -168 -102q-98 0 -160 71t-62 187q0 117 58.5 185.5t156.5 68.5q60 0 107.5 -23.5t66.5 -71.5h2q0 3 -1 6q-2 10 -2 19q0 31 13 44.5t45 13.5h74v-39h-68q-22 0 -22 -22 v-436q0 -107 -65.5 -160t-163.5 -53q-81 0 -157 39zM279 41q74 0 119 51.5t45 165.5q0 213 -174 213q-81 0 -126 -55.5t-45 -157.5q0 -100 49.5 -158.5t131.5 -58.5zM179 589l80 111h60l80 -111h-53l-56 80h-2l-56 -80h-53z" />
<glyph unicode="&#x11e;" horiz-adv-x="766" d="M60 350q0 156 100 259t261 103q98 0 178.5 -38t80.5 -100v-67h-44v53q0 35 -35 61t-83 38t-99 12q-141 0 -227.5 -91.5t-86.5 -230.5q0 -138 87 -229t224 -91q32 0 69 5.5t76.5 17.5t65.5 36t26 56v125h-155v40h198v-170q0 -39 -27.5 -69.5t-71 -47.5t-89 -25.5 t-88.5 -8.5q-159 0 -259.5 103t-100.5 259zM409 747q-43 0 -73 25.5t-30 72.5v16h44v-14q0 -30 17 -45t42 -15t42 15.5t17 45.5v13h44v-16q0 -47 -30 -72.5t-73 -25.5z" />
<glyph unicode="&#x11f;" horiz-adv-x="597" d="M98 -171l20 37q19 -11 40 -18q47 -17 94 -17q86 0 138 43t52 129v58q0 15 2 29l2 12h-2q-52 -102 -168 -102q-98 0 -160 71t-62 187q0 117 58.5 185.5t156.5 68.5q60 0 107.5 -23.5t66.5 -71.5h2q0 3 -1 6q-2 10 -2 19q0 31 13 44.5t45 13.5h74v-39h-68q-22 0 -22 -22 v-436q0 -107 -65.5 -160t-163.5 -53q-81 0 -157 39zM279 41q74 0 119 51.5t45 165.5q0 213 -174 213q-81 0 -126 -55.5t-45 -157.5q0 -100 49.5 -158.5t131.5 -58.5zM289 586q-43 0 -73 25.5t-30 72.5v16h44v-14q0 -30 17 -45t42 -15t42 15.5t17 45.5v13h44v-16 q0 -47 -30 -72.5t-73 -25.5z" />
<glyph unicode="&#x120;" horiz-adv-x="766" d="M60 350q0 156 100 259t261 103q98 0 178.5 -38t80.5 -100v-67h-44v53q0 35 -35 61t-83 38t-99 12q-141 0 -227.5 -91.5t-86.5 -230.5q0 -138 87 -229t224 -91q32 0 69 5.5t76.5 17.5t65.5 36t26 56v125h-155v40h198v-170q0 -39 -27.5 -69.5t-71 -47.5t-89 -25.5 t-88.5 -8.5q-159 0 -259.5 103t-100.5 259zM382 788v73h54v-73h-54z" />
<glyph unicode="&#x121;" horiz-adv-x="597" d="M98 -171l20 37q19 -11 40 -18q47 -17 94 -17q86 0 138 43t52 129v58q0 15 2 29l2 12h-2q-52 -102 -168 -102q-98 0 -160 71t-62 187q0 117 58.5 185.5t156.5 68.5q60 0 107.5 -23.5t66.5 -71.5h2q0 3 -1 6q-2 10 -2 19q0 31 13 44.5t45 13.5h74v-39h-68q-22 0 -22 -22 v-436q0 -107 -65.5 -160t-163.5 -53q-81 0 -157 39zM279 41q74 0 119 51.5t45 165.5q0 213 -174 213q-81 0 -126 -55.5t-45 -157.5q0 -100 49.5 -158.5t131.5 -58.5zM262 627v73h54v-73h-54z" />
<glyph unicode="&#x122;" horiz-adv-x="766" d="M60 350q0 156 100 259t261 103q98 0 178.5 -38t80.5 -100v-67h-44v53q0 35 -35 61t-83 38t-99 12q-141 0 -227.5 -91.5t-86.5 -230.5q0 -138 87 -229t224 -91q32 0 69 5.5t76.5 17.5t65.5 36t26 56v125h-155v40h198v-170q0 -39 -27.5 -69.5t-71 -47.5t-89 -25.5 t-88.5 -8.5q-159 0 -259.5 103t-100.5 259zM381 -66h46q7 -17 7 -44q0 -61 -47 -99l-29 21q33 39 33 74q0 22 -10 48z" />
<glyph unicode="&#x123;" horiz-adv-x="597" d="M98 -171l20 37q19 -11 40 -18q47 -17 94 -17q86 0 138 43t52 129v58q0 15 2 29l2 12h-2q-52 -102 -168 -102q-98 0 -160 71t-62 187q0 117 58.5 185.5t156.5 68.5q60 0 107.5 -23.5t66.5 -71.5h2q0 3 -1 6q-2 10 -2 19q0 31 13 44.5t45 13.5h74v-39h-68q-22 0 -22 -22 v-436q0 -107 -65.5 -160t-163.5 -53q-81 0 -157 39zM279 41q74 0 119 51.5t45 165.5q0 213 -174 213q-81 0 -126 -55.5t-45 -157.5q0 -100 49.5 -158.5t131.5 -58.5zM304 578h-46q-7 17 -7 44q0 61 47 99l29 -21q-33 -39 -33 -74q0 -22 10 -48z" />
<glyph unicode="&#x124;" horiz-adv-x="826" d="M53 0v40h95v620h-95v40h233v-40h-95v-289h444v289h-95v40h233v-40h-95v-620h95v-40h-233v40h95v291h-444v-291h95v-40h-233zM303 750l80 111h60l80 -111h-53l-56 80h-2l-56 -80h-53z" />
<glyph unicode="&#x125;" horiz-adv-x="644" d="M28 0v39h90v622h-95v39h137v-288q0 -15 -2 -29l-2 -12h2q16 47 72.5 94t139.5 47q93 0 129 -49.5t36 -145.5v-278h90v-39h-132v302q0 30 -2 51.5t-9 45.5t-20 38.5t-36.5 24t-55.5 9.5q-88 0 -149 -64.5t-61 -162.5v-205h90v-39h-222zM29 750l80 111h60l80 -111h-53 l-56 80h-2l-56 -80h-53z" />
<glyph unicode="&#x126;" horiz-adv-x="826" d="M63 507v40h85v113h-95v40h233v-40h-95v-113h444v113h-95v40h233v-40h-95v-113h85v-40h-85v-467h95v-40h-233v40h95v291h-444v-291h95v-40h-233v40h95v467h-85zM191 371h444v136h-444v-136z" />
<glyph unicode="&#x127;" horiz-adv-x="644" d="M28 0v39h90v530h-81v40h81v91h42v-91h153v-40h-153v-157q0 -15 -2 -29l-2 -12h2q16 47 72.5 94t139.5 47q93 0 129 -49.5t36 -145.5v-278h90v-39h-132v302q0 30 -2 51.5t-9 45.5t-20 38.5t-36.5 24t-55.5 9.5q-89 0 -149.5 -66t-60.5 -158v-208h90v-39h-222z" />
<glyph unicode="&#x128;" horiz-adv-x="339" d="M53 0v40h95v620h-95v40h233v-40h-95v-620h95v-40h-233zM65 753h-44q0 108 84 108q25 0 45 -11.5t30.5 -24.5t24.5 -24.5t28 -11.5q41 0 41 69h44q0 -108 -84 -108q-33 0 -55 18t-38.5 36t-34.5 18q-41 0 -41 -69z" />
<glyph unicode="&#x129;" horiz-adv-x="281" d="M44 0v39h80v422h-80v39h122v-461h80v-39h-202zM41 592h-44q0 108 84 108q25 0 45 -11t30.5 -25t24.5 -25t28 -11q41 0 41 69h44q0 -108 -84 -108q-33 0 -55 18t-38.5 36t-34.5 18q-41 0 -41 -69z" />
<glyph unicode="&#x12a;" horiz-adv-x="339" d="M53 0v40h95v620h-95v40h233v-40h-95v-620h95v-40h-233zM50 786v40h239v-40h-239z" />
<glyph unicode="&#x12b;" horiz-adv-x="281" d="M44 0v39h80v422h-80v39h122v-461h80v-39h-202zM26 625v40h239v-40h-239z" />
<glyph unicode="&#x12c;" horiz-adv-x="339" d="M53 0v40h95v620h-95v40h233v-40h-95v-620h95v-40h-233zM169 747q-43 0 -73 25.5t-30 72.5v16h44v-14q0 -30 17 -45t42 -15t42 15.5t17 45.5v13h44v-16q0 -47 -30 -72.5t-73 -25.5z" />
<glyph unicode="&#x12d;" horiz-adv-x="281" d="M44 0v39h80v422h-80v39h122v-461h80v-39h-202zM145 586q-43 0 -73 25.5t-30 72.5v16h44v-14q0 -30 17 -45t42 -15t42 15.5t17 45.5v13h44v-16q0 -47 -30 -72.5t-73 -25.5z" />
<glyph unicode="&#x12e;" horiz-adv-x="339" d="M53 0v40h95v620h-95v40h233v-40h-95v-620h95v-40h-6q-18 -3 -51 -39t-33 -70q0 -31 34 -47q14 -7 34 -10l-11 -38q-26 3 -50 14q-51 24 -51 77q0 58 68 113h-167z" />
<glyph unicode="&#x12f;" horiz-adv-x="295" d="M45 0v39h90v422h-95v39h137v-461h90v-39h-3q-14 0 -49.5 -37.5t-35.5 -71.5q0 -31 34 -47q14 -7 34 -10l-11 -38q-26 3 -50 14q-51 24 -51 77q0 58 68 113h-158zM129 627v73h54v-73h-54z" />
<glyph unicode="&#x130;" horiz-adv-x="339" d="M53 0v40h95v620h-95v40h233v-40h-95v-620h95v-40h-233zM142 788v73h54v-73h-54z" />
<glyph unicode="&#x131;" horiz-adv-x="281" d="M44 0v39h80v422h-80v39h122v-461h80v-39h-202z" />
<glyph unicode="&#x132;" horiz-adv-x="667" d="M53 0v40h95v620h-95v40h233v-40h-95v-620h86v-40h-224zM334 -5v42q30 0 53.5 6.5t48 24t38.5 56t14 94.5v442h-95v40h233v-40h-95v-442q0 -223 -197 -223z" />
<glyph unicode="&#x133;" horiz-adv-x="537" d="M129 627v73h54v-73h-54zM45 0v39h90v422h-95v39h137v-461h90v-39h-222zM394 627v73h54v-73h-54zM258 -203v39q3 0 6 -1q4 -1 16 -1q19 0 36.5 5t38 18.5t33 45t12.5 76.5v482h-95v39h137v-520q0 -47 -12 -82.5t-29 -54.5t-40 -30.5t-41 -14.5t-37 -3q-14 0 -18 1 q-3 1 -7 1z" />
<glyph unicode="&#x134;" horiz-adv-x="535" d="M32 187v26h43v-19q0 -72 37.5 -118.5t106.5 -46.5q59 0 101.5 40t42.5 125v466h-111v40h239v-40h-85v-473q0 -102 -54.5 -150.5t-132.5 -48.5t-132.5 48.5t-54.5 150.5zM274 750l80 111h60l80 -111h-53l-56 80h-2l-56 -80h-53z" />
<glyph unicode="&#x135;" horiz-adv-x="254" d="M-3 589l80 111h60l80 -111h-53l-56 80h-2l-56 -80h-53zM-25 -203v39q3 0 6 -1t16 -1q19 0 36.5 5t38 18.5t33 45t12.5 76.5v482h-95v39h137v-520q0 -47 -12 -82.5t-29 -54.5t-40 -30.5t-41 -14.5t-37 -3q-15 0 -18 1t-7 1z" />
<glyph unicode="&#x136;" horiz-adv-x="646" d="M53 0v40h95v620h-95v40h233v-40h-95v-272h113l189 272h-73v40h199v-40h-74l-204 -290v-2l8 -7q13 -13 21 -28l159 -264q18 -29 55 -29h35v-40h-35q-42 0 -59 10t-37 43l-157 262q-19 33 -58 33h-82v-308h95v-40h-233zM311 -66h46q7 -17 7 -44q0 -61 -47 -99l-29 21 q33 39 33 74q0 22 -10 48z" />
<glyph unicode="&#x137;" horiz-adv-x="537" d="M28 0v39h90v622h-95v39h137v-397h84l135 158h-78v39h203v-39h-71l-150 -173v-2q10 0 33 -38l112 -187q8 -14 16.5 -18t31.5 -4h37v-39h-39q-39 0 -54.5 9.5t-36.5 43.5l-114 189q-9 14 -19.5 18t-31.5 4h-58v-225h90v-39h-222zM271 -66h46q7 -17 7 -44q0 -61 -47 -99 l-29 21q33 39 33 74q0 22 -10 48z" />
<glyph unicode="&#x138;" horiz-adv-x="554" d="M45 0v39h90v422h-95v39h137v-197h84l135 158h-78v39h203v-39h-71l-150 -173v-2q10 0 33 -38l112 -187q8 -14 16.5 -18t31.5 -4h37v-39h-39q-39 0 -54.5 9.5t-36.5 43.5l-114 189q-9 14 -19.5 18t-31.5 4h-58v-225h90v-39h-222z" />
<glyph unicode="&#x139;" horiz-adv-x="578" d="M53 0v40h95v620h-95v40h233v-40h-95v-620h312v120h42v-160h-492zM131 750l94 111h64l-104 -111h-54z" />
<glyph unicode="&#x13a;" horiz-adv-x="253" d="M96 110v551h-94v39h136v-586q0 -77 59 -77q19 0 22 1t8 1l-1 -39q-7 0 -11 -1q-7 -1 -25 -1q-94 0 -94 112zM80 750l94 111h64l-104 -111h-54z" />
<glyph unicode="&#x13b;" horiz-adv-x="578" d="M53 0v40h95v620h-95v40h233v-40h-95v-620h312v120h42v-160h-492zM306 -66h46q7 -17 7 -44q0 -61 -47 -99l-29 21q33 39 33 74q0 22 -10 48z" />
<glyph unicode="&#x13c;" horiz-adv-x="253" d="M96 110v551h-94v39h136v-586q0 -77 59 -77q19 0 22 1t8 1l-1 -39q-7 0 -11 -1q-7 -1 -25 -1q-94 0 -94 112zM125 -66h46q7 -17 7 -44q0 -61 -47 -99l-29 21q33 39 33 74q0 22 -10 48z" />
<glyph unicode="&#x13d;" horiz-adv-x="578" d="M53 0v40h95v620h-95v40h233v-40h-95v-620h312v120h42v-160h-492zM306 -66h46q7 -17 7 -44q0 -61 -47 -99l-29 21q33 39 33 74q0 22 -10 48z" />
<glyph unicode="&#x13e;" horiz-adv-x="253" d="M96 110v551h-94v39h136v-586q0 -77 59 -77q19 0 22 1t8 1l-1 -39q-7 0 -11 -1q-7 -1 -25 -1q-94 0 -94 112zM206 700h46q7 -17 7 -44q0 -61 -47 -99l-29 21q33 39 33 74q0 22 -10 48z" />
<glyph unicode="&#x13f;" horiz-adv-x="578" d="M53 0v40h95v620h-95v40h233v-40h-95v-620h312v120h42v-160h-492zM323 334v63h61v-63h-61z" />
<glyph unicode="&#x140;" horiz-adv-x="263" d="M96 110v551h-94v39h136v-586q0 -77 59 -77q19 0 22 1t8 1l-1 -39q-7 0 -11 -1q-7 -1 -25 -1q-94 0 -94 112zM223 334v63h61v-63h-61z" />
<glyph unicode="&#x141;" horiz-adv-x="578" d="M53 0v40h95v273l-90 -46v47l90 46v300h-95v40h233v-40h-95v-278l231 120v-48l-231 -119v-295h312v120h42v-160h-492z" />
<glyph unicode="&#x142;" horiz-adv-x="253" d="M7 333v47l89 51v230h-94v39h136v-244l92 53v-48l-92 -53v-294q0 -77 59 -77q19 0 22 1t8 1l-1 -39q-7 0 -11 -1q-7 -1 -25 -1q-94 0 -94 112v274z" />
<glyph unicode="&#x143;" horiz-adv-x="823" d="M53 0v40h95v620h-95v40h134l436 -598q2 -3 4.5 -7t5 -9l3.5 -7q5 -6 6 -13h2l-2 15q-1 8 -1 26v553h-95v40h233v-40h-95v-660h-40l-435 599l-13 23q-5 6 -6 13h-2l2 -15q2 -17 1 -26v-554h95v-40h-233zM378 750l94 111h64l-104 -111h-54z" />
<glyph unicode="&#x144;" horiz-adv-x="661" d="M45 0v39h90v400q0 22 -22 22h-73v39h79q31 0 44.5 -13t13.5 -42v-33q0 -15 -2 -29l-2 -12h2q16 47 72.5 94t139.5 47q93 0 129 -49.5t36 -145.5v-278h90v-39h-132v302q0 30 -2 51.5t-9 45.5t-20 38.5t-36.5 24t-55.5 9.5q-88 0 -149 -66t-61 -157v-209h90v-39h-222z M317 589l94 111h64l-104 -111h-54z" />
<glyph unicode="&#x145;" horiz-adv-x="823" d="M53 0v40h95v620h-95v40h134l436 -598q2 -3 4.5 -7t5 -9l3.5 -7q5 -6 6 -13h2l-2 15q-1 8 -1 26v553h-95v40h233v-40h-95v-660h-40l-435 599l-13 23q-5 6 -6 13h-2l2 -15q2 -17 1 -26v-554h95v-40h-233zM392 -66h46q7 -17 7 -44q0 -61 -47 -99l-29 21q33 39 33 74 q0 22 -10 48z" />
<glyph unicode="&#x146;" horiz-adv-x="661" d="M45 0v39h90v400q0 22 -22 22h-73v39h79q31 0 44.5 -13t13.5 -42v-33q0 -15 -2 -29l-2 -12h2q16 47 72.5 94t139.5 47q93 0 129 -49.5t36 -145.5v-278h90v-39h-132v302q0 30 -2 51.5t-9 45.5t-20 38.5t-36.5 24t-55.5 9.5q-88 0 -149 -66t-61 -157v-209h90v-39h-222z M315 -66h46q7 -17 7 -44q0 -61 -47 -99l-29 21q33 39 33 74q0 22 -10 48z" />
<glyph unicode="&#x147;" horiz-adv-x="823" d="M53 0v40h95v620h-95v40h134l436 -598q2 -3 4.5 -7t5 -9l3.5 -7q5 -6 6 -13h2l-2 15q-1 8 -1 26v553h-95v40h233v-40h-95v-660h-40l-435 599l-13 23q-5 6 -6 13h-2l2 -15q2 -17 1 -26v-554h95v-40h-233zM386 750l-80 111h53l56 -80h2l56 80h53l-80 -111h-60z" />
<glyph unicode="&#x148;" horiz-adv-x="661" d="M45 0v39h90v400q0 22 -22 22h-73v39h79q31 0 44.5 -13t13.5 -42v-33q0 -15 -2 -29l-2 -12h2q16 47 72.5 94t139.5 47q93 0 129 -49.5t36 -145.5v-278h90v-39h-132v302q0 30 -2 51.5t-9 45.5t-20 38.5t-36.5 24t-55.5 9.5q-88 0 -149 -66t-61 -157v-209h90v-39h-222z M325 589l-80 111h53l56 -80h2l56 80h53l-80 -111h-60z" />
<glyph unicode="&#x149;" horiz-adv-x="661" d="M45 0v39h90v400q0 22 -22 22h-73v39h79q31 0 44.5 -13t13.5 -42v-33q0 -15 -2 -29l-2 -12h2q16 47 72.5 94t139.5 47q93 0 129 -49.5t36 -145.5v-278h90v-39h-132v302q0 30 -2 51.5t-9 45.5t-20 38.5t-36.5 24t-55.5 9.5q-88 0 -149 -66t-61 -157v-209h90v-39h-222z M79 700h46q7 -17 7 -44q0 -61 -47 -99l-29 21q33 39 33 74q0 22 -10 48z" />
<glyph unicode="&#x14a;" horiz-adv-x="823" d="M53 0v40h95v620h-95v40h137l433 -598q2 -3 4.5 -7t5 -9l3.5 -7q5 -6 6 -13h2l-2 15q-1 8 -1 26v553h-95v40h233v-40h-95v-662q0 -104 -54.5 -153.5t-132.5 -49.5v42q59 0 101.5 40t42.5 124l-432 598l-13 23q-5 6 -6 13h-2l2 -15q2 -17 1 -26v-554h95v-40h-233z" />
<glyph unicode="&#x14b;" horiz-adv-x="637" d="M45 0v39h90v400q0 22 -22 22h-73v39h79q31 0 44.5 -13t13.5 -42v-33q0 -15 -2 -29l-2 -12h2q16 47 72.5 94t139.5 47q93 0 129 -49.5t36 -145.5v-342q0 -47 -12 -82.5t-29 -54.5t-40 -30.5t-41 -14.5t-37 -3q-14 0 -18 1q-3 1 -7 1v39q3 0 6 -1q4 -1 16 -1q19 0 36.5 5 t38 18.5t33 45t12.5 76.5v328q0 30 -2 51.5t-9 45.5t-20 38.5t-36.5 24t-55.5 9.5q-89 0 -149.5 -67.5t-60.5 -159.5v-205h90v-39h-222z" />
<glyph unicode="&#x14c;" horiz-adv-x="826" d="M59 355q0 150 103.5 253.5t250.5 103.5t250.5 -103.5t103.5 -253.5q0 -153 -103.5 -260t-250.5 -107t-250.5 107t-103.5 260zM104 355q0 -138 90 -232t219 -94t219 94t90 232q0 134 -89.5 225t-219.5 91t-219.5 -91t-89.5 -225zM294 786v40h239v-40h-239z" />
<glyph unicode="&#x14d;" horiz-adv-x="618" d="M50 253q0 109 75.5 184t183.5 75t183.5 -75t75.5 -184q0 -111 -75.5 -188t-183.5 -77t-183.5 77t-75.5 188zM94 253q0 -95 62.5 -159.5t152.5 -64.5t152.5 64.5t62.5 159.5q0 92 -62.5 155t-152.5 63t-152.5 -63t-62.5 -155zM190 625v40h239v-40h-239z" />
<glyph unicode="&#x14e;" horiz-adv-x="826" d="M59 355q0 150 103.5 253.5t250.5 103.5t250.5 -103.5t103.5 -253.5q0 -153 -103.5 -260t-250.5 -107t-250.5 107t-103.5 260zM104 355q0 -138 90 -232t219 -94t219 94t90 232q0 134 -89.5 225t-219.5 91t-219.5 -91t-89.5 -225zM413 747q-43 0 -73 25.5t-30 72.5v16h44 v-14q0 -30 17 -45t42 -15t42 15.5t17 45.5v13h44v-16q0 -47 -30 -72.5t-73 -25.5z" />
<glyph unicode="&#x14f;" horiz-adv-x="618" d="M50 253q0 109 75.5 184t183.5 75t183.5 -75t75.5 -184q0 -111 -75.5 -188t-183.5 -77t-183.5 77t-75.5 188zM94 253q0 -95 62.5 -159.5t152.5 -64.5t152.5 64.5t62.5 159.5q0 92 -62.5 155t-152.5 63t-152.5 -63t-62.5 -155zM309 586q-43 0 -73 25.5t-30 72.5v16h44v-14 q0 -30 17 -45t42 -15t42 15.5t17 45.5v13h44v-16q0 -47 -30 -72.5t-73 -25.5z" />
<glyph unicode="&#x150;" horiz-adv-x="826" d="M59 355q0 150 103.5 253.5t250.5 103.5t250.5 -103.5t103.5 -253.5q0 -153 -103.5 -260t-250.5 -107t-250.5 107t-103.5 260zM104 355q0 -138 90 -232t219 -94t219 94t90 232q0 134 -89.5 225t-219.5 91t-219.5 -91t-89.5 -225zM431 750l67 111h60l-79 -111h-48zM316 750 l62 111h54l-65 -111h-51z" />
<glyph unicode="&#x151;" horiz-adv-x="618" d="M50 253q0 109 75.5 184t183.5 75t183.5 -75t75.5 -184q0 -111 -75.5 -188t-183.5 -77t-183.5 77t-75.5 188zM94 253q0 -95 62.5 -159.5t152.5 -64.5t152.5 64.5t62.5 159.5q0 92 -62.5 155t-152.5 63t-152.5 -63t-62.5 -155zM327 589l67 111h60l-79 -111h-48zM212 589 l62 111h54l-65 -111h-51z" />
<glyph unicode="&#x152;" horiz-adv-x="949" d="M60 350q0 153 99 256.5t253 103.5q18 0 60 -5t56 -5h342v-130h-42v90h-303v-287h279v-40h-279v-293h323v91h42v-131h-361q-13 0 -56 -5t-61 -5q-154 0 -253 103t-99 257zM105 350q0 -138 85 -228.5t222 -90.5q32 0 49 4l21 4v622l-21 4q-17 4 -49 4q-137 0 -222 -91 t-85 -228z" />
<glyph unicode="&#x153;" horiz-adv-x="1021" d="M51 249q0 117 75.5 190t182.5 73q77 0 140 -40t94 -109h2q29 71 88.5 110t133.5 39q98 0 151 -65.5t53 -162.5q0 -13 -1 -18q-1 -3 -1 -9h-401q4 -108 64 -168t150 -60q60 0 114 32q23 13 41 31l23 -35q-20 -18 -48 -34q-64 -35 -130 -35q-80 0 -143 39.5t-93 110.5h-2 q-30 -71 -93 -110.5t-142 -39.5q-108 0 -183 72.5t-75 188.5zM571 296h356q-4 88 -49 132.5t-112 44.5q-72 0 -126.5 -46.5t-68.5 -130.5zM95 249q0 -98 62 -159t152 -61t152.5 62t62.5 163q0 96 -63 156.5t-152 60.5q-90 0 -152 -62t-62 -160z" />
<glyph unicode="&#x154;" horiz-adv-x="669" d="M53 0v40h95v620h-95v40h295q72 0 120 -16q108 -42 108 -170q0 -82 -45 -136t-122 -64v-2l6 -6q8 -8 14 -19l132 -224q9 -14 19.5 -18.5t31.5 -4.5h19v-40h-19q-45 0 -60 9t-36 44l-125 211q-16 28 -31.5 37t-51.5 9h-117v-270h95v-40h-233zM191 350h185q69 0 112 44.5 t43 117.5q0 102 -86 134q-34 14 -99 14h-155v-310zM281 750l94 111h64l-104 -111h-54z" />
<glyph unicode="&#x155;" horiz-adv-x="373" d="M51 0v39h80v400q0 22 -22 22h-73v39h79q31 0 44.5 -13t13.5 -42v-35q0 -22 -1 -29q-1 -4 -1 -12h2q20 61 60.5 98t97.5 37q15 0 20 -1l9 -2v-42q-4 0 -7 1q-4 1 -16 1q-55 0 -94 -41.5t-54.5 -95t-15.5 -108.5v-177h80v-39h-202zM180 589l94 111h64l-104 -111h-54z" />
<glyph unicode="&#x156;" horiz-adv-x="669" d="M53 0v40h95v620h-95v40h295q72 0 120 -16q108 -42 108 -170q0 -82 -45 -136t-122 -64v-2l6 -6q8 -8 14 -19l132 -224q9 -14 19.5 -18.5t31.5 -4.5h19v-40h-19q-45 0 -60 9t-36 44l-125 211q-16 28 -31.5 37t-51.5 9h-117v-270h95v-40h-233zM191 350h185q69 0 112 44.5 t43 117.5q0 102 -86 134q-34 14 -99 14h-155v-310zM334 -66h46q7 -17 7 -44q0 -61 -47 -99l-29 21q33 39 33 74q0 22 -10 48z" />
<glyph unicode="&#x157;" horiz-adv-x="373" d="M51 0v39h80v400q0 22 -22 22h-73v39h79q31 0 44.5 -13t13.5 -42v-35q0 -22 -1 -29q-1 -4 -1 -12h2q20 61 60.5 98t97.5 37q15 0 20 -1l9 -2v-42q-4 0 -7 1q-4 1 -16 1q-55 0 -94 -41.5t-54.5 -95t-15.5 -108.5v-177h80v-39h-202zM129 -66h46q7 -17 7 -44q0 -61 -47 -99 l-29 21q33 39 33 74q0 22 -10 48z" />
<glyph unicode="&#x158;" horiz-adv-x="669" d="M53 0v40h95v620h-95v40h295q72 0 120 -16q108 -42 108 -170q0 -82 -45 -136t-122 -64v-2l6 -6q8 -8 14 -19l132 -224q9 -14 19.5 -18.5t31.5 -4.5h19v-40h-19q-45 0 -60 9t-36 44l-125 211q-16 28 -31.5 37t-51.5 9h-117v-270h95v-40h-233zM191 350h185q69 0 112 44.5 t43 117.5q0 102 -86 134q-34 14 -99 14h-155v-310zM289 750l-80 111h53l56 -80h2l56 80h53l-80 -111h-60z" />
<glyph unicode="&#x159;" horiz-adv-x="373" d="M51 0v39h80v400q0 22 -22 22h-73v39h79q31 0 44.5 -13t13.5 -42v-35q0 -22 -1 -29q-1 -4 -1 -12h2q20 61 60.5 98t97.5 37q15 0 20 -1l9 -2v-42q-4 0 -7 1q-4 1 -16 1q-55 0 -94 -41.5t-54.5 -95t-15.5 -108.5v-177h80v-39h-202zM188 589l-80 111h53l56 -80h2l56 80h53 l-80 -111h-60z" />
<glyph unicode="&#x15a;" horiz-adv-x="553" d="M63 182h44v-51q0 -46 49.5 -74t117.5 -28q77 0 124.5 38t47.5 106q0 36 -14 64t-42.5 48.5t-55 33t-69.5 27.5q-93 36 -125 60q-63 47 -63 129q0 83 57.5 130t145.5 47q77 0 135 -28t58 -75v-67h-44v53q0 34 -46.5 55t-102.5 21q-69 0 -113.5 -34.5t-44.5 -96.5 q0 -27 10 -49t22.5 -36t39.5 -29t44.5 -22t53.5 -21q99 -40 133 -65q66 -51 66 -139q0 -85 -60.5 -138t-156.5 -53q-80 0 -145.5 35t-65.5 98v61zM234 750l94 111h64l-104 -111h-54z" />
<glyph unicode="&#x15b;" horiz-adv-x="460" d="M49 106v43h42v-38q0 -40 45.5 -61t99.5 -21t92.5 24.5t38.5 66.5q0 19 -9 34.5t-20 26t-34 22.5t-37.5 17.5l-43.5 16.5q-37 15 -57.5 24.5t-46.5 27.5t-38 41t-12 53q0 60 48.5 94.5t113.5 34.5q57 0 108.5 -24.5t51.5 -70.5v-55h-42v41q0 31 -35 49.5t-81 18.5 q-50 0 -85 -22.5t-35 -62.5q0 -18 8.5 -33t18.5 -25t32.5 -21.5t35.5 -17t42 -16.5q38 -15 59.5 -25t48.5 -28t40 -42t13 -54q0 -61 -49 -98.5t-130 -37.5q-74 0 -128.5 32t-54.5 86zM198 589l94 111h64l-104 -111h-54z" />
<glyph unicode="&#x15c;" horiz-adv-x="553" d="M63 182h44v-51q0 -46 49.5 -74t117.5 -28q77 0 124.5 38t47.5 106q0 36 -14 64t-42.5 48.5t-55 33t-69.5 27.5q-93 36 -125 60q-63 47 -63 129q0 83 57.5 130t145.5 47q77 0 135 -28t58 -75v-67h-44v53q0 34 -46.5 55t-102.5 21q-69 0 -113.5 -34.5t-44.5 -96.5 q0 -27 10 -49t22.5 -36t39.5 -29t44.5 -22t53.5 -21q99 -40 133 -65q66 -51 66 -139q0 -85 -60.5 -138t-156.5 -53q-80 0 -145.5 35t-65.5 98v61zM162 750l80 111h60l80 -111h-53l-56 80h-2l-56 -80h-53z" />
<glyph unicode="&#x15d;" horiz-adv-x="460" d="M49 106v43h42v-38q0 -40 45.5 -61t99.5 -21t92.5 24.5t38.5 66.5q0 19 -9 34.5t-20 26t-34 22.5t-37.5 17.5l-43.5 16.5q-37 15 -57.5 24.5t-46.5 27.5t-38 41t-12 53q0 60 48.5 94.5t113.5 34.5q57 0 108.5 -24.5t51.5 -70.5v-55h-42v41q0 31 -35 49.5t-81 18.5 q-50 0 -85 -22.5t-35 -62.5q0 -18 8.5 -33t18.5 -25t32.5 -21.5t35.5 -17t42 -16.5q38 -15 59.5 -25t48.5 -28t40 -42t13 -54q0 -61 -49 -98.5t-130 -37.5q-74 0 -128.5 32t-54.5 86zM126 589l80 111h60l80 -111h-53l-56 80h-2l-56 -80h-53z" />
<glyph unicode="&#x15e;" horiz-adv-x="553" d="M235 -92l17 81q-75 4 -132 38.5t-57 93.5v61h44v-51q0 -46 49.5 -74t117.5 -28q77 0 124.5 38t47.5 106q0 36 -14 64t-42.5 48.5t-55 33t-69.5 27.5q-93 36 -125 60q-63 47 -63 129q0 83 57.5 130t145.5 47q77 0 135 -28t58 -75v-67h-44v53q0 34 -46.5 55t-102.5 21 q-69 0 -113.5 -34.5t-44.5 -96.5q0 -27 10 -49t22.5 -36t39.5 -29t44.5 -22t53.5 -21q99 -40 133 -65q66 -51 66 -139q0 -82 -55.5 -134t-145.5 -56l-9 -49q29 -3 48.5 -22t19.5 -46q0 -39 -26 -57.5t-65 -18.5q-16 0 -32 2l-12 2v38l12 -3q14 -2 29 -2q52 0 52 37 q0 38 -60 38h-12z" />
<glyph unicode="&#x15f;" horiz-adv-x="460" d="M191 -92l17 81q-68 6 -113.5 36.5t-45.5 80.5v43h42v-38q0 -40 45.5 -61t99.5 -21t92.5 24.5t38.5 66.5q0 19 -9 34.5t-20 26t-34 22.5t-37.5 17.5l-43.5 16.5q-37 15 -57.5 24.5t-46.5 27.5t-38 41t-12 53q0 60 48.5 94.5t113.5 34.5q57 0 108.5 -24.5t51.5 -70.5v-55 h-42v41q0 31 -35 49.5t-81 18.5q-50 0 -85 -22.5t-35 -62.5q0 -18 8.5 -33t18.5 -25t32.5 -21.5t35.5 -17t42 -16.5q38 -15 59.5 -25t48.5 -28t40 -42t13 -54q0 -58 -45 -95t-120 -40l-9 -49q29 -3 48.5 -22t19.5 -46q0 -39 -26 -57.5t-65 -18.5q-16 0 -32 2l-12 2v38l12 -3 q14 -2 29 -2q52 0 52 37q0 38 -60 38h-12z" />
<glyph unicode="&#x160;" horiz-adv-x="553" d="M63 182h44v-51q0 -46 49.5 -74t117.5 -28q77 0 124.5 38t47.5 106q0 36 -14 64t-42.5 48.5t-55 33t-69.5 27.5q-93 36 -125 60q-63 47 -63 129q0 83 57.5 130t145.5 47q77 0 135 -28t58 -75v-67h-44v53q0 34 -46.5 55t-102.5 21q-69 0 -113.5 -34.5t-44.5 -96.5 q0 -27 10 -49t22.5 -36t39.5 -29t44.5 -22t53.5 -21q99 -40 133 -65q66 -51 66 -139q0 -85 -60.5 -138t-156.5 -53q-80 0 -145.5 35t-65.5 98v61zM242 750l-80 111h53l56 -80h2l56 80h53l-80 -111h-60z" />
<glyph unicode="&#x161;" horiz-adv-x="460" d="M49 106v43h42v-38q0 -40 45.5 -61t99.5 -21t92.5 24.5t38.5 66.5q0 19 -9 34.5t-20 26t-34 22.5t-37.5 17.5l-43.5 16.5q-37 15 -57.5 24.5t-46.5 27.5t-38 41t-12 53q0 60 48.5 94.5t113.5 34.5q57 0 108.5 -24.5t51.5 -70.5v-55h-42v41q0 31 -35 49.5t-81 18.5 q-50 0 -85 -22.5t-35 -62.5q0 -18 8.5 -33t18.5 -25t32.5 -21.5t35.5 -17t42 -16.5q38 -15 59.5 -25t48.5 -28t40 -42t13 -54q0 -61 -49 -98.5t-130 -37.5q-74 0 -128.5 32t-54.5 86zM206 589l-80 111h53l56 -80h2l56 80h53l-80 -111h-60z" />
<glyph unicode="&#x162;" horiz-adv-x="643" d="M205 0v40h95v620h-224v-118h-42v158h575v-158h-42v118h-224v-620h95v-40h-99l-11 -60q29 -3 48.5 -22t19.5 -46q0 -39 -26 -57.5t-65 -18.5q-16 0 -32 2l-12 2v38l12 -3q14 -2 29 -2q52 0 52 37q0 38 -60 38h-12l19 92h-96z" />
<glyph unicode="&#x163;" horiz-adv-x="316" d="M160 -92l23 110q-71 44 -71 163v280h-95v39h95v139h42v-139h131v-39h-131v-277q0 -46 12.5 -78t32.5 -46.5t37.5 -19.5t36.5 -5q14 0 17 1t6 1v-39q-4 0 -7 -1t-18 -1q-26 0 -53 7l-12 -63q29 -3 48.5 -22t19.5 -46q0 -39 -26 -57.5t-65 -18.5q-16 0 -32 2l-12 2v38 l12 -3q14 -2 29 -2q52 0 52 37q0 38 -60 38h-12z" />
<glyph unicode="&#x164;" horiz-adv-x="643" d="M205 0v40h95v620h-224v-118h-42v158h575v-158h-42v118h-224v-620h95v-40h-233zM291 750l-80 111h53l56 -80h2l56 80h53l-80 -111h-60z" />
<glyph unicode="&#x165;" horiz-adv-x="316" d="M112 181v280h-95v39h95v139h42v-139h131v-39h-131v-277q0 -46 12.5 -78t32.5 -46.5t37.5 -19.5t36.5 -5q14 0 17 1t6 1v-39q-4 0 -7 -1t-18 -1q-19 0 -37 3t-41 14.5t-40 30.5t-29 54.5t-12 82.5zM248 700h46q7 -17 7 -44q0 -61 -47 -99l-29 21q33 39 33 74q0 22 -10 48z " />
<glyph unicode="&#x166;" horiz-adv-x="643" d="M108 337v40h192v283h-224v-118h-42v158h575v-158h-42v118h-224v-283h194v-40h-194v-297h95v-40h-233v40h95v297h-192z" />
<glyph unicode="&#x167;" horiz-adv-x="316" d="M21 295v40h91v126h-95v39h95v139h42v-139h131v-39h-131v-126h124v-40h-124v-111q0 -46 12.5 -78t32.5 -46.5t37.5 -19.5t36.5 -5q14 0 17 1t6 1v-39q-4 0 -7 -1t-18 -1q-19 0 -37 3t-41 14.5t-40 30.5t-29 54.5t-12 82.5v114h-91z" />
<glyph unicode="&#x168;" horiz-adv-x="785" d="M131 255v405h-95v40h233v-40h-95v-403q0 -88 34 -141q56 -87 184 -87q132 0 186 91q33 57 33 139v401h-95v40h233v-40h-95v-405q0 -96 -41 -161q-69 -106 -220 -106q-74 0 -132.5 28t-91.5 80q-38 61 -38 159zM288 753h-44q0 108 84 108q25 0 45 -11.5t30.5 -24.5 t24.5 -24.5t28 -11.5q41 0 41 69h44q0 -108 -84 -108q-33 0 -55 18t-38.5 36t-34.5 18q-41 0 -41 -69z" />
<glyph unicode="&#x169;" horiz-adv-x="641" d="M113 183v278h-95v39h137v-302q0 -30 2 -51.5t9 -45.5t20 -38.5t36.5 -24t55.5 -9.5q90 0 147.5 67.5t57.5 159.5v205h-95v39h137v-440q0 -22 22 -22h60v-38h-66q-31 0 -44.5 13t-13.5 42v28q0 22 1 29q1 4 1 12h-2q-16 -47 -70.5 -91.5t-134.5 -44.5q-89 0 -127 48 t-38 147zM205 592h-44q0 108 84 108q25 0 45 -11t30.5 -25t24.5 -25t28 -11q41 0 41 69h44q0 -108 -84 -108q-33 0 -55 18t-38.5 36t-34.5 18q-41 0 -41 -69z" />
<glyph unicode="&#x16a;" horiz-adv-x="785" d="M131 255v405h-95v40h233v-40h-95v-403q0 -88 34 -141q56 -87 184 -87q132 0 186 91q33 57 33 139v401h-95v40h233v-40h-95v-405q0 -96 -41 -161q-69 -106 -220 -106q-74 0 -132.5 28t-91.5 80q-38 61 -38 159zM273 786v40h239v-40h-239z" />
<glyph unicode="&#x16b;" horiz-adv-x="641" d="M113 183v278h-95v39h137v-302q0 -30 2 -51.5t9 -45.5t20 -38.5t36.5 -24t55.5 -9.5q90 0 147.5 67.5t57.5 159.5v205h-95v39h137v-440q0 -22 22 -22h60v-38h-66q-31 0 -44.5 13t-13.5 42v28q0 22 1 29q1 4 1 12h-2q-16 -47 -70.5 -91.5t-134.5 -44.5q-89 0 -127 48 t-38 147zM190 625v40h239v-40h-239z" />
<glyph unicode="&#x16c;" horiz-adv-x="785" d="M131 255v405h-95v40h233v-40h-95v-403q0 -88 34 -141q56 -87 184 -87q132 0 186 91q33 57 33 139v401h-95v40h233v-40h-95v-405q0 -96 -41 -161q-69 -106 -220 -106q-74 0 -132.5 28t-91.5 80q-38 61 -38 159zM392 747q-43 0 -73 25.5t-30 72.5v16h44v-14q0 -30 17 -45 t42 -15t42 15.5t17 45.5v13h44v-16q0 -47 -30 -72.5t-73 -25.5z" />
<glyph unicode="&#x16d;" horiz-adv-x="641" d="M113 183v278h-95v39h137v-302q0 -30 2 -51.5t9 -45.5t20 -38.5t36.5 -24t55.5 -9.5q90 0 147.5 67.5t57.5 159.5v205h-95v39h137v-440q0 -22 22 -22h60v-38h-66q-31 0 -44.5 13t-13.5 42v28q0 22 1 29q1 4 1 12h-2q-16 -47 -70.5 -91.5t-134.5 -44.5q-89 0 -127 48 t-38 147zM309 586q-43 0 -73 25.5t-30 72.5v16h44v-14q0 -30 17 -45t42 -15t42 15.5t17 45.5v13h44v-16q0 -47 -30 -72.5t-73 -25.5z" />
<glyph unicode="&#x16e;" horiz-adv-x="785" d="M131 255v405h-95v40h233v-40h-95v-403q0 -88 34 -141q56 -87 184 -87q132 0 186 91q33 57 33 139v401h-95v40h233v-40h-95v-405q0 -96 -41 -161q-69 -106 -220 -106q-74 0 -132.5 28t-91.5 80q-38 61 -38 159zM392 733q-31 0 -52.5 21t-21.5 52q0 32 21.5 53.5t52.5 21.5 q32 0 54 -21.5t22 -53.5q0 -31 -22 -52t-54 -21zM392 770q17 0 27 10t10 26q0 18 -10 28.5t-27 10.5q-16 0 -25.5 -10.5t-9.5 -28.5q0 -16 9.5 -26t25.5 -10z" />
<glyph unicode="&#x16f;" horiz-adv-x="641" d="M113 183v278h-95v39h137v-302q0 -30 2 -51.5t9 -45.5t20 -38.5t36.5 -24t55.5 -9.5q90 0 147.5 67.5t57.5 159.5v205h-95v39h137v-440q0 -22 22 -22h60v-38h-66q-31 0 -44.5 13t-13.5 42v28q0 22 1 29q1 4 1 12h-2q-16 -47 -70.5 -91.5t-134.5 -44.5q-89 0 -127 48 t-38 147zM309 572q-31 0 -52.5 21t-21.5 52q0 32 21.5 53.5t52.5 21.5q32 0 54 -21.5t22 -53.5q0 -31 -22 -52t-54 -21zM309 609q17 0 27 10t10 26q0 18 -10 28.5t-27 10.5q-16 0 -25.5 -10.5t-9.5 -28.5q0 -16 9.5 -26t25.5 -10z" />
<glyph unicode="&#x170;" horiz-adv-x="785" d="M131 255v405h-95v40h233v-40h-95v-403q0 -88 34 -141q56 -87 184 -87q132 0 186 91q33 57 33 139v401h-95v40h233v-40h-95v-405q0 -96 -41 -161q-69 -106 -220 -106q-74 0 -132.5 28t-91.5 80q-38 61 -38 159zM410 750l67 111h60l-79 -111h-48zM295 750l62 111h54 l-65 -111h-51z" />
<glyph unicode="&#x171;" horiz-adv-x="641" d="M113 183v278h-95v39h137v-302q0 -30 2 -51.5t9 -45.5t20 -38.5t36.5 -24t55.5 -9.5q90 0 147.5 67.5t57.5 159.5v205h-95v39h137v-440q0 -22 22 -22h60v-38h-66q-31 0 -44.5 13t-13.5 42v28q0 22 1 29q1 4 1 12h-2q-16 -47 -70.5 -91.5t-134.5 -44.5q-89 0 -127 48 t-38 147zM327 589l67 111h60l-79 -111h-48zM212 589l62 111h54l-65 -111h-51z" />
<glyph unicode="&#x172;" horiz-adv-x="785" d="M131 240v420h-95v40h233v-40h-95v-418q0 -98 59 -155.5t159 -57.5t159.5 58t59.5 157v416h-95v40h233v-40h-95v-420q0 -164 -153 -236q-20 -10 -52 -43t-32 -70q0 -31 34 -47q14 -7 34 -10l-11 -38q-26 3 -50 14q-51 24 -51 77q0 54 55 103q-78 -8 -144.5 16t-109.5 85 t-43 149z" />
<glyph unicode="&#x173;" horiz-adv-x="641" d="M473 -113q0 58 68 113h-5q-53 0 -53 55v28q0 22 1 29q1 4 1 12h-2q-16 -47 -70.5 -91.5t-134.5 -44.5q-89 0 -127 48t-38 147v278h-95v39h137v-302q0 -30 2 -51.5t9 -45.5t20 -38.5t36.5 -24t55.5 -9.5q90 0 147.5 67.5t57.5 159.5v205h-95v39h137v-440q0 -22 22 -22h60 v-38h-5q-14 0 -49.5 -37.5t-35.5 -71.5q0 -31 34 -47q14 -7 34 -10l-11 -38q-26 3 -50 14q-51 24 -51 77z" />
<glyph unicode="&#x174;" horiz-adv-x="989" d="M17 660v40h204v-40h-84l141 -567q3 -10 5 -26l2 -12h3l3 12q2 4 3.5 13t2.5 13l174 607h47l174 -607q1 -4 2.5 -13t3.5 -13l3 -12h3l2 12q2 16 5 26l141 567h-84v40h204v-40h-74l-169 -660h-54l-172 599q-3 10 -5 26l-2 12h-3l-2 -12q-3 -19 -5 -26l-172 -599h-54 l-169 660h-74zM385 750l80 111h60l80 -111h-53l-56 80h-2l-56 -80h-53z" />
<glyph unicode="&#x175;" horiz-adv-x="844" d="M9 461v39h192v-39h-81l122 -377q3 -6 5 -22l2 -10h2l2 10q2 12 6 22l140 414h46l140 -414q4 -10 6 -22l2 -10h2l2 10q1 9 5 22l122 377h-81v39h192v-39h-66l-154 -461h-42l-141 411q-1 4 -2.5 11t-3.5 11l-3 11h-2l-3 -11q-2 -4 -3.5 -11t-2.5 -11l-141 -411h-42 l-154 461h-66zM315 589l80 111h60l80 -111h-53l-56 80h-2l-56 -80h-53z" />
<glyph unicode="&#x176;" horiz-adv-x="635" d="M201 0v40h95v264l-215 356h-71v40h204v-40h-83l172 -287l9 -16q2 -3 4 -9h2l4 8l10 17l173 287h-83v40h203v-40h-71l-215 -356v-264h95v-40h-233zM208 750l80 111h60l80 -111h-53l-56 80h-2l-56 -80h-53z" />
<glyph unicode="&#x177;" horiz-adv-x="561" d="M44 -183l19 37q7 -8 18 -12q19 -12 44 -12q33 0 58.5 25.5t40.5 64.5l34 82l-182 459h-68v39h193v-39h-79l149 -381q4 -9 6 -20l2 -8h2q0 2 2 8q2 3 4 10t3 10l149 381h-79v39h193v-39h-69l-226 -566q-19 -48 -53 -76.5t-80 -28.5q-30 0 -58 13q-11 6 -23 14zM177 589 l80 111h60l80 -111h-53l-56 80h-2l-56 -80h-53z" />
<glyph unicode="&#x178;" horiz-adv-x="635" d="M201 0v40h95v264l-215 356h-71v40h204v-40h-83l172 -287l9 -16q2 -3 4 -9h2l4 8l10 17l173 287h-83v40h203v-40h-71l-215 -356v-264h95v-40h-233zM375 788v73h54v-73h-54zM207 788v73h54v-73h-54z" />
<glyph unicode="&#x179;" horiz-adv-x="612" d="M59 0v34l406 593q4 6 10.5 14t8.5 10l8 9v2q-7 0 -11 -1q-7 -1 -27 -1h-348v-118h-42v158h480v-34l-406 -593q-4 -6 -10.5 -14t-8.5 -10l-8 -9v-2q8 0 12 1q7 1 26 1h362v120h42v-160h-494zM280 750l94 111h64l-104 -111h-54z" />
<glyph unicode="&#x17a;" horiz-adv-x="506" d="M51 34l317 398q10 14 18 21l7 7v2h-11q-3 0 -11.5 -0.5t-14.5 -0.5h-255v-95h-41v134h390v-34l-318 -398q-10 -14 -18 -21l-7 -7v-2q3 1 11 1h26h265v95h41v-134h-399v34zM227 589l94 111h64l-104 -111h-54z" />
<glyph unicode="&#x17b;" horiz-adv-x="612" d="M59 0v34l406 593q4 6 10.5 14t8.5 10l8 9v2q-7 0 -11 -1q-7 -1 -27 -1h-348v-118h-42v158h480v-34l-406 -593q-4 -6 -10.5 -14t-8.5 -10l-8 -9v-2q8 0 12 1q7 1 26 1h362v120h42v-160h-494zM291 788v73h54v-73h-54z" />
<glyph unicode="&#x17c;" horiz-adv-x="506" d="M51 34l317 398q10 14 18 21l7 7v2h-11q-3 0 -11.5 -0.5t-14.5 -0.5h-255v-95h-41v134h390v-34l-318 -398q-10 -14 -18 -21l-7 -7v-2q3 1 11 1h26h265v95h41v-134h-399v34zM238 627v73h54v-73h-54z" />
<glyph unicode="&#x17d;" horiz-adv-x="612" d="M59 0v34l406 593q4 6 10.5 14t8.5 10l8 9v2q-7 0 -11 -1q-7 -1 -27 -1h-348v-118h-42v158h480v-34l-406 -593q-4 -6 -10.5 -14t-8.5 -10l-8 -9v-2q8 0 12 1q7 1 26 1h362v120h42v-160h-494zM288 750l-80 111h53l56 -80h2l56 80h53l-80 -111h-60z" />
<glyph unicode="&#x17e;" horiz-adv-x="506" d="M51 34l317 398q10 14 18 21l7 7v2h-11q-3 0 -11.5 -0.5t-14.5 -0.5h-255v-95h-41v134h390v-34l-318 -398q-10 -14 -18 -21l-7 -7v-2q3 1 11 1h26h265v95h41v-134h-399v34zM235 589l-80 111h53l56 -80h2l56 80h53l-80 -111h-60z" />
<glyph unicode="&#x17f;" horiz-adv-x="286" d="M46 0v39h80v422h-85v39h85v27q0 55 16 93t41.5 54.5t47 22.5t43.5 6q19 0 26 -1l10 -2v-39l-9 2q-7 1 -24 1t-33 -4.5t-34.5 -17.5t-30 -42t-11.5 -72v-489h95v-39h-217z" />
<glyph unicode="&#x192;" horiz-adv-x="438" d="M-63 -96v39l18 -3q22 -2 44 -2q18 0 35.5 5t39 18.5t36.5 45t19 76.5l26 295h-96v38h99l10 111q5 58 25.5 98t50 57t53 23.5t47.5 6.5q34 0 56 -3l25 -4v-39l-26 4q-24 3 -56 3q-19 0 -37 -5t-39 -18.5t-35.5 -45t-19.5 -76.5l-11 -112h133v-38h-136l-26 -294 q-6 -58 -26 -98t-48.5 -57.5t-51.5 -23.5t-48 -6q-22 0 -44 2z" />
<glyph unicode="&#x218;" horiz-adv-x="553" d="M63 182h44v-51q0 -46 49.5 -74t117.5 -28q77 0 124.5 38t47.5 106q0 36 -14 64t-42.5 48.5t-55 33t-69.5 27.5q-93 36 -125 60q-63 47 -63 129q0 83 57.5 130t145.5 47q77 0 135 -28t58 -75v-67h-44v53q0 34 -46.5 55t-102.5 21q-69 0 -113.5 -34.5t-44.5 -96.5 q0 -27 10 -49t22.5 -36t39.5 -29t44.5 -22t53.5 -21q99 -40 133 -65q66 -51 66 -139q0 -85 -60.5 -138t-156.5 -53q-80 0 -145.5 35t-65.5 98v61zM250 -66h46q7 -17 7 -44q0 -61 -47 -99l-29 21q33 39 33 74q0 22 -10 48z" />
<glyph unicode="&#x219;" horiz-adv-x="460" d="M49 106v43h42v-38q0 -40 45.5 -61t99.5 -21t92.5 24.5t38.5 66.5q0 19 -9 34.5t-20 26t-34 22.5t-37.5 17.5l-43.5 16.5q-37 15 -57.5 24.5t-46.5 27.5t-38 41t-12 53q0 60 48.5 94.5t113.5 34.5q57 0 108.5 -24.5t51.5 -70.5v-55h-42v41q0 31 -35 49.5t-81 18.5 q-50 0 -85 -22.5t-35 -62.5q0 -18 8.5 -33t18.5 -25t32.5 -21.5t35.5 -17t42 -16.5q38 -15 59.5 -25t48.5 -28t40 -42t13 -54q0 -61 -49 -98.5t-130 -37.5q-74 0 -128.5 32t-54.5 86zM206 -66h46q7 -17 7 -44q0 -61 -47 -99l-29 21q33 39 33 74q0 22 -10 48z" />
<glyph unicode="&#x21a;" horiz-adv-x="643" d="M205 0v40h95v620h-224v-118h-42v158h575v-158h-42v118h-224v-620h95v-40h-233zM297 -66h46q7 -17 7 -44q0 -61 -47 -99l-29 21q33 39 33 74q0 22 -10 48z" />
<glyph unicode="&#x21b;" horiz-adv-x="316" d="M112 181v280h-95v39h95v139h42v-139h131v-39h-131v-277q0 -46 12.5 -78t32.5 -46.5t37.5 -19.5t36.5 -5q14 0 17 1t6 1v-39q-4 0 -7 -1t-18 -1q-19 0 -37 3t-41 14.5t-40 30.5t-29 54.5t-12 82.5zM193 -66h46q7 -17 7 -44q0 -61 -47 -99l-29 21q33 39 33 74q0 22 -10 48z " />
<glyph unicode="&#x2c6;" horiz-adv-x="508" d="M144 750l80 111h60l80 -111h-53l-56 80h-2l-56 -80h-53z" />
<glyph unicode="&#x2c7;" horiz-adv-x="508" d="M224 750l-80 111h53l56 -80h2l56 80h53l-80 -111h-60z" />
<glyph unicode="&#x2d8;" horiz-adv-x="510" d="M255 747q-43 0 -73 25.5t-30 72.5v16h44v-14q0 -30 17 -45t42 -15t42 15.5t17 45.5v13h44v-16q0 -47 -30 -72.5t-73 -25.5z" />
<glyph unicode="&#x2d9;" horiz-adv-x="510" d="M228 788v73h54v-73h-54z" />
<glyph unicode="&#x2da;" horiz-adv-x="510" d="M255 733q-31 0 -52.5 21t-21.5 52q0 32 21.5 53.5t52.5 21.5q32 0 54 -21.5t22 -53.5q0 -31 -22 -52t-54 -21zM255 770q17 0 27 10t10 26q0 18 -10 28.5t-27 10.5q-16 0 -25.5 -10.5t-9.5 -28.5q0 -16 9.5 -26t25.5 -10z" />
<glyph unicode="&#x2db;" horiz-adv-x="509" d="M190 -113q0 48 47 95q19 19 46 35h36v-17q-14 0 -49.5 -37.5t-35.5 -71.5q0 -31 34 -47q14 -7 34 -10l-11 -38q-26 3 -50 14q-51 24 -51 77z" />
<glyph unicode="&#x2dc;" horiz-adv-x="509" d="M150 753h-44q0 108 84 108q25 0 45 -11.5t30.5 -24.5t24.5 -24.5t28 -11.5q41 0 41 69h44q0 -108 -84 -108q-33 0 -55 18t-38.5 36t-34.5 18q-41 0 -41 -69z" />
<glyph unicode="&#x2dd;" horiz-adv-x="509" d="M249 750l67 111h60l-79 -111h-48zM134 750l62 111h54l-65 -111h-51z" />
<glyph unicode="&#x1e9e;" horiz-adv-x="690" d="M42 0v40h95v485q0 73 51 124t124 51h270v-30l-154 -237l-9 -12q-2 -2 -4 -6v-2q43 -5 79 -18t68.5 -35.5t51 -60t18.5 -86.5q0 -99 -70.5 -159t-192.5 -60q-39 0 -66 5l-25 5v41l25 -5q32 -6 65 -6q102 0 160.5 46.5t58.5 128.5q0 153 -221 171v27l149 233q2 3 10 14l5 6 v2q-4 0 -7 -1q-4 -1 -16 -1h-189q-60 0 -99 -39t-39 -96v-525h-138z" />
<glyph unicode="&#x2009;" horiz-adv-x="281" />
<glyph unicode="&#x2013;" horiz-adv-x="728" d="M126 263v40h476v-40h-476z" />
<glyph unicode="&#x2014;" horiz-adv-x="928" d="M126 263v40h676v-40h-676z" />
<glyph unicode="&#x2018;" horiz-adv-x="204" d="M58 517l58 191h39l-45 -191h-52z" />
<glyph unicode="&#x2019;" horiz-adv-x="200" d="M60 517l45 191h52l-58 -191h-39z" />
<glyph unicode="&#x201a;" horiz-adv-x="234" d="M49 -130l45 191h52l-58 -191h-39z" />
<glyph unicode="&#x201c;" horiz-adv-x="314" d="M155 708l-45 -191h-52l58 191h39zM265 708l-45 -191h-52l58 191h39z" />
<glyph unicode="&#x201d;" horiz-adv-x="310" d="M170 517l45 191h52l-58 -191h-39zM60 517l45 191h52l-58 -191h-39z" />
<glyph unicode="&#x201e;" horiz-adv-x="344" d="M159 -130l45 191h52l-58 -191h-39zM49 -130l45 191h52l-58 -191h-39z" />
<glyph unicode="&#x2020;" horiz-adv-x="374" d="M164 -50v510h-114v40h114v200h42v-200h119v-40h-119v-510h-42z" />
<glyph unicode="&#x2021;" horiz-adv-x="384" d="M54 186v40h114v234h-114v40h114v200h42v-200h119v-40h-119v-234h119v-40h-119v-236h-42v236h-114z" />
<glyph unicode="&#x2022;" horiz-adv-x="392" d="M196 159q-54 0 -93 39t-39 93t39 93t93 39t93 -39t39 -93t-39 -93t-93 -39z" />
<glyph unicode="&#x2026;" horiz-adv-x="663" d="M514 0v63h61v-63h-61zM301 0v63h61v-63h-61zM88 0v63h61v-63h-61z" />
<glyph unicode="&#x2030;" horiz-adv-x="999" d="M193 451q-54 0 -92 38t-38 92t38 92.5t92 38.5t92.5 -38.5t38.5 -92.5t-38.5 -92t-92.5 -38zM61 0l531 700h52l-531 -700h-52zM193 491q38 0 63 26t25 64q0 39 -25 65t-63 26t-62.5 -26t-24.5 -65t24.5 -64.5t62.5 -25.5zM699 118q0 54 38 92.5t92 38.5t92.5 -38.5 t38.5 -92.5t-38.5 -92t-92.5 -38t-92 38t-38 92zM379 118q0 54 38 92.5t92 38.5t92.5 -38.5t38.5 -92.5t-38.5 -92t-92.5 -38t-92 38t-38 92zM742 118q0 -39 24.5 -64.5t62.5 -25.5t63 26t25 64q0 39 -25 65t-63 26t-62.5 -26t-24.5 -65zM422 118q0 -39 24.5 -64.5 t62.5 -25.5t63 26t25 64q0 39 -25 65t-63 26t-62.5 -26t-24.5 -65z" />
<glyph unicode="&#x2039;" horiz-adv-x="336" d="M218 77l-164 205l164 206h53l-164 -206l164 -205h-53z" />
<glyph unicode="&#x203a;" horiz-adv-x="336" d="M65 77l164 205l-164 206h53l164 -206l-164 -205h-53z" />
<glyph unicode="&#x2044;" horiz-adv-x="149" d="M-114 0l336 700h43l-335 -700h-44z" />
<glyph unicode="&#x2070;" horiz-adv-x="394" d="M197 413q-148 0 -148 227t148 227t148 -227t-148 -227zM197 449q109 0 109 191t-109 191t-109 -191t109 -191z" />
<glyph unicode="&#x2074;" horiz-adv-x="372" d="M238 423v121h-215v26l222 287h31v-277h68v-36h-68v-121h-38zM76 580h162v175q0 11 2 27q1 5 1 14h-2q-2 -5 -6 -11q-8 -14 -16 -23l-141 -180v-2z" />
<glyph unicode="&#x2075;" horiz-adv-x="356" d="M164 413q-51 0 -98 33q-17 12 -32 32l29 23q11 -15 26 -26q34 -26 75 -26q46 0 79 31.5t33 76.5q0 44 -33 76t-79 32q-30 0 -58 -13q-11 -6 -23 -14l-26 10l26 209h207v-93h-38v57h-137l-10 -91q0 -6 -1 -12t-2.5 -12t-1.5 -8l-2 -11h2l18 7q21 7 47 7q63 0 106.5 -42 t43.5 -102t-44 -102t-107 -42z" />
<glyph unicode="&#x2076;" horiz-adv-x="375" d="M198 413q-71 0 -111.5 56.5t-40.5 142.5q0 43 10.5 86t31.5 82t58.5 63t85.5 24q29 0 59 -10q16 -5 24 -10l-19 -32l-5 2.5t-7 3t-7 2.5q-24 8 -46 8q-59 0 -97.5 -52t-47.5 -126h2q17 21 48.5 34.5t61.5 13.5q60 0 99 -38.5t39 -101.5q0 -70 -39.5 -109t-98.5 -39z M198 449q47 0 73 31.5t26 80.5q0 48 -27.5 76t-72.5 28q-43 0 -76.5 -25t-33.5 -53q0 -48 31.5 -93t79.5 -45z" />
<glyph unicode="&#x2077;" horiz-adv-x="336" d="M71 423l187 378q2 5 9 14l5 6v2q-4 0 -7 -1q-4 -1 -16 -1h-176v-57h-38v93h282v-26l-204 -408h-42z" />
<glyph unicode="&#x2078;" horiz-adv-x="382" d="M192 413q-59 0 -103 35.5t-44 97.5q0 68 75 120q-56 37 -56 92q0 51 38.5 80t91.5 29q52 0 91.5 -29.5t39.5 -82.5q0 -61 -59 -120q69 -37 69 -99q0 -51 -41.5 -87t-101.5 -36zM235 651q51 51 51 104q0 37 -27.5 56.5t-65.5 19.5q-37 0 -63.5 -19t-26.5 -54 q0 -14 6 -26.5t13.5 -21t23.5 -17.5t26 -14t32 -14.5t31 -13.5zM192 449q40 0 72 25t32 61q0 18 -8 32.5t-25.5 26t-31.5 19t-41 19t-40 17.5q-66 -41 -66 -103q0 -44 33 -70.5t75 -26.5z" />
<glyph unicode="&#x2079;" horiz-adv-x="375" d="M145 413q-31 0 -61 10q-16 5 -24 10l19 32l5 -2.5t7 -3t7 -2.5q24 -8 47 -8q59 0 97 52t47 126h-2q-41 -48 -114 -48q-58 0 -96 39.5t-38 104.5q0 67 39.5 105.5t98.5 38.5q71 0 111.5 -56.5t40.5 -143.5q0 -59 -17.5 -114.5t-61 -97.5t-105.5 -42zM179 615q44 0 76.5 25 t32.5 63q0 40 -32.5 84t-82.5 44q-43 0 -69 -32t-26 -80t28 -76t73 -28z" />
<glyph unicode="&#x2080;" horiz-adv-x="394" d="M197 -167q-148 0 -148 227t148 227t148 -227t-148 -227zM197 -131q109 0 109 191t-109 191t-109 -191t109 -191z" />
<glyph unicode="&#x2081;" horiz-adv-x="304" d="M37 -157v36h106v315q0 15 1 22q1 3 1 9h-1l-4 -5l-13 -14l-61 -60l-26 27l103 104h38v-398h103v-36h-247z" />
<glyph unicode="&#x2082;" horiz-adv-x="353" d="M38 -125q0 42 23 76t55 57t64.5 44.5t55.5 50t23 61.5q0 36 -25.5 61.5t-65.5 25.5q-37 0 -68 -25q-12 -10 -26 -25l-24 26q14 17 31 30q40 30 87 30q62 0 96 -35.5t34 -87.5q0 -41 -22.5 -73.5t-54.5 -54t-64.5 -42.5t-55.5 -50t-24 -65h192v57h38v-93h-267q0 8 -1 11 q-1 7 -1 21z" />
<glyph unicode="&#x2083;" horiz-adv-x="361" d="M55 183v93h257v-26l-129 -151q49 -3 90.5 -35.5t41.5 -94.5q0 -57 -42.5 -97t-100.5 -40q-59 0 -105 32q-19 14 -33 33l28 26q10 -16 27 -28q34 -27 84 -27q39 0 71 29.5t32 71.5q0 43 -32.5 69.5t-74.5 26.5h-32l-11 24l113 133l14 14l6 5v2q-4 0 -7 -1q-14 -2 -20 -2 h-139v-57h-38z" />
<glyph unicode="&#x2084;" horiz-adv-x="374" d="M239 -157v121h-215v26l222 287h31v-277h68v-36h-68v-121h-38zM77 0h162v175q0 11 2 27q1 5 1 14h-2q-2 -5 -6 -11q-8 -14 -16 -23l-141 -180v-2z" />
<glyph unicode="&#x2085;" horiz-adv-x="356" d="M164 -167q-52 0 -98 32q-18 12 -32 33l29 23q11 -15 26 -26q34 -26 75 -26q46 0 79 31.5t33 76.5q0 44 -33 76t-79 32q-30 0 -58 -13q-11 -6 -23 -14l-26 10l26 209h207v-93h-38v57h-137l-10 -91q0 -6 -1 -12t-2.5 -12t-1.5 -8l-2 -11h2l18 7q21 7 47 7q63 0 106.5 -42 t43.5 -102t-44 -102t-107 -42z" />
<glyph unicode="&#x2086;" horiz-adv-x="376" d="M198 -167q-71 0 -111.5 56.5t-40.5 142.5q0 43 10.5 86t31.5 82t58.5 63t85.5 24q29 0 59 -10q16 -5 24 -10l-19 -32l-5 2.5t-7 3t-7 2.5q-24 8 -46 8q-59 0 -97.5 -52t-47.5 -126h2q17 21 48.5 34.5t61.5 13.5q60 0 99 -38.5t39 -101.5q0 -70 -39.5 -109t-98.5 -39z M198 -131q47 0 73 31.5t26 80.5q0 48 -27.5 76t-72.5 28q-43 0 -76.5 -25t-33.5 -53q0 -48 31.5 -93t79.5 -45z" />
<glyph unicode="&#x2087;" horiz-adv-x="336" d="M70 -158l187 378q2 5 9 14l5 6v2q-4 0 -7 -1q-4 -1 -16 -1h-176v-57h-38v93h282v-26l-204 -408h-42z" />
<glyph unicode="&#x2088;" horiz-adv-x="381" d="M192 -166q-59 0 -103 35.5t-44 97.5q0 68 75 120q-56 37 -56 92q0 51 38.5 80t91.5 29q52 0 91.5 -29.5t39.5 -82.5q0 -61 -59 -120q69 -37 69 -99q0 -51 -41.5 -87t-101.5 -36zM235 72q51 51 51 104q0 37 -27.5 56.5t-65.5 19.5q-37 0 -63.5 -19t-26.5 -54 q0 -14 6 -26.5t13.5 -21t23.5 -17.5t26 -14t32 -14.5t31 -13.5zM192 -130q40 0 72 25t32 61q0 18 -8 32.5t-25.5 26t-31.5 19t-41 19t-40 17.5q-66 -41 -66 -103q0 -44 33 -70.5t75 -26.5z" />
<glyph unicode="&#x2089;" horiz-adv-x="375" d="M145 -167q-31 0 -61 10q-16 5 -24 10l19 32l5 -2.5t7 -3t7 -2.5q24 -8 47 -8q59 0 97 52t47 126h-2q-41 -48 -114 -48q-58 0 -96 39.5t-38 104.5q0 67 39.5 105.5t98.5 38.5q71 0 111.5 -56.5t40.5 -143.5q0 -59 -17.5 -114.5t-61 -97.5t-105.5 -42zM179 35q44 0 76.5 25 t32.5 63q0 40 -32.5 84t-82.5 44q-43 0 -69 -32t-26 -80t28 -76t73 -28z" />
<glyph unicode="&#x20ac;" horiz-adv-x="593" d="M50 263v40h54q-6 44 1 109h-55v40h62q28 115 118.5 187.5t212.5 72.5q37 0 64 -5l25 -6l-10 -42l-23 6q-25 5 -56 5q-106 0 -182 -60t-103 -158h327l-8 -40h-327q-7 -49 -2 -109h310l-7 -40h-297q23 -104 101.5 -168.5t187.5 -64.5q26 0 63 7l25 6l12 -41l-29 -7 q-33 -7 -71 -7q-126 0 -218 77t-116 198h-59z" />
<glyph unicode="&#x2122;" horiz-adv-x="935" d="M432 264l35 436h35l126 -270q7 -12 10 -27q1 -3 2.5 -7t1.5 -6h2q0 2 1.5 6t2.5 7l10 27l126 270h35l35 -436h-38l-28 328v20q0 5 1 8h-2l-127 -274h-34l-127 274h-2q1 -3 1 -8v-20l-28 -328h-38zM191 264v398h-160v38h360v-38h-161v-398h-39z" />
<glyph unicode="&#x2212;" horiz-adv-x="600" d="M52 263v40h496v-40h-496z" />
<glyph unicode="&#x221e;" horiz-adv-x="460" d="M230 184q-68 0 -116.5 48.5t-48.5 116.5t48.5 116t116.5 48t116 -48t48 -116t-48 -116.5t-116 -48.5z" />
<glyph unicode="&#x2248;" horiz-adv-x="600" d="M85 321l-25 30q25 26 63 46t78 20t74 -17.5t64.5 -35t59.5 -17.5q60 0 116 56l25 -30q-25 -26 -63 -46t-78 -20t-74 17.5t-64.5 35t-59.5 17.5q-60 0 -116 -56zM85 161l-25 30q25 26 63 46t78 20t74 -17.5t64.5 -35t59.5 -17.5q60 0 116 56l25 -30q-25 -26 -63 -46 t-78 -20t-74 17.5t-64.5 35t-59.5 17.5q-60 0 -116 -56z" />
<glyph unicode="&#x2260;" horiz-adv-x="600" d="M130 92l68 91h-126v40h156l91 120h-247v40h277l90 119l33 -25l-71 -94h127v-40h-157l-91 -120h248v-40h-278l-87 -116z" />
<glyph unicode="&#x2264;" horiz-adv-x="600" d="M66 265v36l439 197v-48l-377 -166v-2l377 -166v-48zM66 -113h439v-40h-439v40z" />
<glyph unicode="&#x2265;" horiz-adv-x="600" d="M95 68v48l377 166v2l-377 166v48l439 -197v-36zM94 -113h439v-40h-439v40z" />
<glyph unicode="&#x25fc;" horiz-adv-x="500" d="M0 500h500v-500h-500v500z" />
<glyph horiz-adv-x="250" />
<glyph horiz-adv-x="335" d="M143 -66h46q7 -17 7 -44q0 -61 -47 -99l-29 21q33 39 33 74q0 22 -10 48z" />
<glyph horiz-adv-x="1130" d="M168 -5v152l-126 72v278l126 71v151l265 142l134 -71l132 71l265 -142v-151l124 -71v-278l-124 -72v-152l-265 -141l-132 71l-134 -71zM208 30l238 -126l121 66l118 -66l238 126v139l114 64v249l-114 66v136l-238 126l-118 -64l-121 64l-238 -126v-136l-114 -66v-249 l114 -64v-139zM242 64v121l-99 60v225l99 58v123l215 114l110 -59l107 59l214 -114v-123l100 -58v-225l-100 -60v-121l-214 -114l-107 58l-110 -58zM447 91h43v228h228v40h-228v192h199q17 0 23 -6.5t6 -22.5v-42h42v54q0 30 -13 43.5t-45 13.5h-320v-40h65v-460z" />
<glyph d="M278 -12q-236 0 -236 362t236 362t236 -362t-236 -362zM278 29q54 0 92.5 24t59.5 69t30 100.5t9 127.5q0 321 -191 321t-191 -321q0 -72 9 -127.5t30 -100.5t59.5 -69t92.5 -24z" />
<glyph d="M113 0v40h159v570q0 5 0.5 13t0.5 11v11h-2q0 -1 -7 -10q-3 -3 -12.5 -14t-17.5 -19l-83 -83l-30 29l151 152h43v-660h155v-40h-357z" />
<glyph d="M504 0h-451q-3 20 -3 37q0 49 20.5 91.5t53.5 73.5t72.5 59.5t79.5 56t73 56t53.5 66t20.5 80.5q0 65 -45 108t-118 43q-69 0 -127 -50q-28 -24 -43 -51l-32 22q18 33 49 60q64 60 154 60q98 0 152.5 -56t54.5 -136q0 -49 -20.5 -91t-53.5 -72.5t-72.5 -59t-79 -55.5 t-72.5 -55.5t-53.5 -66t-20.5 -80.5h366v101h42v-141z" />
<glyph d="M83 559v141h402v-30l-226 -261q36 0 72.5 -9.5t74 -31.5t61 -65t23.5 -101q0 -89 -65.5 -151.5t-156.5 -62.5q-79 0 -159 49q-34 22 -59 48l32 32q20 -23 51 -44q63 -44 137 -44q69 0 122 49t53 124q0 77 -55.5 122t-131.5 45q-24 0 -33 -1q-5 -1 -14 -1l-13 32l206 241 q6 8 14 14q5 5 8 6v2q-8 0 -11 -1q-7 -1 -19 -1h-271v-101h-42z" />
<glyph d="M20 200v30l363 470h40v-460h104v-40h-104v-200h-43v200h-360zM359 600l-279 -358v-2h300v353q0 13 2 27q1 4 1 12h-2q-2 -6 -6 -10q-6 -11 -16 -22z" />
<glyph d="M55 79l33 29q18 -23 41 -39q56 -40 126 -40q81 0 137.5 54.5t56.5 127.5q0 85 -54 136.5t-137 51.5q-51 0 -99 -21q-23 -11 -40 -22l-32 11l40 333h325v-141h-42v101h-245l-27 -224l-4 -19l-2 -9h2q16 9 35 16q46 16 91 16q99 0 166.5 -64.5t67.5 -158.5q0 -95 -70 -162 t-170 -67q-84 0 -150 46q-31 21 -49 45z" />
<glyph d="M298 -12q-113 0 -179 94t-66 233q0 68 17.5 135t51.5 127t94.5 97.5t137.5 37.5q42 0 88 -14q16 -5 34 -14l-21 -39q-13 7 -29 13q-35 13 -74 13q-78 0 -135.5 -50t-85 -120.5t-33.5 -152.5h2q29 45 82 70.5t116 25.5q94 0 154.5 -61t60.5 -162q0 -109 -62 -171t-153 -62 zM102 263q0 -81 55.5 -157.5t139.5 -76.5q79 0 125 53.5t46 138.5q0 83 -47.5 132.5t-124.5 49.5q-78 0 -136 -45t-58 -95z" />
<glyph d="M142 0l310 632l12 21l5 7v2q-7 0 -10 -1q-7 -1 -23 -1h-334v-101h-42v141h459v-30l-332 -670h-45z" />
<glyph d="M48 196q0 44 16 83t40 63.5t39 36.5t26 18q-93 56 -93 143q0 73 54 122.5t153 49.5q95 0 151 -49t56 -128q0 -106 -91 -197q106 -58 106 -151q0 -83 -65.5 -141t-159.5 -58q-93 0 -162.5 57t-69.5 151zM121 541q0 -25 11 -46.5t25 -36t42.5 -30.5t47.5 -24.5t56.5 -24 t54.5 -22.5q10 7 28 28t38.5 64t20.5 84q0 63 -45.5 100.5t-117.5 37.5q-74 0 -117.5 -37.5t-43.5 -92.5zM93 198q0 -74 56 -121.5t129 -47.5q71 0 126.5 44.5t55.5 108.5q0 31 -12.5 55t-41.5 44t-53 31.5t-72 32t-72 31.5q-116 -72 -116 -178z" />
<glyph d="M42 479q0 109 62 171t153 62q113 0 179 -94t66 -233q0 -68 -17.5 -135t-51.5 -127t-94.5 -97.5t-137.5 -37.5q-42 0 -88 14q-16 5 -34 14l21 39q13 -7 29 -13q35 -13 74 -13q78 0 135.5 50t85 120.5t33.5 152.5h-2q-30 -42 -83.5 -67.5t-114.5 -25.5q-93 0 -154 60.5 t-61 159.5zM87 479q0 -81 48 -130t124 -49q78 0 136 43.5t58 93.5q0 81 -55.5 157.5t-139.5 76.5q-79 0 -125 -53.5t-46 -138.5z" />
<glyph horiz-adv-x="516" d="M120 329v40h276v-40h-276z" />
<glyph horiz-adv-x="288" d="M234 -65h-44q-110 194 -110 430q0 209 110 390h44q-113 -190 -113 -391q0 -231 113 -429z" />
<glyph horiz-adv-x="288" d="M98 -65h-44q113 198 113 429q0 201 -113 391h44q110 -181 110 -390q0 -236 -110 -430z" />
<glyph horiz-adv-x="279" d="M107 -65v820h108v-40h-65v-740h65v-40h-108z" />
<glyph horiz-adv-x="279" d="M64 -25h65v740h-65v40h108v-820h-108v40z" />
<glyph horiz-adv-x="306" d="M124 118v94q0 68 -42 100q-20 15 -43 19v40q23 4 43 19q42 32 42 100v81q0 48 11.5 84t27 54.5t36.5 29t34.5 13t26.5 2.5h9v-39h-6q-13 0 -25.5 -4t-30.5 -17t-29 -44.5t-11 -77.5v-93q0 -61 -39 -100q-18 -18 -40 -27v-2q21 -8 40 -26q39 -37 39 -101v-106 q0 -46 11 -77.5t29 -44.5t30.5 -17t25.5 -4h6v-39q0 -1 -2 -1h-7q-13 0 -26.5 2.5t-34.5 13t-36.5 29t-27 54.5t-11.5 85z" />
<glyph horiz-adv-x="306" d="M37 -26h6q13 0 25.5 4t30.5 17t29 44.5t11 77.5v106q0 63 40 101q19 17 39 26v2q-21 9 -39 27q-40 40 -40 100v93q0 46 -11 77.5t-29 44.5t-30.5 17t-25.5 4h-6v39h9q14 0 27.5 -2.5t34.5 -13t36 -29t26.5 -54.5t11.5 -84v-81q0 -67 43 -100q20 -15 42 -19v-40 q-22 -4 -42 -19q-43 -33 -43 -100v-94q0 -49 -11.5 -85t-26.5 -54.5t-36 -29t-34.5 -13t-27.5 -2.5h-7q-2 0 -2 1v39z" />
<glyph horiz-adv-x="738" d="M52 350q0 152 102 258.5t244 106.5q120 0 176 -51t56 -126v-344h70v-40h-265q-80 0 -136.5 57t-56.5 137q0 81 56.5 138.5t136.5 57.5h150q-3 57 -46 94t-135 37q-129 0 -218 -94.5t-89 -230.5t88.5 -229.5t218.5 -93.5v-42q-146 0 -249 106.5t-103 258.5zM287 348 q0 -64 44.5 -109t108.5 -45h145v310h-143q-65 0 -110 -46t-45 -110z" />
<glyph horiz-adv-x="497" d="M378 137l-164 205l164 206h53l-164 -206l164 -205h-53zM218 137l-164 205l164 206h53l-164 -206l164 -205h-53z" />
<glyph horiz-adv-x="497" d="M226 137l164 205l-164 206h53l164 -206l-164 -205h-53zM66 137l164 205l-164 206h53l164 -206l-164 -205h-53z" />
<glyph horiz-adv-x="337" d="M218 137l-164 205l164 206h53l-164 -206l164 -205h-53z" />
<glyph horiz-adv-x="337" d="M66 137l164 205l-164 206h53l164 -206l-164 -205h-53z" />
<glyph horiz-adv-x="718" d="M121 323v40h476v-40h-476z" />
<glyph horiz-adv-x="918" d="M121 323v40h676v-40h-676z" />
<glyph horiz-adv-x="271" d="M105 315v63h61v-63h-61z" />
<glyph horiz-adv-x="426" d="M214 639v61h59v-61h-59zM41 160q0 46 18.5 82.5t45 61.5t53.5 49t45.5 56.5t18.5 71.5v44h43v-44q0 -45 -18.5 -82.5t-44.5 -63.5t-52.5 -50.5t-45 -56.5t-18.5 -69q0 -55 41 -92t105 -37q47 0 91 21q19 11 36 21l23 -34q-21 -16 -41 -25q-52 -25 -108 -25 q-85 0 -138.5 48.5t-53.5 123.5z" />
<glyph horiz-adv-x="271" d="M105 639v61h59v-61h-59zM114 0v525h43v-525h-43z" />
<glyph horiz-adv-x="390" d="M195 219q-54 0 -93 39t-39 93t39 93t93 39t93 -39t39 -93t-39 -93t-93 -39z" />
<glyph horiz-adv-x="596" d="M68 268q0 115 61 199.5t169 84.5t169 -84.5t61 -199.5q0 -114 -60.5 -197t-169.5 -83t-169.5 83t-60.5 197zM112 270q0 -98 49 -169.5t137 -71.5t137 71.5t49 169.5t-49 169.5t-137 71.5t-137 -71.5t-49 -169.5z" />
<glyph horiz-adv-x="430" d="M65 0v39h159v409q0 8 0.5 19t0.5 15v14h-2q-1 -1 -3 -2.5t-4.5 -3t-3.5 -2.5q-13 -9 -28 -18l-117 -71l-20 31l177 110h42v-501h140v-39h-341z" />
<glyph horiz-adv-x="532" d="M69 0v32q187 127 261 203t74 149q0 63 -42.5 95t-108.5 32q-60 0 -117 -39q-29 -21 -46 -40l-27 30q23 26 52 45q68 45 142 45q94 0 142.5 -50t48.5 -113q0 -85 -70.5 -165t-234.5 -185v-2q9 0 14 1q9 1 40 1h277v-39h-405z" />
<glyph horiz-adv-x="504" d="M27 -37l32 29q15 -20 43 -40q57 -39 127 -39q69 0 121.5 44t52.5 116q0 74 -55 113.5t-133 39.5q-22 0 -31 -1l-15 -2l-13 35l201 223l14 14q5 5 8 6v2q-8 0 -11 -1q-7 -1 -19 -1h-247v-95h-41v134h381v-28l-226 -245q36 0 72 -8.5t74 -28t61.5 -60.5t23.5 -97 q0 -90 -64.5 -145.5t-155.5 -55.5q-81 0 -149 45q-28 18 -51 46z" />
<glyph horiz-adv-x="562" d="M27 41v29l348 470h38v-460h113v-39h-113v-157h-42v157h-344zM83 80h288v350q0 20 1 27q1 4 1 12h-2q-2 -6 -6 -10q-8 -14 -15 -22z" />
<glyph horiz-adv-x="511" d="M32 -34l34 24q16 -18 39 -33q52 -33 118 -33q78 0 134.5 45.5t56.5 124.5q0 77 -55.5 121t-130.5 44q-55 0 -96 -19q-24 -10 -39 -19l-31 10l40 309h318v-134h-41v95h-240l-24 -189q-1 -7 -3 -17.5t-2 -11.5l-2 -11h2q22 10 35 14q46 14 88 14q92 0 158.5 -53.5 t66.5 -151.5q0 -96 -67 -154t-167 -58q-85 0 -146 41q-26 17 -46 42z" />
<glyph horiz-adv-x="576" d="M63 286q0 51 10 102.5t33.5 102.5t57.5 90t85.5 63t113.5 24q45 0 88 -13q21 -6 34 -13l-21 -38q-14 8 -29 12q-30 11 -74 11q-59 0 -107 -26.5t-78 -71.5t-48 -98.5t-22 -112.5h2q29 47 82 71.5t117 24.5q94 0 154.5 -56.5t60.5 -150.5q0 -103 -62 -161t-153 -58 q-112 0 -178 85.5t-66 212.5zM111 242q0 -75 55.5 -144t139.5 -69q80 0 126 49.5t46 128.5q0 77 -47.5 121.5t-125.5 44.5t-136 -42t-58 -89z" />
<glyph horiz-adv-x="500" d="M110 -116l296 589l12 21l5 7v2q-7 0 -10 -1q-7 -1 -23 -1h-305v-95h-41v134h429v-28l-317 -628h-46z" />
<glyph horiz-adv-x="574" d="M62 187q0 37 15.5 71.5t39.5 58t39 35.5t28 19q-94 53 -94 137q0 66 53 113.5t147 47.5t149 -46.5t55 -119.5q0 -46 -23 -91.5t-42.5 -66t-28.5 -26.5q109 -55 109 -144q0 -78 -64 -132.5t-157 -54.5q-91 0 -158.5 53.5t-67.5 145.5zM134 508q0 -23 10.5 -43t24.5 -33.5 t40 -27.5t45.5 -22.5t54 -22t52.5 -21.5q21 12 55 60t34 105t-45 91t-115 34t-113 -34.5t-43 -85.5zM106 187q0 -72 54.5 -115t127.5 -43q69 0 123 41.5t54 103.5q0 23 -11 43.5t-26 34.5t-42.5 29t-49 23.5t-57 22.5t-54.5 23q-119 -65 -119 -163z" />
<glyph horiz-adv-x="568" d="M83 -102l21 38q14 -8 29 -12q30 -11 74 -11q59 0 107 26.5t78 71.5t48 98.5t22 112.5h-2q-29 -47 -82 -71.5t-117 -24.5q-94 0 -154.5 56.5t-60.5 150.5q0 103 62 161t153 58q112 0 178 -85.5t66 -212.5q0 -65 -17.5 -129t-51.5 -122.5t-94 -94.5t-137 -36q-45 0 -88 13 q-21 6 -34 13zM263 167q78 0 136 42t58 89q0 75 -55.5 144t-139.5 69q-80 0 -126 -49.5t-46 -128.5q0 -77 47.5 -121.5t125.5 -44.5z" />
<glyph d="M48 268q0 115 61 199.5t169 84.5t169 -84.5t61 -199.5q0 -114 -60.5 -197t-169.5 -83t-169.5 83t-60.5 197zM92 270q0 -98 49 -169.5t137 -71.5t137 71.5t49 169.5t-49 169.5t-137 71.5t-137 -71.5t-49 -169.5z" />
<glyph d="M127 0v39h159v409q0 8 0.5 19t0.5 15v14h-2q-1 -1 -3 -2.5t-4.5 -3t-3.5 -2.5q-13 -9 -28 -18l-117 -71l-20 31l177 110h42v-501h140v-39h-341z" />
<glyph d="M80 0v32q187 127 261 203t74 149q0 63 -42.5 95t-108.5 32q-60 0 -117 -39q-29 -21 -46 -40l-27 30q23 26 52 45q68 45 142 45q94 0 142.5 -50t48.5 -113q0 -85 -70.5 -165t-234.5 -185v-2q9 0 14 1q9 1 40 1h277v-39h-405z" />
<glyph d="M53 -37l32 29q15 -20 43 -40q57 -39 127 -39q69 0 121.5 44t52.5 116q0 74 -55 113.5t-133 39.5q-22 0 -31 -1l-15 -2l-13 35l201 223l14 14q5 5 8 6v2q-8 0 -11 -1q-7 -1 -19 -1h-247v-95h-41v134h381v-28l-226 -245q36 0 72 -8.5t74 -28t61.5 -60.5t23.5 -97 q0 -90 -64.5 -145.5t-155.5 -55.5q-81 0 -149 45q-28 18 -51 46z" />
<glyph d="M24 41v29l348 470h38v-460h113v-39h-113v-157h-42v157h-344zM80 80h288v350q0 20 1 27q1 4 1 12h-2q-2 -6 -6 -10q-8 -14 -15 -22z" />
<glyph d="M55 -34l34 24q17 -18 39 -33q52 -33 118 -33q78 0 134.5 45.5t56.5 124.5q0 77 -55.5 121t-130.5 44q-55 0 -96 -19q-24 -10 -39 -19l-31 10l40 309h318v-134h-41v95h-240l-24 -189q-1 -7 -3 -17.5t-2 -11.5l-2 -11h2q22 10 35 14q46 14 88 14q92 0 158.5 -53.5 t66.5 -151.5q0 -96 -67 -154t-167 -58q-85 0 -146 41q-26 17 -46 42z" />
<glyph d="M53 286q0 51 10 102.5t33.5 102.5t57.5 90t85.5 63t113.5 24q45 0 88 -13q21 -6 34 -13l-21 -38q-14 8 -29 12q-30 11 -74 11q-59 0 -107 -26.5t-78 -71.5t-48 -98.5t-22 -112.5h2q29 47 82 71.5t117 24.5q94 0 154.5 -56.5t60.5 -150.5q0 -103 -62 -161t-153 -58 q-112 0 -178 85.5t-66 212.5zM101 242q0 -75 55.5 -144t139.5 -69q80 0 126 49.5t46 128.5q0 77 -47.5 121.5t-125.5 44.5t-136 -42t-58 -89z" />
<glyph d="M138 -116l296 589l12 21l5 7v2q-7 0 -10 -1q-7 -1 -23 -1h-305v-95h-41v134h429v-28l-317 -628h-46z" />
<glyph d="M53 187q0 37 15.5 71.5t39.5 58t39 35.5t28 19q-94 53 -94 137q0 66 53 113.5t147 47.5t149 -46.5t55 -119.5q0 -46 -23 -91.5t-42.5 -66t-28.5 -26.5q109 -55 109 -144q0 -78 -64 -132.5t-157 -54.5q-91 0 -158.5 53.5t-67.5 145.5zM125 508q0 -23 10.5 -43t24.5 -33.5 t40 -27.5t45.5 -22.5t54 -22t52.5 -21.5q21 12 55 60t34 105t-45 91t-115 34t-113 -34.5t-43 -85.5zM97 187q0 -72 54.5 -115t127.5 -43q69 0 123 41.5t54 103.5q0 23 -11 43.5t-26 34.5t-42.5 29t-49 23.5t-57 22.5t-54.5 23q-119 -65 -119 -163z" />
<glyph d="M77 -102l21 38q14 -8 29 -12q30 -11 74 -11q59 0 107 26.5t78 71.5t48 98.5t22 112.5h-2q-29 -47 -82 -71.5t-117 -24.5q-94 0 -154.5 56.5t-60.5 150.5q0 103 62 161t153 58q112 0 178 -85.5t66 -212.5q0 -65 -17.5 -129t-51.5 -122.5t-94 -94.5t-137 -36q-45 0 -88 13 q-21 6 -34 13zM257 167q78 0 136 42t58 89q0 75 -55.5 144t-139.5 69q-80 0 -126 -49.5t-46 -128.5q0 -77 47.5 -121.5t125.5 -44.5z" />
<glyph horiz-adv-x="467" d="M36 90l30 31q21 -23 47 -41q61 -41 128 -41q58 0 98.5 30t40.5 79q0 42 -33 68.5t-80.5 42t-95 32.5t-80.5 52.5t-33 89.5q0 67 45 100.5t116 40.5v94h43v-94q63 -5 111 -31q20 -10 35 -25l-23 -32q-17 14 -39 24q-50 24 -111 24q-57 0 -95 -24t-38 -75q0 -44 33 -72.5 t80.5 -44t95 -32.5t80.5 -50.5t33 -85.5q0 -66 -47 -106.5t-122 -44.5v-103h-43v104q-66 9 -127 50q-27 18 -49 40z" />
<glyph horiz-adv-x="516" d="M36 298q0 99 63 165t157 74v87h43v-86q71 -4 126 -41q24 -16 43 -36l-22 -35q-16 19 -41 36q-51 36 -121 36q-85 0 -144.5 -55.5t-59.5 -144.5t59.5 -144.5t144.5 -55.5q70 0 121 36q25 17 41 36l22 -35q-21 -23 -43 -37q-55 -37 -126 -41v-82h-43v83q-95 10 -157.5 74.5 t-62.5 165.5z" />
<glyph horiz-adv-x="568" d="M45 0v39h90v209h-70v39h70v121q0 76 57 126.5t144 50.5q62 0 114 -25q21 -9 43 -26l-29 -33q-14 10 -36 22q-44 21 -93 21q-75 0 -116.5 -40.5t-41.5 -99.5v-117h243v-39h-243v-209h351v-39h-483z" />
<glyph horiz-adv-x="548" d="M85 277v40h114l-159 258h49l141 -232q14 -21 29 -50l14 -26h2l14 25q19 35 29 51l141 232h49l-158 -258h111v-40h-136l-29 -48v-32h165v-40h-165v-157h-43v157h-168v40h168v32l-30 48h-138z" />
<glyph horiz-adv-x="552" d="M-15 -123v39l18 -3q22 -2 44 -2q19 0 36.5 5t39 18.5t36.5 45t19 76.5l24 275h-96v38h99l10 115q4 47 19 82.5t33.5 54.5t43 30.5t43 14.5t36.5 3q34 0 56 -3l25 -4v-39l-26 4q-24 3 -56 3q-19 0 -37 -5t-39 -18.5t-35.5 -45t-19.5 -76.5l-11 -116h133v-38h-136l-24 -274 q-6 -58 -26 -98t-48.5 -57.5t-51.5 -23.5t-48 -6q-22 0 -44 2z" />
<glyph horiz-adv-x="568" d="M46 198v40h66q-7 42 -2 93h-64v40h72q26 94 102.5 154t199.5 60q31 0 65 -6l27 -6l-11 -41l-25 6q-28 5 -56 5q-102 0 -165.5 -47.5t-89.5 -124.5h301l-9 -40h-302q-7 -56 1 -93h283l-9 -40h-264q26 -75 90 -121.5t164 -46.5q26 0 63 7l25 6l12 -41l-29 -7q-33 -7 -71 -7 q-118 0 -194.5 58.5t-104.5 151.5h-75z" />
<glyph horiz-adv-x="394" d="M197 256q-148 0 -148 227t148 227t148 -227t-148 -227zM197 292q109 0 109 191t-109 191t-109 -191t109 -191z" />
<glyph horiz-adv-x="304" d="M37 266v36h106v315q0 15 1 22q1 3 1 9h-1l-4 -5l-13 -14l-61 -60l-26 27l103 104h38v-398h103v-36h-247z" />
<glyph horiz-adv-x="353" d="M38 298q0 42 23 76t55 57t64.5 44.5t55.5 50t23 61.5q0 36 -25.5 61.5t-65.5 25.5q-37 0 -68 -25q-12 -10 -26 -25l-24 26q14 17 31 30q40 30 87 30q62 0 96 -35.5t34 -87.5q0 -41 -22.5 -73.5t-54.5 -54t-64.5 -42.5t-55.5 -50t-24 -65h192v57h38v-93h-267q0 8 -1 11 q-1 7 -1 21z" />
<glyph horiz-adv-x="360" d="M54 607v93h257v-26l-129 -151q50 -3 91 -35.5t41 -94.5q0 -57 -42.5 -97t-100.5 -40t-105 33q-19 13 -33 32l28 26q11 -15 27 -27q35 -28 84 -28q39 0 71 29.5t32 71.5q0 43 -32.5 69.5t-74.5 26.5h-32l-11 24l113 133l14 14l6 5v2q-4 0 -7 -1q-14 -2 -20 -2h-139v-57 h-38z" />
<glyph horiz-adv-x="374" d="M239 266v121h-215v26l222 287h31v-277h68v-36h-68v-121h-38zM77 423h162v175q0 11 2 27q1 5 1 14h-2q-2 -5 -6 -11q-8 -14 -16 -23l-141 -180v-2z" />
<glyph horiz-adv-x="356" d="M164 256q-51 0 -98 33q-17 12 -32 32l29 23q11 -15 26 -26q34 -26 75 -26q46 0 79 31.5t33 76.5q0 44 -33 76t-79 32q-30 0 -58 -13q-11 -6 -23 -14l-26 10l26 209h207v-93h-38v57h-137l-10 -91q0 -6 -1 -12t-2.5 -12t-1.5 -8l-2 -11h2l18 7q21 7 47 7q63 0 106.5 -42 t43.5 -102t-44 -102t-107 -42z" />
<glyph horiz-adv-x="376" d="M198 256q-71 0 -111.5 56.5t-40.5 142.5q0 43 10.5 86t31.5 82t58.5 63t85.5 24q29 0 59 -10q16 -5 24 -10l-19 -32l-5 2.5t-7 3t-7 2.5q-24 8 -46 8q-59 0 -97.5 -52t-47.5 -126h2q17 21 48.5 34.5t61.5 13.5q60 0 99 -38.5t39 -101.5q0 -70 -39.5 -109t-98.5 -39z M198 292q47 0 73 31.5t26 80.5q0 48 -27.5 76t-72.5 28q-43 0 -76.5 -25t-33.5 -53q0 -48 31.5 -93t79.5 -45z" />
<glyph horiz-adv-x="335" d="M70 266l187 378q2 5 9 14l5 6v2q-4 0 -7 -1q-4 -1 -16 -1h-176v-57h-38v93h282v-26l-204 -408h-42z" />
<glyph horiz-adv-x="382" d="M192 255q-59 0 -103 35.5t-44 97.5q0 68 75 120q-56 37 -56 92q0 51 38.5 80t91.5 29q52 0 91.5 -29.5t39.5 -82.5q0 -61 -59 -120q69 -37 69 -99q0 -51 -41.5 -87t-101.5 -36zM235 493q51 51 51 104q0 37 -27.5 56.5t-65.5 19.5q-37 0 -63.5 -19t-26.5 -54 q0 -14 6 -26.5t13.5 -21t23.5 -17.5t26 -14t32 -14.5t31 -13.5zM192 291q40 0 72 25t32 61q0 18 -8 32.5t-25.5 26t-31.5 19t-41 19t-40 17.5q-66 -41 -66 -103q0 -44 33 -70.5t75 -26.5z" />
<glyph horiz-adv-x="375" d="M145 256q-31 0 -61 10q-16 5 -24 10l19 32l5 -2.5t7 -3t7 -2.5q24 -8 47 -8q59 0 97 52t47 126h-2q-41 -48 -114 -48q-58 0 -96 39.5t-38 104.5q0 67 39.5 105.5t98.5 38.5q71 0 111.5 -56.5t40.5 -143.5q0 -59 -17.5 -114.5t-61 -97.5t-105.5 -42zM179 458q44 0 76.5 25 t32.5 63q0 40 -32.5 84t-82.5 44q-43 0 -69 -32t-26 -80t28 -76t73 -28z" />
<glyph horiz-adv-x="394" d="M197 -10q-148 0 -148 227t148 227t148 -227t-148 -227zM197 26q109 0 109 191t-109 191t-109 -191t109 -191z" />
<glyph horiz-adv-x="307" d="M39 0v36h106v315q0 15 1 22q1 3 1 9h-1l-4 -5l-13 -14l-61 -60l-26 27l103 104h38v-398h103v-36h-247z" />
<glyph horiz-adv-x="353" d="M38 32q0 42 23 76t55 57t64.5 44.5t55.5 50t23 61.5q0 36 -25.5 61.5t-65.5 25.5q-37 0 -68 -25q-12 -10 -26 -25l-24 26q14 17 31 30q40 30 87 30q62 0 96 -35.5t34 -87.5q0 -41 -22.5 -73.5t-54.5 -54t-64.5 -42.5t-55.5 -50t-24 -65h192v57h38v-93h-267q0 8 -1 11 q-1 7 -1 21z" />
<glyph horiz-adv-x="360" d="M54 341v93h257v-26l-129 -151q50 -3 91 -35.5t41 -94.5q0 -57 -42.5 -97t-100.5 -40t-105 33q-19 13 -33 32l28 26q11 -15 27 -27q35 -28 84 -28q39 0 71 29.5t32 71.5q0 43 -32.5 69.5t-74.5 26.5h-32l-11 24l113 133l14 14l6 5v2q-4 0 -7 -1q-14 -2 -20 -2h-139v-57 h-38z" />
<glyph horiz-adv-x="372" d="M238 0v121h-215v26l222 287h31v-277h68v-36h-68v-121h-38zM76 157h162v175q0 11 2 27q1 5 1 14h-2q-2 -5 -6 -11q-8 -14 -16 -23l-141 -180v-2z" />
<glyph horiz-adv-x="356" d="M164 -10q-51 0 -98 33q-17 12 -32 32l29 23q11 -15 26 -26q34 -26 75 -26q46 0 79 31.5t33 76.5q0 44 -33 76t-79 32q-30 0 -58 -13q-11 -6 -23 -14l-26 10l26 209h207v-93h-38v57h-137l-10 -91q0 -6 -1 -12t-2.5 -12t-1.5 -8l-2 -11h2l18 7q21 7 47 7q63 0 106.5 -42 t43.5 -102t-44 -102t-107 -42z" />
<glyph horiz-adv-x="375" d="M198 -10q-71 0 -111.5 56.5t-40.5 142.5q0 43 10.5 86t31.5 82t58.5 63t85.5 24q29 0 59 -10q16 -5 24 -10l-19 -32l-5 2.5t-7 3t-7 2.5q-24 8 -46 8q-59 0 -97.5 -52t-47.5 -126h2q17 21 48.5 34.5t61.5 13.5q60 0 99 -38.5t39 -101.5q0 -70 -39.5 -109t-98.5 -39z M198 26q47 0 73 31.5t26 80.5q0 48 -27.5 76t-72.5 28q-43 0 -76.5 -25t-33.5 -53q0 -48 31.5 -93t79.5 -45z" />
<glyph horiz-adv-x="336" d="M71 0l187 378q2 5 9 14l5 6v2q-4 0 -7 -1q-4 -1 -16 -1h-176v-57h-38v93h282v-26l-204 -408h-42z" />
<glyph horiz-adv-x="382" d="M192 -10q-59 0 -103 35.5t-44 97.5q0 68 75 120q-56 37 -56 92q0 51 38.5 80t91.5 29q52 0 91.5 -29.5t39.5 -82.5q0 -61 -59 -120q69 -37 69 -99q0 -51 -41.5 -87t-101.5 -36zM235 228q51 51 51 104q0 37 -27.5 56.5t-65.5 19.5q-37 0 -63.5 -19t-26.5 -54 q0 -14 6 -26.5t13.5 -21t23.5 -17.5t26 -14t32 -14.5t31 -13.5zM192 26q40 0 72 25t32 61q0 18 -8 32.5t-25.5 26t-31.5 19t-41 19t-40 17.5q-66 -41 -66 -103q0 -44 33 -70.5t75 -26.5z" />
<glyph horiz-adv-x="375" d="M145 -10q-31 0 -61 10q-16 5 -24 10l19 32l5 -2.5t7 -3t7 -2.5q24 -8 47 -8q59 0 97 52t47 126h-2q-41 -48 -114 -48q-58 0 -96 39.5t-38 104.5q0 67 39.5 105.5t98.5 38.5q71 0 111.5 -56.5t40.5 -143.5q0 -59 -17.5 -114.5t-61 -97.5t-105.5 -42zM179 192q44 0 76.5 25 t32.5 63q0 40 -32.5 84t-82.5 44q-43 0 -69 -32t-26 -80t28 -76t73 -28z" />
</font>
</defs>
</svg>
